<?xml version="1.0" encoding="UTF-8"?>
<svg width="70px" height="45px" viewBox="0 0 70 45" version="1.1" xmlns="http://www.w3.org/2000/svg" xmlns:xlink="http://www.w3.org/1999/xlink">
    <!-- Generator: Sketch 49 (51002) - http://www.bohemiancoding.com/sketch -->
    <title>ic/pago/american-express</title>
    <desc>Created with Sketch.</desc>
    <defs></defs>
    <g id="ic/pago/american-express" stroke="none" stroke-width="1" fill="none" fill-rule="evenodd">
        <path d="M6.9574,13.0005 L4.0004,19.9575 L5.7834,19.9575 L6.4754,18.3465 L9.1924,18.3465 L9.8784,19.9575 L11.6634,19.9575 L8.7084,13.0005 L6.9574,13.0005 Z M7.8354,14.6715 L8.8504,17.1085 L6.8164,17.1085 L7.8354,14.6715 Z M19.2937,13.0005 L17.6787,16.8865 L17.0387,18.4285 L14.8967,13.0005 L12.2187,13.0005 L12.2187,19.9575 L13.9647,19.9575 L13.9647,14.7325 L16.0867,19.9575 L17.9727,19.9575 L19.2937,16.8865 L20.2207,14.7325 L20.2207,16.8865 L20.2207,19.9575 L21.9667,19.9575 L21.9667,16.8865 L21.9667,13.0005 L19.2937,13.0005 Z M23.7946,13.0023 L23.7946,16.8853 L23.7946,19.9563 L29.8646,19.9563 L29.8646,18.6143 L25.4386,18.6143 L25.4386,17.0293 L29.1806,17.0293 L29.1806,16.8853 L29.1806,15.7073 L25.4386,15.7073 L25.4386,14.3023 L29.7276,14.3023 L29.7276,13.0023 L23.7946,13.0023 Z M43.0155,28.3956 C42.8625,28.4976 42.6055,28.5486 42.2405,28.5486 L40.0595,28.5486 L40.0595,26.7126 L42.2405,26.7126 C42.5185,26.7126 42.7175,26.7336 42.8405,26.7736 C43.1875,26.8936 43.3645,27.1646 43.3645,27.5906 C43.3645,27.9706 43.2465,28.2386 43.0155,28.3956 M44.9165,30.6966 C44.8775,30.5416 44.8155,30.3846 44.7275,30.2206 C44.6085,30.0096 44.4785,29.8496 44.3295,29.7416 C44.1855,29.6326 43.9705,29.5316 43.6835,29.4406 C44.0435,29.3236 44.3315,29.1586 44.5505,28.9406 C44.9035,28.5826 45.0785,28.0736 45.0785,27.4106 C45.0785,27.0816 45.0005,26.7806 44.8515,26.5056 C44.7005,26.2326 44.4895,26.0126 44.2105,25.8456 C43.8085,25.5986 43.0935,25.4746 42.0715,25.4746 L38.5075,25.4746 L38.5075,32.4306 L40.0595,32.4306 L40.0595,29.7876 L41.3095,29.7876 C41.8475,29.7836 42.2575,29.8546 42.5375,30.0006 C42.7675,30.1226 42.9395,30.2916 43.0505,30.5076 C43.1625,30.7226 43.2405,31.0366 43.2845,31.4436 C43.3355,31.9386 43.3895,32.2676 43.4445,32.4306 L45.1875,32.4306 C45.1135,32.2316 45.0515,31.8816 45.0105,31.3826 C44.9855,31.0806 44.9525,30.8516 44.9165,30.6966 M40.5829,16.8863 L40.5829,13.0003 L39.0659,13.0003 L39.0659,16.8863 L39.0659,19.9573 L40.5829,19.9573 L40.5829,16.8863 Z M55.7538,16.8863 L55.7538,14.8543 L56.9138,16.8863 L58.6658,19.9573 L60.5408,19.9573 L60.5408,16.8863 L60.5408,13.0003 L59.0898,13.0003 L59.0898,16.8863 L59.0898,18.1823 L58.3798,16.8863 L56.2508,13.0003 L54.3058,13.0003 L54.3058,16.8863 L54.3058,19.9573 L55.7538,19.9573 L55.7538,16.8863 Z M48.7469,16.8863 L49.6729,14.6713 L50.5949,16.8863 L50.6859,17.1083 L48.6529,17.1083 L48.7469,16.8863 Z M47.6209,19.9573 L48.3109,18.3463 L51.0289,18.3463 L51.7169,19.9573 L53.5019,19.9573 L52.1969,16.8863 L50.5459,13.0003 L48.7949,13.0003 L47.1429,16.8863 L46.3639,18.7193 L45.0879,18.7193 C44.4839,18.7193 44.0399,18.6063 43.7549,18.3823 C43.4209,18.1183 43.2229,17.6183 43.1619,16.8863 C43.1469,16.7223 43.1419,16.5463 43.1419,16.3593 C43.1419,15.5903 43.2709,15.0613 43.5349,14.7693 C43.8519,14.4163 44.3509,14.2393 45.0319,14.2393 L47.2759,14.2393 L47.2759,13.0003 L44.8559,13.0003 C44.1409,13.0003 43.5549,13.0973 43.1029,13.2903 C42.6509,13.4833 42.2919,13.7913 42.0229,14.2133 C41.6499,14.8003 41.4639,15.5623 41.4639,16.4973 C41.4639,16.6313 41.4679,16.7603 41.4749,16.8863 C41.5089,17.4943 41.6259,18.0163 41.8299,18.4533 C42.1989,19.2413 42.8219,19.7193 43.6979,19.8863 C43.9489,19.9333 44.3109,19.9573 44.7849,19.9573 L45.8369,19.9573 L47.2759,19.9573 L47.6209,19.9573 Z M35.6649,15.921 C35.4939,16.024 35.2079,16.074 34.8019,16.074 L32.3679,16.074 L32.3679,14.239 L34.8009,14.239 C35.1109,14.239 35.3329,14.259 35.4699,14.3 C35.8569,14.42 36.0549,14.691 36.0539,15.116 C36.0539,15.496 35.9239,15.764 35.6649,15.921 M37.7849,18.223 C37.7419,18.067 37.6719,17.909 37.5729,17.746 C37.4409,17.535 37.2949,17.375 37.1319,17.268 C36.9689,17.158 36.7279,17.057 36.4099,16.966 C36.4949,16.942 36.5759,16.915 36.6539,16.886 C36.9439,16.778 37.1859,16.639 37.3769,16.467 C37.7689,16.108 37.9669,15.599 37.9669,14.937 C37.9669,14.608 37.8809,14.306 37.7129,14.031 C37.5439,13.758 37.3069,13.539 36.9999,13.372 C36.5489,13.123 35.7499,13 34.6109,13 L30.6399,13 L30.6399,16.886 L30.6399,19.957 L32.3679,19.957 L32.3679,17.313 L33.7649,17.313 C34.3619,17.31 34.8199,17.381 35.1339,17.527 C35.3879,17.649 35.5799,17.817 35.7029,18.033 C35.8299,18.249 35.9149,18.562 35.9639,18.969 C36.0219,19.465 36.0819,19.793 36.1439,19.957 L38.0869,19.957 C38.0039,19.757 37.9359,19.407 37.8899,18.908 C37.8609,18.606 37.8269,18.378 37.7849,18.223 M35.1473,28.5885 C34.9843,28.7045 34.7023,28.7625 34.2993,28.7625 L32.0553,28.7625 L32.0553,26.7125 L34.3353,26.7125 C34.6193,26.7125 34.8283,26.7365 34.9593,26.7835 C35.3263,26.9165 35.5083,27.2175 35.5083,27.6875 C35.5083,28.1155 35.3893,28.4165 35.1473,28.5885 Z M30.4113,31.7255 L28.1213,28.9155 L30.4113,26.1665 L30.4113,31.7255 Z M24.1283,31.1065 L23.7223,31.0895 L19.2973,31.0895 L19.2973,29.5035 L23.0403,29.5035 L23.0403,28.1825 L19.2973,28.1825 L19.2973,26.7775 L23.5853,26.7775 L23.5853,26.0125 L25.9203,28.9155 L24.1283,31.1065 Z M35.7873,25.6065 C35.4813,25.5175 34.9773,25.4745 34.2733,25.4745 L30.9863,25.4745 L30.4113,25.4745 L28.8123,25.4745 L27.0063,27.7615 L25.3453,25.4745 L23.1513,25.4745 L23.1533,25.4765 L17.6543,25.4765 L17.6543,32.4305 L23.0463,32.4305 L23.7223,32.4305 L25.1923,32.4305 L27.0063,30.0465 L28.8673,32.4305 L30.4113,32.4305 L30.9863,32.4305 L32.0553,32.4305 L32.0553,30.0015 L34.7043,30.0015 C35.1543,30.0015 35.5083,29.9665 35.7703,29.8965 C36.0313,29.8275 36.2763,29.7025 36.5013,29.5235 C36.7583,29.3175 36.9593,29.0575 37.1033,28.7415 C37.2473,28.4265 37.3193,28.0905 37.3193,27.7375 C37.3193,27.3095 37.2083,26.9165 36.9903,26.5595 C36.6953,26.0785 36.2943,25.7595 35.7873,25.6065 Z M47.702,29.5035 L51.443,29.5035 L51.443,28.1825 L47.702,28.1825 L47.702,26.7775 L51.989,26.7775 L51.989,25.4765 L46.056,25.4765 L46.056,32.4305 L52.125,32.4305 L52.125,31.0895 L47.702,31.0895 L47.702,29.5035 Z M58.1034,28.4196 C57.8314,28.3206 57.4164,28.2716 56.8654,28.2716 L55.7864,28.2716 C55.3914,28.2716 55.1084,28.2336 54.9384,28.1556 C54.6844,28.0386 54.5584,27.8146 54.5574,27.4826 C54.5574,27.0886 54.7094,26.8516 55.0124,26.7736 C55.1594,26.7366 55.4584,26.7166 55.9104,26.7126 L58.9204,26.7126 L58.9204,25.4746 L55.5824,25.4746 C55.1864,25.4746 54.8864,25.4846 54.6864,25.5056 C54.0914,25.5696 53.6604,25.7976 53.3904,26.1876 C53.1154,26.5906 52.9764,27.0386 52.9764,27.5266 C52.9764,27.8356 53.0364,28.1286 53.1534,28.4026 C53.2734,28.6746 53.4364,28.9016 53.6464,29.0826 C53.9834,29.3686 54.5324,29.5106 55.2934,29.5106 L56.5404,29.5106 C56.8834,29.5106 57.1374,29.5536 57.2944,29.6426 C57.5714,29.7996 57.7084,30.0466 57.7084,30.3826 C57.7084,30.6746 57.5914,30.8936 57.3544,31.0406 C57.1894,31.1426 56.8624,31.1926 56.3684,31.1926 L53.2954,31.1926 L53.2954,32.4306 L56.6784,32.4306 C57.1914,32.4306 57.5764,32.4086 57.8324,32.3656 C58.3614,32.2736 58.7574,31.9896 59.0204,31.5146 C59.2074,31.1776 59.3014,30.7976 59.3004,30.3766 C59.3004,29.9916 59.2294,29.6326 59.0834,29.2966 C58.9074,28.8786 58.5804,28.5866 58.1034,28.4196 M65.993,29.2965 C65.816,28.8785 65.488,28.5865 65.012,28.4195 C64.74,28.3205 64.326,28.2715 63.773,28.2715 L62.695,28.2715 C62.3,28.2715 62.016,28.2335 61.847,28.1555 C61.593,28.0385 61.467,27.8145 61.467,27.4825 C61.467,27.0885 61.618,26.8515 61.921,26.7735 C62.067,26.7365 62.367,26.7165 62.819,26.7125 L65.831,26.7125 L65.831,25.4745 L62.492,25.4745 C62.096,25.4745 61.795,25.4845 61.595,25.5055 C61.002,25.5695 60.568,25.7975 60.3,26.1875 C60.023,26.5905 59.886,27.0385 59.886,27.5265 C59.886,27.8355 59.945,28.1295 60.061,28.4025 C60.181,28.6745 60.346,28.9015 60.556,29.0825 C60.89,29.3685 61.44,29.5105 62.202,29.5105 L63.448,29.5105 C63.794,29.5105 64.047,29.5535 64.205,29.6425 C64.479,29.7995 64.619,30.0465 64.618,30.3825 C64.618,30.6745 64.501,30.8935 64.263,31.0405 C64.097,31.1425 63.769,31.1925 63.276,31.1925 L60.206,31.1925 L60.206,32.4305 L63.588,32.4305 C64.099,32.4305 64.483,32.4085 64.741,32.3655 C65.268,32.2735 65.666,31.9895 65.929,31.5145 C66.115,31.1775 66.21,30.7975 66.21,30.3765 C66.21,29.9915 66.137,29.6325 65.993,29.2965" id="Combined-Shape" fill="#007AC6"></path>
    </g>
</svg>