<svg height="512pt" viewBox="0 -176 512.119 512" width="512pt" xmlns="http://www.w3.org/2000/svg"><path d="m508.117188 136.058594h-67.214844c-2.207032 0-4-1.792969-4-4 0-2.207032 1.792968-4 4-4h67.214844c2.210937 0 4 1.792968 4 4 0 2.207031-1.789063 4-4 4zm0 0" fill="#ed5565"/><path d="m367.320312 136.058594h-323.304687c-2.207031 0-4-1.792969-4-4 0-2.207032 1.792969-4 4-4h323.304687c2.207032 0 4 1.792968 4 4 0 2.207031-1.785156 4-4 4zm0 0" fill="#ed5565"/><path d="m244.015625 4.058594c54 0 108.878906 28.722656 128 40h-16c-208 0-224-16-224-16l-9.921875-4.71875v-.082032c25.769531-8.878906 67.449219-19.199218 121.921875-19.199218zm0 0" fill="#5d9cec"/><path d="m268.71875 42.90625 9.480469-35.351562c-5.257813-1.007813-10.558594-1.832032-15.914063-2.421876l-9.980468 37.222657c5.246093.207031 10.695312.390625 16.414062.550781zm0 0" fill="#87bcf4"/><path d="m276.941406 43.140625 9.097656-33.953125c-1.304687-.296875-2.601562-.574219-3.910156-.847656l-9.296875 34.695312c1.328125.03125 2.75.0625 4.109375.105469zm0 0" fill="#87bcf4"/><path d="m512.117188 116.050781c0-1.070312-.429688-2.09375-1.191407-2.839843l-6.917969-6.824219v-22.328125c0-1.0625-.425781-2.078125-1.167968-2.832032-1.015625-1.015624-25.96875-24.96875-129.296875-40.984374-7.390625-5.078126-60.878907-40.1835942-129.542969-40.1835942-91.167969 0-146.007812 28.1679682-153.242188 32.1132812l-71.199218 7.910156c-2.023438.226563-3.550782 1.9375-3.550782 3.976563v6.34375l-14.832031 14.824218c-.976562.976563-1.386719 2.394532-1.074219 3.738282.050782.207031 4.730469 20.421875 7.953126 39.75 3.601562 21.632812 25.089843 27.34375 35.945312 27.34375 1.886719 0 3.398438-1.335938 3.824219-3.101563l9 2.140625c-3.042969-5.679687-4.808594-12.15625-4.808594-19.039062 0-22.078125 17.917969-40 40-40 22.078125 0 40 17.921875 40 40 0 5.511718-1.121094 10.800781-3.121094 15.601562l11.121094.398438h216l9.765625-4.078125c-1.125-3.769531-1.765625-7.769531-1.765625-11.921875 0-22.078125 17.917969-40 40-40 22.078125 0 40 17.921875 40 40 0 5.511718-1.121094 10.800781-3.121094 15.601562l11.121094.398438h36.078125c.023438.992187.394531 1.976562 1.152344 2.738281 1.542968 1.566406 4.082031 1.582031 5.65625.015625l2.777344-2.753906h2.34375v-2.328125l10.917968-10.832031c.753906-.75 1.175782-1.773438 1.175782-2.847657zm-489.285157-61.160156c.183594-.183594.296875-.4375.4375-.65625l20.746094 13.824219h-34.359375zm333.183594-10.832031c-208 0-224-16-224-16l-4.671875-2.214844c25.734375-8.496094 65.496094-17.785156 116.65625-17.785156 57.839844 0 105.640625 26.632812 120.664062 36zm0 0" fill="#ed5565"/><path d="m47.886719 68.980469c.433593-1.816407-.449219-3.671875-2.105469-4.503907l-29.789062-14.082031-14.816407 14.832031c-.402343.402344-.625.898438-.832031 1.410157-.128906.320312-.167969.648437-.207031.984375-.035157.320312-.0664065.628906-.027344.957031.082031.546875.1875 1.097656.496094 1.578125.722656 1.183594 2.007812 1.902344 3.394531 1.902344h40c1.855469 0 3.472656-1.269532 3.886719-3.078125zm0 0" fill="#da4453"/><path d="m204 43.8125c-1.808594 0-3.449219-1.226562-3.890625-3.058594l-8-33c-.511719-2.152344.808594-4.308594 2.945313-4.832031 2.175781-.46875 4.3125.808594 4.832031 2.945313l8 33c.511719 2.152343-.808594 4.3125-2.945313 4.832031-.320312.074219-.628906.113281-.941406.113281zm0 0" fill="#ed5565"/><path d="m228 72.058594h-16c-2.210938 0-4-1.792969-4-4 0-2.207032 1.789062-4 4-4h16c2.207031 0 4 1.792968 4 4 0 2.207031-1.785156 4-4 4zm0 0" fill="#da4453"/><path d="m404.015625 76.058594c22.078125 0 40 17.921875 40 40 0 5.511718-1.121094 10.800781-3.121094 15.601562-6.078125 14.320313-20.320312 24.398438-36.878906 24.398438-17.921875 0-33.121094-11.839844-38.234375-28.078125-1.125-3.769531-1.765625-7.769531-1.765625-11.921875 0-22.078125 17.917969-40 40-40zm0 0" fill="#ccd1d9"/><path d="m404.238281 120.058594c-2.207031 0-4.039062-1.792969-4.039062-4 0-2.207032 1.75-4 3.953125-4h.085937c2.199219 0 4 1.792968 4 4 0 2.207031-1.792969 4-4 4zm0 0" fill="#aab2bd"/><path d="m404 160.058594c-24.257812 0-44-19.742188-44-44 0-24.253906 19.742188-44 44-44 24.253906 0 44 19.746094 44 44 0 24.257812-19.746094 44-44 44zm0-80c-19.847656 0-36 16.152344-36 36s16.152344 36 36 36 36-16.152344 36-36-16.144531-36-36-36zm0 0" fill="#656d78"/><g fill="#aab2bd"><path d="m404 104.058594c-2.210938 0-4-1.792969-4-4v-8c0-2.207032 1.789062-4 4-4 2.207031 0 4 1.792968 4 4v8c0 2.207031-1.785156 4-4 4zm0 0"/><path d="m404 144.058594c-2.210938 0-4-1.792969-4-4v-8c0-2.207032 1.789062-4 4-4 2.207031 0 4 1.792968 4 4v8c0 2.207031-1.785156 4-4 4zm0 0"/><path d="m388 120.058594h-8c-2.210938 0-4-1.792969-4-4 0-2.207032 1.789062-4 4-4h8c2.207031 0 4 1.792968 4 4 0 2.207031-1.785156 4-4 4zm0 0"/><path d="m428 120.058594h-8c-2.210938 0-4-1.792969-4-4 0-2.207032 1.789062-4 4-4h8c2.207031 0 4 1.792968 4 4 0 2.207031-1.785156 4-4 4zm0 0"/><path d="m392.6875 108.746094c-1.023438 0-2.046875-.390625-2.832031-1.167969l-5.65625-5.65625c-1.558594-1.558594-1.558594-4.09375 0-5.65625 1.558593-1.558594 4.097656-1.558594 5.65625 0l5.65625 5.65625c1.558593 1.5625 1.558593 4.097656 0 5.65625-.777344.777344-1.800781 1.167969-2.824219 1.167969zm0 0"/><path d="m420.96875 137.027344c-1.027344 0-2.050781-.390625-2.832031-1.167969l-5.65625-5.65625c-1.5625-1.558594-1.5625-4.09375 0-5.65625 1.558593-1.558594 4.09375-1.558594 5.65625 0l5.652343 5.65625c1.5625 1.558594 1.5625 4.097656 0 5.65625-.773437.777344-1.796874 1.167969-2.820312 1.167969zm0 0"/><path d="m387.03125 137.027344c-1.023438 0-2.046875-.390625-2.832031-1.167969-1.558594-1.558594-1.558594-4.097656 0-5.65625l5.65625-5.65625c1.558593-1.558594 4.09375-1.558594 5.65625 0 1.558593 1.5625 1.558593 4.097656 0 5.65625l-5.65625 5.65625c-.777344.777344-1.800781 1.167969-2.824219 1.167969zm0 0"/><path d="m415.3125 108.746094c-1.027344 0-2.050781-.390625-2.832031-1.167969-1.5625-1.558594-1.5625-4.09375 0-5.65625l5.65625-5.65625c1.558593-1.558594 4.09375-1.558594 5.652343 0 1.5625 1.5625 1.5625 4.097656 0 5.65625l-5.652343 5.65625c-.777344.777344-1.800781 1.167969-2.824219 1.167969zm0 0"/></g><path d="m92.03125 76.058594c22.078125 0 40 17.921875 40 40 0 5.511718-1.121094 10.800781-3.121094 15.601562-6.078125 14.320313-20.320312 24.398438-36.878906 24.398438-17.921875 0-33.121094-11.839844-38.230469-28.078125-1.128906-3.761719-1.769531-7.761719-1.769531-11.921875 0-22.078125 17.917969-40 40-40zm0 0" fill="#ccd1d9"/><path d="m92.253906 120.058594c-2.207031 0-4.039062-1.792969-4.039062-4 0-2.207032 1.753906-4 3.953125-4h.085937c2.199219 0 4 1.792968 4 4 0 2.207031-1.789062 4-4 4zm0 0" fill="#aab2bd"/><path d="m92.015625 160.058594c-24.257813 0-44-19.742188-44-44 0-24.253906 19.742187-44 44-44 24.253906 0 44 19.746094 44 44 0 24.257812-19.746094 44-44 44zm0-80c-19.847656 0-36 16.152344-36 36s16.152344 36 36 36 36-16.152344 36-36-16.144531-36-36-36zm0 0" fill="#656d78"/><path d="m92.015625 104.058594c-2.207031 0-4-1.792969-4-4v-8c0-2.207032 1.792969-4 4-4s4 1.792968 4 4v8c0 2.207031-1.792969 4-4 4zm0 0" fill="#aab2bd"/><path d="m92.015625 144.058594c-2.207031 0-4-1.792969-4-4v-8c0-2.207032 1.792969-4 4-4s4 1.792968 4 4v8c0 2.207031-1.792969 4-4 4zm0 0" fill="#aab2bd"/><path d="m76.015625 120.058594h-8c-2.207031 0-4-1.792969-4-4 0-2.207032 1.792969-4 4-4h8c2.207031 0 4 1.792968 4 4 0 2.207031-1.792969 4-4 4zm0 0" fill="#aab2bd"/><path d="m116.015625 120.058594h-8c-2.207031 0-4-1.792969-4-4 0-2.207032 1.792969-4 4-4h8c2.207031 0 4 1.792968 4 4 0 2.207031-1.792969 4-4 4zm0 0" fill="#aab2bd"/><path d="m80.703125 108.746094c-1.023437 0-2.046875-.390625-2.832031-1.167969l-5.65625-5.65625c-1.558594-1.558594-1.558594-4.09375 0-5.65625 1.558594-1.558594 4.097656-1.558594 5.65625 0l5.65625 5.65625c1.558594 1.5625 1.558594 4.097656 0 5.65625-.777344.777344-1.800782 1.167969-2.824219 1.167969zm0 0" fill="#aab2bd"/><path d="m108.984375 137.027344c-1.023437 0-2.050781-.390625-2.832031-1.167969l-5.65625-5.65625c-1.5625-1.558594-1.5625-4.09375 0-5.65625 1.558594-1.558594 4.09375-1.558594 5.65625 0l5.65625 5.65625c1.558594 1.558594 1.558594 4.097656 0 5.65625-.777344.777344-1.800782 1.167969-2.824219 1.167969zm0 0" fill="#aab2bd"/><path d="m75.046875 137.027344c-1.023437 0-2.046875-.390625-2.832031-1.167969-1.558594-1.558594-1.558594-4.097656 0-5.65625l5.65625-5.65625c1.558594-1.558594 4.097656-1.558594 5.65625 0 1.558594 1.5625 1.558594 4.097656 0 5.65625l-5.65625 5.65625c-.777344.777344-1.800782 1.167969-2.824219 1.167969zm0 0" fill="#aab2bd"/><path d="m103.328125 108.746094c-1.023437 0-2.050781-.390625-2.832031-1.167969-1.5625-1.558594-1.5625-4.09375 0-5.65625l5.65625-5.65625c1.558594-1.558594 4.09375-1.558594 5.65625 0 1.558594 1.5625 1.558594 4.097656 0 5.65625l-5.65625 5.65625c-.777344.777344-1.800782 1.167969-2.824219 1.167969zm0 0" fill="#aab2bd"/><path d="m372.015625 48.058594c-206.5625 0-249.953125-20.34375-251.703125-21.207032-1.976562-.984374-2.785156-3.382812-1.808594-5.367187.992188-1.976563 3.390625-2.753906 5.34375-1.816406.703125.328125 45.472656 20.390625 248.167969 20.390625 2.207031 0 4 1.792968 4 4 0 2.207031-1.792969 4-4 4zm0 0" fill="#ed5565"/><path d="m481.503906 68.546875v13.929687l4 4h18.503906v-2.417968c0-1.0625-.425781-2.078125-1.167968-2.832032-.472656-.453124-5.914063-5.65625-21.335938-12.679687zm0 0" fill="#e6e9ed"/><path d="m489.503906 82.476562c0 2.207032-1.792968 4-4 4-2.210937 0-4-1.792968-4-4 0-2.210937 1.789063-4 4-4 2.207032 0 4 1.789063 4 4zm0 0" fill="#e6e9ed"/></svg>