<?xml version="1.0"?>
<svg xmlns="http://www.w3.org/2000/svg" xmlns:xlink="http://www.w3.org/1999/xlink" xmlns:svgjs="http://svgjs.com/svgjs" version="1.1" width="512" height="512" x="0" y="0" viewBox="0 0 479.89999 479" style="enable-background:new 0 0 512 512" xml:space="preserve" class=""><g><path xmlns="http://www.w3.org/2000/svg" d="m194.71875 2.773438c-2.152344-2.136719-5.320312-2.8710942-8.191406-1.90625l-133.304688 44.410156-39.664062-39.664063c-3.140625-3.03125-8.128906-2.988281-11.214844.097657-3.085938 3.085937-3.128906 8.074218-.097656 11.214843l41.152344 41.152344-42.945313 128.800781c-.957031 2.871094-.207031 6.039063 1.9375 8.183594l282.839844 282.878906c3.125 3.121094 8.1875 3.121094 11.3125 0l181.015625-181.015625c3.121094-3.125 3.121094-8.1875 0-11.3125zm96.167969 458.199218-273.6875-273.703125 38.847656-116.558593 30.488281 30.484374c-11.324218 17.132813-7.835937 40.054688 8.070313 53.042969s39.0625 11.820313 53.582031-2.699219c14.519531-14.519531 15.6875-37.675781 2.699219-53.582031s-35.910157-19.394531-53.042969-8.070312l-32-32 121.050781-40.304688 273.695313 273.6875zm-176.640625-332.046875c3.136718 3.03125 8.128906 2.988281 11.214844-.097656 3.085937-3.085937 3.128906-8.074219.097656-11.214844l-15.945313-15.945312c10.535157-5.046875 23.171875-1.761719 29.910157 7.777343 6.742187 9.539063 5.621093 22.546876-2.652344 30.792969-9.496094 9.0625-24.441406 9.0625-33.9375 0-7.226563-7.15625-9.089844-18.117187-4.632813-27.257812zm0 0" fill="#717171" data-original="#000000" style=""/><path xmlns="http://www.w3.org/2000/svg" d="m166.433594 302.582031 22.625-22.625 124.453125 124.449219-22.628907 22.628906zm0 0" fill="#717171" data-original="#000000" style=""/><path xmlns="http://www.w3.org/2000/svg" d="m223.003906 246.011719 22.625-22.625 124.449219 124.453125-22.628906 22.628906zm0 0" fill="#717171" data-original="#000000" style=""/><path xmlns="http://www.w3.org/2000/svg" d="m256.933594 212.074219 22.628906-22.625 124.453125 124.445312-22.625 22.628907zm0 0" fill="#717171" data-original="#000000" style=""/><path xmlns="http://www.w3.org/2000/svg" d="m290.886719 178.132812 11.3125-11.3125 124.449219 124.453126-11.316407 11.316406zm0 0" fill="#717171" data-original="#000000" style=""/><path xmlns="http://www.w3.org/2000/svg" d="m200.367188 268.648438 11.316406-11.316407 124.453125 124.445313-11.3125 11.316406zm0 0" fill="#717171" data-original="#000000" style=""/></g></svg>
