<?xml version="1.0"?>
<svg xmlns="http://www.w3.org/2000/svg" xmlns:xlink="http://www.w3.org/1999/xlink" version="1.1" id="Capa_1" x="0px" y="0px" viewBox="0 0 480 480" style="enable-background:new 0 0 480 480;" xml:space="preserve" width="512px" height="512px"><g><g>
	<g>
		<path d="M456,420H285.416l-9.6-24H456c4.418,0,8-3.582,8-8v-16c-0.032-10.2-6.521-19.261-16.168-22.576    C444.261,240.34,357.057,152.528,248,148.2V132h16c13.255,0,24-10.745,24-24s-10.745-24-24-24h-48c-13.255,0-24,10.745-24,24    s10.745,24,24,24h16v16.2c-109.057,4.328-196.261,92.14-199.832,201.224C22.521,352.739,16.032,361.8,16,372v16    c0,4.418,3.582,8,8,8h180.184l-9.6,24H24c-13.255,0-24,10.745-24,24v16c0,4.418,3.582,8,8,8h464c4.418,0,8-3.582,8-8v-16    C480,430.745,469.255,420,456,420z M216,116c-4.418,0-8-3.582-8-8s3.582-8,8-8h48c4.418,0,8,3.582,8,8s-3.582,8-8,8H216z M240,164    c102.877,0.124,187.422,81.218,191.832,184H48.168C52.578,245.218,137.123,164.124,240,164z M32,380v-8c0-4.418,3.582-8,8-8h400    c4.418,0,8,3.582,8,8v8H32z M268.184,420h-56.368l9.6-24h37.168L268.184,420z M464,452H16v-8c0-4.418,3.582-8,8-8h432    c4.418,0,8,3.582,8,8V452z" data-original="#000000" class="active-path" data-old_color="#000000" fill="#858484"/>
	</g>
</g><g>
	<g>
		<path d="M156.184,201.2c-38.358,20.754-67.64,55.014-82.168,96.136l15.088,5.328c13.214-37.384,39.839-68.531,74.712-87.4    L156.184,201.2z" data-original="#000000" class="active-path" data-old_color="#000000" fill="#858484"/>
	</g>
</g><g>
	<g>
		<path d="M189.688,187.288c-5.675,1.697-11.26,3.678-16.736,5.936l6.096,14.792c4.973-2.051,10.046-3.85,15.2-5.392    L189.688,187.288z" data-original="#000000" class="active-path" data-old_color="#000000" fill="#858484"/>
	</g>
</g><g>
	<g>
		<rect x="232" y="12" width="16" height="48" data-original="#000000" class="active-path" data-old_color="#000000" fill="#858484"/>
	</g>
</g><g>
	<g>
		<rect x="128" y="100" width="48" height="16" data-original="#000000" class="active-path" data-old_color="#000000" fill="#858484"/>
	</g>
</g><g>
	<g>
		<rect x="167.037" y="27.028" transform="matrix(0.7071 -0.7071 0.7071 0.7071 15.1851 138.7155)" width="16" height="48" data-original="#000000" class="active-path" data-old_color="#000000" fill="#858484"/>
	</g>
</g><g>
	<g>
		<rect x="280.966" y="43.01" transform="matrix(0.7071 -0.7071 0.7071 0.7071 53.2529 230.5843)" width="48" height="16" data-original="#000000" class="active-path" data-old_color="#000000" fill="#858484"/>
	</g>
</g><g>
	<g>
		<rect x="304" y="100" width="48" height="16" data-original="#000000" class="active-path" data-old_color="#000000" fill="#858484"/>
	</g>
</g></g> </svg>
