<?xml version="1.0" encoding="UTF-8"?>
<svg width="45px" height="45px" viewBox="0 0 45 45" version="1.1" xmlns="http://www.w3.org/2000/svg" xmlns:xlink="http://www.w3.org/1999/xlink">
    <!-- Generator: Sketch 51.3 (57544) - http://www.bohemiancoding.com/sketch -->
    <title>gen/ic/ic-6</title>
    <desc>Created with Sketch.</desc>
    <defs>
        <polygon id="path-1" points="0.0001 0.0094 29.226 0.0094 29.226 40.9994 0.0001 40.9994"></polygon>
    </defs>
    <g id="gen/ic/ic-6" stroke="none" stroke-width="1" fill="none" fill-rule="evenodd">
        <g id="Group-10" transform="translate(8.000000, 2.000000)">
            <g id="Group-3" transform="translate(0.000000, 0.990500)">
                <mask id="mask-2" fill="white">
                    <use xlink:href="#path-1"></use>
                </mask>
                <g id="Clip-2"></g>
                <path d="M1.4981,12.1444 L3.2441,12.1444 C3.6261,18.0854 8.5781,22.8024 14.6131,22.8024 C20.6491,22.8024 25.6011,18.0854 25.9831,12.1444 L27.7281,12.1444 C27.3441,19.0454 21.6081,24.5424 14.6131,24.5424 C7.6181,24.5424 1.8821,19.0454 1.4981,12.1444 M14.6131,1.4864 C20.0821,1.4864 24.5321,5.9364 24.5321,11.4064 C24.5321,16.8754 20.0821,21.3254 14.6131,21.3254 C9.1441,21.3254 4.6941,16.8754 4.6941,11.4064 C4.6941,5.9364 9.1441,1.4864 14.6131,1.4864 M22.1131,38.9104 C22.1131,39.2484 21.8381,39.5224 21.5011,39.5224 L7.7261,39.5224 C7.3881,39.5224 7.1131,39.2484 7.1131,38.9104 C7.1131,38.5734 7.3881,38.2984 7.7261,38.2984 L21.5011,38.2984 C21.8381,38.2984 22.1131,38.5734 22.1131,38.9104 M29.2271,11.4064 C29.2271,10.9984 28.8951,10.6674 28.4881,10.6674 L25.9831,10.6674 C25.6011,4.7264 20.6491,0.0094 14.6131,0.0094 C8.5781,0.0094 3.6261,4.7264 3.2441,10.6674 L0.7391,10.6674 C0.3311,10.6674 0.0001,10.9984 0.0001,11.4064 C0.0001,19.2164 6.1591,25.6144 13.8741,26.0004 L13.8741,36.8204 L7.7261,36.8204 C6.5741,36.8204 5.6361,37.7584 5.6361,38.9104 C5.6361,40.0624 6.5741,40.9994 7.7261,40.9994 L21.5011,40.9994 C22.6531,40.9994 23.5911,40.0624 23.5911,38.9104 C23.5911,37.7584 22.6531,36.8204 21.5011,36.8204 L15.3521,36.8204 L15.3521,26.0004 C23.0681,25.6144 29.2271,19.2164 29.2271,11.4064" id="Fill-1" fill="#FFFFFF" mask="url(#mask-2)"></path>
            </g>
            <path d="M9.4551,14.1402 C9.6441,14.1402 9.8331,14.0682 9.9771,13.9232 L15.7691,8.1312 C16.0581,7.8432 16.0581,7.3752 15.7691,7.0872 C15.4801,6.7982 15.0131,6.7982 14.7251,7.0872 L8.9331,12.8792 C8.6441,13.1672 8.6441,13.6352 8.9331,13.9232 C9.0771,14.0682 9.2661,14.1402 9.4551,14.1402" id="Fill-4" fill="#FFFFFF"></path>
            <path d="M18.21,9.9093 C18.399,9.9093 18.588,9.8373 18.732,9.6933 L19.704,8.7223 C19.992,8.4333 19.992,7.9663 19.704,7.6773 C19.415,7.3883 18.948,7.3893 18.659,7.6773 L17.688,8.6483 C17.399,8.9363 17.399,9.4043 17.688,9.6933 C17.832,9.8373 18.021,9.9093 18.21,9.9093" id="Fill-6" fill="#FFFFFF"></path>
            <path d="M9.5225,17.858 C9.6675,18.002 9.8555,18.074 10.0445,18.074 C10.2335,18.074 10.4225,18.002 10.5675,17.858 L17.2185,11.207 C17.5065,10.919 17.5065,10.451 17.2185,10.163 C16.9295,9.874 16.4625,9.874 16.1735,10.163 L9.5225,16.814 C9.2345,17.102 9.2345,17.569 9.5225,17.858" id="Fill-8" fill="#FFFFFF"></path>
        </g>
    </g>
</svg>