<?xml version="1.0"?>
<svg xmlns="http://www.w3.org/2000/svg" id="Capa_1" enable-background="new 0 0 510 510" height="512px" viewBox="0 0 510 510" width="512px" class=""><g><path d="m459 47.509h-407.95c-28.149 0-51.05 22.9-51.05 51.05v.003 312.93c0 28.121 22.878 51 51 51h408c28.121 0 51-22.879 51-51 0-9.152 0-307.515 0-312.982 0-28.122-22.879-51.001-51-51.001zm-429 51.05c0-11.606 9.443-21.05 21.05-21.05h407.95c11.579 0 21 9.421 21 21v25.646c-6.409-2.909-13.515-4.543-21-4.543h-407.95c-11.631 0-21.05-9.418-21.05-21.05zm429 333.932h-408c-11.58 0-21-9.421-21-21 0-11.967 0-255.52 0-266.393 6.528 2.957 13.669 4.513 21.05 4.513h407.95c11.579 0 21 9.421 21 21v1.438 62.75h-106.76c-.067 0-.131.009-.197.01-30.92.108-56.043 25.293-56.043 56.238 0 30.894 25.039 56.041 55.888 56.234.118.002.234.018.353.018h106.759v64.192c0 11.579-9.421 21-21 21zm21-115.192h-57.038c8.52-16.071 8.879-35.752.002-52.5h57.036zm-106.757-52.495c14.471 0 26.243 11.772 26.243 26.243s-11.772 26.243-26.243 26.243-26.243-11.772-26.243-26.243 11.772-26.243 26.243-26.243z" data-original="#000000" class="active-path" data-old_color="#000000" fill="#949393"/></g> </svg>
