<svg height="472pt" viewBox="0 -13 472.836 472" width="472pt" xmlns="http://www.w3.org/2000/svg"><path d="m265.917969 293.089844-148.976563 149.046875c-4.628906 4.640625-12.308594 4.640625-16.949218 0-4.722657-4.722657-4.722657-12.320313 0-16.960938l149.046874-148.96875zm0 0" fill="#656d78"/><g fill="#545c66"><path d="m375.261719 36.703125c-3.125-3.117187-3.125-8.183594 0-11.3125 3.128906-3.125 8.183593-3.125 11.3125 0l56.503906 56.503906c3.128906 3.128907 3.128906 8.195313 0 11.320313-3.128906 3.121094-8.183594 3.128906-11.3125 0zm0 0"/><path d="m358.296875 53.679688c-3.121094-3.121094-3.128906-8.191407 0-11.320313 3.125-3.121094 8.183594-3.128906 11.308594 0l56.503906 56.503906c3.121094 3.121094 3.128906 8.191407 0 11.320313-3.125 3.121094-8.183594 3.128906-11.308594 0zm0 0"/><path d="m397.839844 127.160156-56.503906-56.503906c-3.128907-3.128906-3.128907-8.183594 0-11.3125 3.128906-3.128906 8.183593-3.128906 11.3125 0l56.503906 56.503906c3.125 3.128906 3.125 8.191406 0 11.3125-3.128906 3.121094-8.203125 3.121094-11.3125 0zm0 0"/><path d="m380.855469 144.121094-56.496094-56.503906c-3.128906-3.128907-3.128906-8.183594 0-11.3125 3.128906-3.128907 8.191406-3.128907 11.3125 0l56.496094 56.511718c3.128906 3.121094 3.128906 8.183594 0 11.304688-3.128907 3.117187-8.191407 3.117187-11.3125 0zm0 0"/><path d="m307.375 104.59375c-3.121094-3.128906-3.128906-8.1875 0-11.3125 3.128906-3.128906 8.183594-3.128906 11.3125 0l56.503906 56.503906c3.128906 3.117188 3.128906 8.183594 0 11.3125-3.128906 3.125-8.183594 3.125-11.3125 0zm0 0"/><path d="m290.398438 121.558594c-3.121094-3.117188-3.121094-8.183594.007812-11.3125 3.121094-3.125 8.175781-3.125 11.3125 0l56.503906 56.507812c3.128906 3.125 3.128906 8.191406 0 11.316406-3.121094 3.128907-8.175781 3.128907-11.304687-.007812zm0 0"/><path d="m329.941406 195.039062-56.503906-56.503906c-3.132812-3.128906-3.132812-8.183594 0-11.3125 3.128906-3.125 8.183594-3.125 11.3125 0l56.503906 56.503906c3.128906 3.128907 3.128906 8.183594 0 11.3125-3.125 3.128907-8.183594 3.128907-11.3125 0zm0 0"/></g><path d="m18.71875 110.457031c24.800781-24.722656 64.710938-24.96875 89.753906-.722656.246094.320313.496094.5625.734375.800781h.078125l.722656.722656c13.75 14.230469 19.589844 33.199219 17.511719 51.519532-1.441406 13.917968-7.511719 27.519531-18.234375 38.238281-25.046875 24.953125-65.519531 24.953125-90.558594 0-24.96875-25.046875-24.96875-65.519531-.007812-90.558594zm16.960938 73.597657c15.679687 15.601562 40.960937 15.601562 56.632812 0 15.597656-15.597657 15.605469-40.957032.007812-56.558594-15.679687-15.679688-40.96875-15.679688-56.648437-.007813-15.59375 15.609375-15.59375 40.96875.007813 56.566407zm0 0" fill="#656d78"/><path d="m182.800781 93.566406c15.597657-15.679687 15.589844-40.949218 0-56.628906-15.601562-15.601562-40.96875-15.601562-56.554687 0-15.6875 15.679688-15.679688 40.949219 0 56.628906 15.585937 15.609375 40.953125 15.609375 56.554687 0zm16.957031-73.589844c24.960938 25.03125 24.960938 65.503907 0 90.550782-10.71875 10.640625-24.238281 16.808594-38.160156 18.234375-18.328125 2.078125-37.359375-3.753907-51.597656-17.515625l-.722656-.71875v-.078125c-.238282-.242188-.488282-.480469-.8125-.722657-24.234375-25.039062-23.992188-64.964843.734375-89.757812 25.046875-24.953125 65.519531-24.953125 90.558593.007812zm0 0" fill="#656d78"/><path d="m245.351562 246.617188-16.871093 16.949218h-.082031l-100.71875-100.796875h-.167969c2.078125-18.320312-3.769531-37.289062-17.511719-51.523437zm0 0" fill="#ccd1d9"/><path d="m448.710938 76.296875-50.832032-50.832031 17.03125-17.039063 50.832032 50.832031.007812.085938c9.449219 9.441406 9.449219 24.550781-.007812 33.914062l5.585937-5.738281-179.503906 179.65625-16.945313-16.960937 32.449219-32.367188v-.160156l-45.210937-45.199219c-9.359376-9.359375-9.359376-24.558593.089843-33.921875l62.078125 62.167969 11.304688-11.300781 50.960937-50.960938 16.945313-16.960937 16.957031-16.960938 16.960937-16.957031zm0 0" fill="#656d78"/><path d="m249.039062 284.136719-20.558593-20.5625 16.871093-16.949219-135.351562-135.378906c14.238281 13.769531 33.269531 19.59375 51.597656 17.515625l-.007812.167969 121.289062 121.269531 16.945313 16.960937 123.527343 123.519532.390626.398437c12.496093 12.480469 15.199218 28.882813 10.96875 44.882813-16 4.230468-32.398438 1.511718-44.878907-10.960938l-.320312-.398438-123.59375-123.503906-16.878907-16.882812zm0 0" fill="#e6e9ed"/><path d="m268.304688 277.304688c-4.417969 0-8.042969-3.578126-8.035157-8-.007812-4.433594 3.539063-8 7.953125-8.007813l.082032.007813c4.421874 0 8 3.574218 8 8 .007812 4.421874-3.578126 8-8 8zm0 0" fill="#ccd1d9"/><path d="m454.367188 70.640625c-3.113282 3.113281-8.199219 3.113281-11.3125 0l-50.839844-50.847656c-3.113282-3.113281-3.113282-8.199219 0-11.3125l5.726562-5.726563c3.113282-3.113281 8.203125-3.113281 11.3125 0l50.839844 50.847656c3.113281 3.109376 3.113281 8.199219 0 11.308594zm0 0" fill="#656d78"/></svg>