<?xml version="1.0"?>
<svg xmlns="http://www.w3.org/2000/svg" xmlns:xlink="http://www.w3.org/1999/xlink" xmlns:svgjs="http://svgjs.com/svgjs" version="1.1" width="512" height="512" x="0" y="0" viewBox="0 0 64 64" style="enable-background:new 0 0 512 512" xml:space="preserve" class=""><g><g xmlns="http://www.w3.org/2000/svg" id="Home_delivery" data-name="Home delivery"><path d="M60.517,25.875A1,1,0,0,0,62,25V19a1,1,0,0,0-.517-.875L50,11.791V3a1,1,0,0,0-1-1H44a1,1,0,0,0-1,1V7.93l-10.525-5.8a1,1,0,0,0-.967,0l-28.991,16A1,1,0,0,0,2,19v6a1,1,0,0,0,1.483.875L8,23.383V54H3a1,1,0,0,0,0,2H16v3a3,3,0,0,0,3,3H45a3,3,0,0,0,3-3V56H61a1,1,0,0,0,0-2H56V23.384ZM45,4h3v6.688L45,9.033ZM4,19.59,31.992,4.142,60,19.59v3.717L32.475,8.125a1,1,0,0,0-.967,0L4,23.306ZM46,59a1,1,0,0,1-1,1H19a1,1,0,0,1-1-1V33a1,1,0,0,1,1-1h8V43a1,1,0,0,0,1.444.9l3.59-1.778,3.515,1.775A1,1,0,0,0,37,43V32h8a1,1,0,0,1,1,1ZM29,32h6v9.375l-2.511-1.268a.994.994,0,0,0-.894,0L29,41.389ZM54,54H48V33a3,3,0,0,0-3-3H19a3,3,0,0,0-3,3V54H10V22.279L31.992,10.142,54,22.281Z" fill="#717171" data-original="#000000" style="" class=""/><path d="M27,20a5,5,0,1,0,5-5A5.006,5.006,0,0,0,27,20Zm5-3a3,3,0,1,1-3,3A3,3,0,0,1,32,17Z" fill="#717171" data-original="#000000" style="" class=""/></g></g></svg>
