<?xml version="1.0" encoding="UTF-8"?>
<svg width="24px" height="24px" viewBox="0 0 24 24" version="1.1" xmlns="http://www.w3.org/2000/svg" xmlns:xlink="http://www.w3.org/1999/xlink">
    <!-- Generator: Sketch 51.3 (57544) - http://www.bohemiancoding.com/sketch -->
    <title>Tab bar/ic/directorio</title>
    <desc>Created with Sketch.</desc>
    <defs>
        <path d="M20.5,23 C21.3278576,23 22,22.3278576 22,21.5 L22,2.5 C22,1.67214237 21.3278576,1 20.5,1 L3.5,1 C3.22414237,1 3,1.22414237 3,1.5 L3,22.5 C3,22.7758576 3.22414237,23 3.5,23 L20.5,23 Z M20.5,24 L3.5,24 C2.67185763,24 2,23.3281424 2,22.5 L2,1.5 C2,0.671857625 2.67185763,0 3.5,0 L20.5,0 C21.8801424,0 23,1.11985763 23,2.5 L23,21.5 C23,22.8801424 21.8801424,24 20.5,24 Z M6,0.5 L7,0.5 L7,23.5 L6,23.5 L6,0.5 Z M0.5,5 C0.223857625,5 0,4.77614237 0,4.5 C0,4.22385763 0.223857625,4 0.5,4 L4.5,4 C4.77614237,4 5,4.22385763 5,4.5 C5,4.77614237 4.77614237,5 4.5,5 L0.5,5 Z M0.5,10 C0.223857625,10 0,9.77614237 0,9.5 C0,9.22385763 0.223857625,9 0.5,9 L4.5,9 C4.77614237,9 5,9.22385763 5,9.5 C5,9.77614237 4.77614237,10 4.5,10 L0.5,10 Z M0.5,15 C0.223857625,15 0,14.7761424 0,14.5 C0,14.2238576 0.223857625,14 0.5,14 L4.5,14 C4.77614237,14 5,14.2238576 5,14.5 C5,14.7761424 4.77614237,15 4.5,15 L0.5,15 Z M0.5,20 C0.223857625,20 0,19.7761424 0,19.5 C0,19.2238576 0.223857625,19 0.5,19 L4.5,19 C4.77614237,19 5,19.2238576 5,19.5 C5,19.7761424 4.77614237,20 4.5,20 L0.5,20 Z" id="path-1"></path>
    </defs>
    <g id="Tab-bar/ic/directorio" stroke="none" stroke-width="1" fill="none" fill-rule="evenodd">
        <g id="--↳-🎨Color">
            <mask id="mask-2" fill="white">
                <use xlink:href="#path-1"></use>
            </mask>
            <use id="Combined-Shape" fill="#163567" fill-rule="nonzero" xlink:href="#path-1"></use>
            <g id="bg/fill/gris" mask="url(#mask-2)" fill="#9B9B9B">
                <rect id="Rectangle" x="0" y="0" width="24" height="24"></rect>
            </g>
        </g>
    </g>
</svg>