<?xml version="1.0" encoding="UTF-8"?>
<svg width="24px" height="24px" viewBox="0 0 24 24" version="1.1" xmlns="http://www.w3.org/2000/svg" xmlns:xlink="http://www.w3.org/1999/xlink">
    <!-- Generator: Sketch 51.3 (57544) - http://www.bohemiancoding.com/sketch -->
    <title>Tab bar/ic/Mi mesa-activo</title>
    <desc>Created with Sketch.</desc>
    <defs>
        <path d="M14,2.64165991 C18.9683517,3.55572444 22.7679222,7.81343899 22.9897549,13 L23.5,13 C23.7761424,13 24,13.2238576 24,13.5 L24,15.5 C24,15.7761424 23.7761424,16 23.5,16 L0.5,16 C0.223857625,16 0,15.7761424 0,15.5 L0,13.5 C0,13.2238576 0.223857625,13 0.5,13 L1.01104722,13 C1.24106928,7.80549637 5.0375259,3.55488888 10,2.64168832 L10,1.9998 C10,0.893657625 10.8938576,-0.0002 12,-0.0002 C13.1061424,-0.0002 14,0.893657625 14,1.9998 L14,2.64165991 Z M13,2.50491196 L13,1.9998 C13,1.44594237 12.5538576,0.9998 12,0.9998 C11.4461424,0.9998 11,1.44594237 11,1.9998 L11,2.50491538 C11.3293581,2.47518588 11.6629061,2.46 12,2.46 C12.3370939,2.46 12.6706419,2.47518588 13,2.50491196 Z M13.4838713,3.56954479 C13.4460487,3.56834619 13.409286,3.56294696 13.3740344,3.55379824 C12.9248523,3.49195075 12.4661534,3.46 12,3.46 C11.5338807,3.46 11.0752148,3.49194607 10.6260642,3.55377265 C10.5907423,3.56294733 10.5539028,3.56835738 10.5159994,3.56954887 C5.85081582,4.26480261 2.23770847,8.18795908 2.01126936,12.9999946 L21.987856,13 C21.7531533,8.17971761 18.1432185,4.264011 13.4838713,3.56954479 Z M1,15 L23,15 L23,14 L1,14 L1,15 Z" id="path-1"></path>
    </defs>
    <g id="Tab-bar/ic/Mi-mesa-activo" stroke="none" stroke-width="1" fill="none" fill-rule="evenodd">
        <g id="bg/fill/Amarillo" transform="translate(0.000000, 4.000000)">
            <mask id="mask-2" fill="white">
                <use xlink:href="#path-1"></use>
            </mask>
            <use id="Mask" fill="#F5A623" fill-rule="nonzero" xlink:href="#path-1"></use>
            <g mask="url(#mask-2)" fill="#F5A623" id="Rectangle">
                <g transform="translate(0.000000, -4.000000)">
                    <rect x="0" y="0" width="24" height="24"></rect>
                </g>
            </g>
        </g>
    </g>
</svg>