<?xml version="1.0"?>
<svg xmlns="http://www.w3.org/2000/svg" xmlns:xlink="http://www.w3.org/1999/xlink" version="1.1" id="Capa_1" x="0px" y="0px" viewBox="0 0 60 60" style="enable-background:new 0 0 60 60;" xml:space="preserve" width="512px" height="512px" class=""><g><g>
	<path d="M60,4.293c0-2.206-1.794-4-4-4H4c-2.206,0-4,1.794-4,4c0,1.859,1.28,3.411,3,3.858v3.142c0-0.553,0.448-1,1-1h2   c0.552,0,1,0.447,1,1s-0.448,1-1,1H4c-0.552,0-1-0.447-1-1v45.414l3-3l6,6l6-6l6,6l6-6l6,6l6-6l6,6l6-6l3,3V11.293   c0,0.553-0.448,1-1,1h-2c-0.552,0-1-0.447-1-1s0.448-1,1-1h2c0.552,0,1,0.447,1,1V8.151C58.72,7.704,60,6.152,60,4.293z M31,33.293   c0.552,0,1,0.447,1,1s-0.448,1-1,1h-2c-0.552,0-1-0.447-1-1s0.448-1,1-1H31z M29,27.293c0-0.271,0.11-0.521,0.29-0.71   c0.38-0.37,1.05-0.37,1.42,0c0.18,0.189,0.29,0.439,0.29,0.71c0,0.27-0.11,0.52-0.29,0.71c-0.19,0.18-0.45,0.29-0.71,0.29   c-0.26,0-0.52-0.11-0.71-0.29C29.11,27.813,29,27.563,29,27.293z M29,21.293c-0.552,0-1-0.447-1-1s0.448-1,1-1h15   c0.552,0,1,0.447,1,1s-0.448,1-1,1H29z M30.846,11.293c0-0.553,0.448-1,1-1h3.692c0.552,0,1,0.447,1,1s-0.448,1-1,1h-3.692   C31.294,12.293,30.846,11.846,30.846,11.293z M38.231,11.293c0-0.553,0.448-1,1-1h3.692c0.552,0,1,0.447,1,1s-0.448,1-1,1h-3.692   C38.679,12.293,38.231,11.846,38.231,11.293z M8.692,11.293c0-0.553,0.448-1,1-1h3.692c0.552,0,1,0.447,1,1s-0.448,1-1,1H9.692   C9.14,12.293,8.692,11.846,8.692,11.293z M20,27.293c-0.552,0-1-0.447-1-1c0-1.302-0.839-2.402-2-2.816v5.438l2.229,1.734   c0.777,0.604,1.281,1.511,1.383,2.488c0.1,0.957-0.182,1.882-0.793,2.605c-0.734,0.867-1.728,1.446-2.819,1.668v0.882   c0,0.553-0.448,1-1,1s-1-0.447-1-1v-0.878c-2.279-0.465-4-2.484-4-4.899c0-0.553,0.448-1,1-1s1,0.447,1,1   c0,1.302,0.839,2.402,2,2.816v-5.438l-2.229-1.734c-0.777-0.604-1.282-1.513-1.383-2.491c-0.1-0.956,0.183-1.881,0.794-2.603   c0.733-0.867,1.728-1.446,2.818-1.668v-1.104c0-0.553,0.448-1,1-1s1,0.447,1,1v1.101c2.279,0.465,4,2.484,4,4.899   C21,26.846,20.552,27.293,20,27.293z M20.77,12.293h-3.692c-0.552,0-1-0.447-1-1s0.448-1,1-1h3.692c0.552,0,1,0.447,1,1   S21.322,12.293,20.77,12.293z M23.461,11.293c0-0.553,0.448-1,1-1h3.692c0.552,0,1,0.447,1,1s-0.448,1-1,1h-3.692   C23.909,12.293,23.461,11.846,23.461,11.293z M44,42.293H29c-0.552,0-1-0.447-1-1s0.448-1,1-1h15c0.552,0,1,0.447,1,1   S44.552,42.293,44,42.293z M34,34.293c0-0.26,0.11-0.521,0.29-0.71c0.38-0.37,1.05-0.37,1.42,0c0.18,0.18,0.29,0.439,0.29,0.71   c0,0.27-0.11,0.52-0.29,0.71c-0.19,0.18-0.45,0.29-0.71,0.29c-0.26,0-0.52-0.11-0.71-0.29C34.11,34.813,34,34.553,34,34.293z    M49.71,42.003c-0.19,0.18-0.45,0.29-0.71,0.29c-0.26,0-0.52-0.11-0.71-0.29c-0.18-0.19-0.29-0.45-0.29-0.71   c0-0.271,0.11-0.521,0.29-0.71c0.38-0.37,1.04-0.37,1.42,0c0.18,0.189,0.29,0.439,0.29,0.71C50,41.553,49.89,41.813,49.71,42.003z    M49,35.293H39c-0.552,0-1-0.447-1-1s0.448-1,1-1h10c0.552,0,1,0.447,1,1S49.552,35.293,49,35.293z M49,28.293H34   c-0.552,0-1-0.447-1-1s0.448-1,1-1h15c0.552,0,1,0.447,1,1S49.552,28.293,49,28.293z M49.71,21.003c-0.19,0.18-0.44,0.29-0.71,0.29   c-0.26,0-0.52-0.11-0.71-0.29c-0.18-0.19-0.29-0.45-0.29-0.71c0-0.271,0.11-0.521,0.29-0.71c0.37-0.37,1.05-0.37,1.42,0   c0.18,0.189,0.29,0.45,0.29,0.71S49.89,20.813,49.71,21.003z M50.308,12.293h-3.692c-0.552,0-1-0.447-1-1s0.448-1,1-1h3.692   c0.552,0,1,0.447,1,1S50.86,12.293,50.308,12.293z M57,6.024V3.293H3v2.731C2.403,5.679,2,5.032,2,4.293c0-1.103,0.897-2,2-2h52   c1.103,0,2,0.897,2,2C58,5.032,57.597,5.679,57,6.024z" data-original="#000000" class="active-path" data-old_color="#0266e7" fill="#0266e7"/>
	<path d="M13.377,25.461c0.046,0.439,0.272,0.848,0.622,1.12L15,27.36v-3.877c-0.494,0.176-0.944,0.464-1.292,0.875   C13.452,24.66,13.334,25.052,13.377,25.461z" data-original="#000000" class="active-path" data-old_color="#0266e7" fill="#0266e7"/>
	<path d="M17,35.326c0.494-0.176,0.944-0.464,1.292-0.875c0.256-0.303,0.374-0.695,0.331-1.105   c-0.046-0.438-0.272-0.847-0.622-1.118L17,31.449V35.326z" data-original="#000000" class="active-path" data-old_color="#0266e7" fill="#0266e7"/>
</g></g> </svg>
