<?xml version="1.0"?>
<svg xmlns="http://www.w3.org/2000/svg" height="512px" viewBox="0 0 512 512.00101" width="512px" class=""><g><path d="m491.730469 292.621094v-184.820313c0-4.199219-3.402344-7.605469-7.601563-7.605469-4.203125 0-7.605468 3.40625-7.605468 7.605469v175.339844c-5.230469-2.222656-10.847657-3.703125-16.722657-4.300781v-134.898438c0-30.222656-22.234375-55.34375-51.199219-59.882812-3.398437-27.738282-27.082031-49.292969-55.722656-49.292969h-193.761718c-28.640626 0-52.324219 21.554687-55.726563 49.292969-28.964844 4.539062-51.195313 29.660156-51.195313 59.882812v134.898438c-5.878906.597656-11.5 2.078125-16.730468 4.300781v-250.808594c0-9.441406 7.679687-17.125 17.125-17.125h406.8125c9.441406 0 17.121094 7.683594 17.121094 17.125v45.050781c0 4.199219 3.40625 7.605469 7.605468 7.605469 4.199219 0 7.605469-3.40625 7.605469-7.605469v-45.050781c-.003906-17.828125-14.507813-32.332031-32.332031-32.332031h-406.8125c-17.828125 0-32.332032 14.503906-32.332032 32.332031v260.292969c-12.390624 10.667969-20.257812 26.445312-20.257812 44.039062v102.957032c0 4.199218 3.402344 7.601562 7.605469 7.601562h10.933593v39.925782c0 13.703124 11.148438 24.851562 24.855469 24.851562h66.574219c13.703125 0 24.855469-11.148438 24.855469-24.851562v-39.925782h22.667969c.859374 16.296875 14.386718 29.289063 30.890624 29.289063h135.230469c16.503907 0 30.03125-12.992188 30.886719-29.289063h22.671875v39.925782c0 13.703124 11.148437 24.851562 24.851563 24.851562h66.578124c13.703126 0 24.851563-11.148438 24.851563-24.851562v-39.925782h10.9375c4.199219 0 7.605469-3.402344 7.605469-7.601562v-102.957032c-.003906-17.59375-7.871094-33.375-20.265625-44.042968zm-46.128907 139.390625h-379.210937c-11.589844 0-21.019531-9.429688-21.019531-21.019531 0-11.589844 9.429687-21.019532 21.019531-21.019532h379.210937c11.589844 0 21.019532 9.429688 21.019532 21.019532 0 11.589843-9.429688 21.019531-21.019532 21.019531zm-352.664062-182.25h11.789062c4.199219 0 7.601563-3.40625 7.601563-7.605469s-3.402344-7.605469-7.601563-7.605469h-6.910156v-90.609375c0-8.269531 6.726563-14.996094 14.996094-14.996094h286.367188c8.269531 0 14.996093 6.726563 14.996093 14.996094v90.609375h-279.03125c-4.199219 0-7.605469 3.40625-7.605469 7.605469s3.40625 7.605469 7.605469 7.605469h284.535157c13.738281 0 24.910156 11.171875 24.910156 24.910156v100.09375h-376.5625v-100.09375c0-13.738281 11.175781-24.910156 24.910156-24.910156zm66.179688-199.785157h193.761718c19.980469 0 36.667969 14.386719 40.242188 33.34375h-274.25c3.578125-18.957031 20.261718-33.34375 40.246094-33.34375zm-46.304688 48.554688h286.367188c25.039062 0 45.410156 20.367188 45.410156 45.410156v99.316406c-4.414063-3.507812-9.574219-6.109374-15.207032-7.511718v-91.808594c0-16.652344-13.546874-30.199219-30.203124-30.199219h-286.367188c-16.65625 0-30.203125 13.546875-30.203125 30.199219v91.96875c-5.652344 1.507812-10.824219 4.21875-15.207031 7.847656v-99.816406c0-25.039062 20.371094-45.40625 45.410156-45.40625zm-97.605469 238.132812c0-21.652343 16.117188-39.609374 36.984375-42.507812v83.507812c-12.9375 5.535157-22.027344 18.390626-22.027344 33.328126 0 7.832031 2.507813 15.085937 6.746094 21.019531l-21.703125.003906zm104.40625 150.484376c0 5.316406-4.328125 9.644531-9.644531 9.644531h-66.578125c-5.316406 0-9.644531-4.328125-9.644531-9.644531v-39.925782h85.867187zm203.996094-25.84375h-135.226563c-8.117187 0-14.816406-6.183594-15.640624-14.082032h166.507812c-.824219 7.898438-7.523438 14.082032-15.640625 14.082032zm154.636719 25.84375c0 5.316406-4.328125 9.644531-9.648438 9.644531h-66.574218c-5.316407 0-9.644532-4.328125-9.644532-9.644531v-39.925782h85.863282v39.925782zm18.539062-55.132813-21.707031-.003906c4.242187-5.929688 6.75-13.183594 6.75-21.019531 0-14.9375-9.089844-27.792969-22.027344-33.324219v-83.511719c20.867188 2.898438 36.984375 20.855469 36.984375 42.507812zm0 0" data-original="#000000" class="active-path" data-old_color="#DFDFE4" fill="#FDFDFD"/><path d="m108.714844 364.097656c14.394531 0 26.105468-11.710937 26.105468-26.105468v-44.253907c0-14.394531-11.710937-26.105469-26.105468-26.105469-14.394532 0-26.105469 11.710938-26.105469 26.105469v44.253907c0 14.394531 11.710937 26.105468 26.105469 26.105468zm-10.898438-70.359375c0-6.007812 4.890625-10.898437 10.898438-10.898437 6.011718 0 10.898437 4.890625 10.898437 10.898437v44.253907c0 6.007812-4.886719 10.894531-10.898437 10.894531-6.007813 0-10.898438-4.886719-10.898438-10.894531zm0 0" data-original="#000000" class="active-path" data-old_color="#DFDFE4" fill="#FDFDFD"/><path d="m403.277344 364.097656c14.394531 0 26.105468-11.710937 26.105468-26.105468v-44.253907c0-14.394531-11.710937-26.105469-26.105468-26.105469-14.394532 0-26.105469 11.710938-26.105469 26.105469v44.253907c0 14.394531 11.710937 26.105468 26.105469 26.105468zm-10.898438-70.359375c0-6.007812 4.890625-10.898437 10.898438-10.898437 6.007812 0 10.898437 4.890625 10.898437 10.898437v44.253907c0 6.007812-4.890625 10.894531-10.898437 10.894531-6.007813 0-10.898438-4.886719-10.898438-10.894531zm0 0" data-original="#000000" class="active-path" data-old_color="#DFDFE4" fill="#FDFDFD"/><path d="m320.40625 353.957031c4.199219 0 7.605469-3.40625 7.605469-7.605469v-46.574218c0-4.199219-3.40625-7.601563-7.605469-7.601563s-7.605469 3.402344-7.605469 7.601563v46.574218c0 4.199219 3.40625 7.605469 7.605469 7.605469zm0 0" data-original="#000000" class="active-path" data-old_color="#DFDFE4" fill="#FDFDFD"/><path d="m288.203125 353.957031c4.199219 0 7.601563-3.40625 7.601563-7.605469v-46.574218c0-4.199219-3.402344-7.601563-7.601563-7.601563-4.203125 0-7.605469 3.402344-7.605469 7.601563v46.574218c0 4.199219 3.402344 7.605469 7.605469 7.605469zm0 0" data-original="#000000" class="active-path" data-old_color="#DFDFE4" fill="#FDFDFD"/><path d="m255.996094 353.957031c4.199218 0 7.605468-3.40625 7.605468-7.605469v-46.574218c0-4.199219-3.40625-7.601563-7.605468-7.601563-4.199219 0-7.605469 3.402344-7.605469 7.601563v46.574218c0 4.199219 3.40625 7.605469 7.605469 7.605469zm0 0" data-original="#000000" class="active-path" data-old_color="#DFDFE4" fill="#FDFDFD"/><path d="m223.792969 353.957031c4.199219 0 7.601562-3.40625 7.601562-7.605469v-46.574218c0-4.199219-3.402343-7.601563-7.601562-7.601563-4.203125 0-7.605469 3.402344-7.605469 7.601563v46.574218c0 4.199219 3.402344 7.605469 7.605469 7.605469zm0 0" data-original="#000000" class="active-path" data-old_color="#DFDFE4" fill="#FDFDFD"/><path d="m191.585938 353.957031c4.199218 0 7.605468-3.40625 7.605468-7.605469v-46.574218c0-4.199219-3.40625-7.601563-7.605468-7.601563-4.199219 0-7.601563 3.402344-7.601563 7.601563v46.574218c0 4.199219 3.402344 7.605469 7.601563 7.605469zm0 0" data-original="#000000" class="active-path" data-old_color="#DFDFE4" fill="#FDFDFD"/></g> </svg>
