<?xml version="1.0" encoding="utf-8"?>
<!-- Generator: Adobe Illustrator 23.1.0, SVG Export Plug-In . SVG Version: 6.00 Build 0)  -->
<svg version="1.1" id="Capa_1" xmlns="http://www.w3.org/2000/svg" xmlns:xlink="http://www.w3.org/1999/xlink" x="0px" y="0px"
	 viewBox="0 0 800 800" style="enable-background:new 0 0 800 800;" xml:space="preserve">
<style type="text/css">
	.st0{fill:#606060;}
	.st1{fill:url(#SVGID_1_);}
	.st2{fill:url(#SVGID_2_);}
	.st3{fill:url(#SVGID_3_);}
	.st4{fill:url(#SVGID_4_);}
	.st5{fill:url(#SVGID_5_);}
	.st6{fill:url(#SVGID_6_);}
	.st7{fill:#FFFFFF;}
	.st8{fill:url(#SVGID_7_);}
	.st9{fill:url(#SVGID_8_);}
	.st10{fill:url(#SVGID_9_);}
	.st11{fill:url(#SVGID_10_);}
	.st12{fill:url(#SVGID_11_);}
	.st13{fill:url(#SVGID_12_);}
	.st14{fill:url(#SVGID_13_);}
	.st15{fill:url(#SVGID_14_);}
	.st16{fill:url(#SVGID_15_);}
	.st17{fill:url(#SVGID_16_);}
	.st18{fill:url(#SVGID_17_);}
	.st19{fill:url(#SVGID_18_);}
	.st20{fill:url(#SVGID_19_);}
	.st21{fill:url(#SVGID_20_);}
	.st22{fill:url(#SVGID_21_);}
	.st23{fill:url(#SVGID_22_);}
	.st24{fill:url(#SVGID_23_);}
	.st25{fill:url(#SVGID_24_);}
	.st26{fill:url(#SVGID_25_);}
	.st27{fill:url(#SVGID_26_);}
	.st28{fill:url(#SVGID_27_);}
	.st29{fill:url(#SVGID_28_);}
	.st30{fill:url(#SVGID_29_);}
	.st31{fill:url(#SVGID_30_);}
	.st32{fill:url(#SVGID_31_);}
	.st33{fill:url(#SVGID_32_);}
	.st34{fill:url(#SVGID_33_);}
	.st35{fill:url(#SVGID_34_);}
	.st36{fill:url(#SVGID_35_);}
	.st37{fill:url(#SVGID_36_);}
	.st38{fill:url(#SVGID_37_);}
	.st39{fill:url(#SVGID_38_);}
	.st40{fill:url(#SVGID_39_);}
	.st41{fill:url(#SVGID_40_);}
	.st42{fill:url(#SVGID_41_);}
	.st43{fill:url(#SVGID_42_);}
</style>
<linearGradient id="SVGID_1_" gradientUnits="userSpaceOnUse" x1="397.1695" y1="725.8364" x2="397.1695" y2="95">
	<stop  offset="0" style="stop-color:#349FBA"/>
	<stop  offset="1" style="stop-color:#8C0E8C"/>
</linearGradient>
<path class="st1" d="M712,438.75c-3.88,13.68-8.96,26.75-17.9,38.1c-35.38,44.91-101.85,47.32-140.36,5.01
	c-1.24-1.36-2.45-2.74-4.36-4.88c-1.35,2.33-2.55,4.29-3.64,6.3c-40.79,75.14-81.57,150.29-122.37,225.42
	c-7.67,14.12-20.11,19.97-33.55,15.85c-8.41-2.58-13.63-8.55-17.7-16.06c-36.22-66.89-72.54-133.73-108.83-200.58
	c-16.63-30.63-33.12-61.34-49.97-91.86c-11.38-20.61-20.08-42.18-24.63-65.3c-0.69-3.53-2.02-4.71-5.49-4.93
	c-21.09-1.37-42.18-2.89-63.26-4.49c-4.89-0.37-9.91-0.67-14.58-2.01c-14.44-4.15-23.82-17.8-22.96-32.62
	c0.85-14.72,11.76-27.75,26.74-29.48c20.16-2.32,40.49-3.25,60.74-4.8c5.52-0.42,12.5,0.92,16.12-1.95
	c3.45-2.73,3.56-9.85,4.85-15.12c20.07-81.6,92.1-146.38,175.78-158.05c5.05-0.7,10.09-1.54,15.13-2.32c10.68,0,21.36,0,32.04,0
	c1.58,0.35,3.15,0.87,4.75,1.02c44.87,4.25,84.23,21.4,118.47,50.55c1.67,1.42,3.35,2.83,5.21,4.4c1.62-2.38,2.82-4.27,4.15-6.07
	c22.28-30.23,52.23-44.15,89.33-38.39c36.52,5.67,60.87,27.45,73.16,62.43c1.14,3.25,2.1,6.57,3.14,9.85c0,12.32,0,24.64,0,36.96
	c-0.71,1.85-1.54,3.67-2.11,5.56c-10.08,32.92-31.47,54.72-64.73,63.69c-10.83,2.92-22.46,2.85-34.12,4.2c0,12.54,0,26.13,0,39.89
	c3.35,0,6.38,0.03,9.41,0c39.16-0.42,73.79,23.44,87.22,60.14c1.52,4.16,2.89,8.37,4.33,12.56C712,414.1,712,426.42,712,438.75z
	 M209.08,347.7c0.38,2.18,0.41,3.83,0.96,5.28c6.08,16.04,10.6,32.94,18.65,47.94C281.98,500.28,336,599.24,389.96,698.23
	c1.54,2.82,5.09,6.24,7.75,6.28c2.64,0.04,6.33-3.3,7.86-6.09c43.21-79.17,86.18-158.47,129.33-237.68
	c1.88-3.45,1.79-6.18,0.71-9.76c-2-6.63-3.13-13.53-4.89-20.24c-0.52-1.96-1.51-4.42-3.07-5.38c-6.4-3.95-13.1-7.41-19.74-11.07
	c-1.65,1.56-2.99,2.81-4.31,4.08c-48.74,47.07-122.72,56.52-181.52,22.88c-34.05-19.48-56.86-48.3-69.45-85.37
	c-0.69-2.03-2.41-5.11-3.89-5.26C235.72,349.34,222.66,348.62,209.08,347.7z M509.12,202.33c1.79-0.97,4.54-2.78,7.53-4.01
	c9.49-3.91,15.65-9.58,15.96-21.06c0.13-4.83-0.22-7.82-3.76-11.01c-42.61-38.36-92.67-54.97-149.52-50
	c-80.15,7-148.81,66.05-168.68,144.04c-0.73,2.87-1.12,5.83-1.77,9.32c12.04-0.79,23.24-1.84,34.47-2.13
	c5.79-0.15,8.34-2.17,10.23-7.84c30.72-91.74,138.04-131.77,221.19-82.34C486.64,184.36,497.24,193.59,509.12,202.33z
	 M272.69,265.14c20.87-1.43,40.31-2.59,59.71-4.13c22.41-1.78,44.89-2.27,66.7-9.52c24.22-8.05,49.61-12.73,71.3-27.41
	c5.85-3.96,12.29-7.06,19.2-10.97c-36.61-32.24-77.85-44.17-124.42-32.49C320.05,191.94,289.94,220.93,272.69,265.14z
	 M489.56,404.13c-23.82-13.15-45.67-27.26-71.73-32.9c-21.36-4.62-41.78-13.05-64.15-13.61c-20.29-0.51-40.55-2.59-60.82-3.97
	c-6.38-0.44-12.76-0.87-20.22-1.37c18.57,46.51,50.61,75.88,98.5,85.78C415.71,447.27,454.96,435,489.56,404.13z M418.28,349.39
	c0.43,0.74,0.55,1.28,0.82,1.37c1.94,0.64,3.9,1.27,5.89,1.74c19.09,4.49,36.81,12.06,53.74,22.07
	c21.52,12.73,43.55,24.62,65.59,36.46c4.87,2.61,6.79,5.49,6.35,10.91c-0.31,3.81,0.42,7.77,1.08,11.59
	c6.67,38.82,44.37,64.25,84.25,56.89c37.54-6.93,63.23-45.21,55.63-82.91c-5.96-29.57-27.33-50.99-56.82-56.95
	c-27.81-5.62-56.47,6.76-72.97,31.51c-1.77,2.65-3.58,5.27-5.44,8.01c-35.37-19.56-70.09-38.77-104.91-58.03
	C442.75,343.19,431.9,348.93,418.28,349.39z M556.45,227.21c3.25,4.73,5.86,8.9,8.84,12.79c21.97,28.77,62.68,36.4,93.29,17.57
	c31.25-19.23,43.1-58.68,27.47-91.45c-14.17-29.71-46.81-45.74-79.4-38.99c-31.88,6.6-55.57,35.26-55.95,68.29
	c-0.06,5.42-1.6,8.35-6.43,10.88c-15.43,8.09-30.54,16.78-45.82,25.16c-25.28,13.86-49.62,29.83-78.78,34.96
	c-0.26,0.05-0.45,0.48-1.17,1.3c13.72,0.97,24.71,6.58,32.99,17.56C486.55,265.89,521.3,246.66,556.45,227.21z M550.17,253.97
	c-2.97,1.66-5.58,3.11-8.27,4.61c5.52,16.62,9.4,33.12,8.34,49.97c-1.06,16.82-4.11,33.51-6.43,51.29c1.02,0.55,3.65,1.95,6.42,3.44
	c10.19-12.11,22.1-21.19,36.33-27.27c1.55-0.66,3.06-3.45,3.09-5.28c0.27-14.92,0.26-29.84,0.11-44.76
	c-0.02-1.5-1.23-3.83-2.48-4.35C572.63,275.5,560.4,266.14,550.17,253.97z M523.38,348.54c9.38-23.07,8.12-63.68-0.45-79.51
	c-20.57,11.39-41.16,22.76-61.71,34.21c-2.84,1.58-3.76,7.89-1.45,9.9c1.52,1.32,3.47,2.14,5.26,3.13
	C484.34,326.95,503.65,337.62,523.38,348.54z M112.12,296.91c-0.03,0.51-0.06,1.02-0.1,1.54c1.82,0,3.63,0,5.45,0
	c85.16,0,170.32,0,255.47,0c1.23,0,2.52,0.21,3.68-0.09c1.02-0.27,2.44-0.93,2.72-1.75c3.12-9.26,8.89-16.59,16.95-22.38
	c-47.33,8.72-94.82,8.61-141.91,12.6C207.01,290.84,159.54,293.6,112.12,296.91z M394.09,342.8c-3.8-5.23-9.28-11.17-12.75-18.12
	c-2.37-4.75-4.77-5.85-9.57-5.85c-84.34,0.13-168.69,0.09-253.03,0.09c-2.11,0-4.22,0-6.33,0c9.11,2.07,18.26,2.75,27.4,3.4
	c48.7,3.5,97.43,6.61,146.09,10.6C322.58,335.95,359.6,335.72,394.09,342.8z M438.46,308.68c0.01-11.26-9.01-20.27-20.29-20.28
	c-11.26-0.01-20.35,9.04-20.36,20.25c-0.01,11.11,9.22,20.37,20.33,20.39C429.25,329.05,438.45,319.84,438.46,308.68z"/>
<linearGradient id="SVGID_2_" gradientUnits="userSpaceOnUse" x1="357.1036" y1="521.9791" x2="357.1036" y2="502.1404">
	<stop  offset="0" style="stop-color:#349FBA"/>
	<stop  offset="1" style="stop-color:#8C0E8C"/>
</linearGradient>
<path class="st2" d="M347.54,502.14c6.49,0,12.55,0,19.13,0c0,6.59,0,12.99,0,19.84c-6.15,0-12.38,0-19.13,0
	C347.54,515.62,347.54,509.21,347.54,502.14z"/>
<linearGradient id="SVGID_3_" gradientUnits="userSpaceOnUse" x1="397.7965" y1="522.1519" x2="397.7965" y2="502.3593">
	<stop  offset="0" style="stop-color:#349FBA"/>
	<stop  offset="1" style="stop-color:#8C0E8C"/>
</linearGradient>
<path class="st3" d="M407.33,522.15c-6.4,0-12.47,0-19.07,0c0-6.47,0-12.88,0-19.79c6.08,0,12.3,0,19.07,0
	C407.33,508.68,407.33,515.08,407.33,522.15z"/>
<linearGradient id="SVGID_4_" gradientUnits="userSpaceOnUse" x1="438.5194" y1="521.9016" x2="438.5194" y2="502.2326">
	<stop  offset="0" style="stop-color:#349FBA"/>
	<stop  offset="1" style="stop-color:#8C0E8C"/>
</linearGradient>
<path class="st4" d="M428.81,521.9c0-6.56,0-12.97,0-19.67c6.61,0,12.84,0,19.43,0c0,6.62,0,12.89,0,19.67
	C441.86,521.9,435.49,521.9,428.81,521.9z"/>
<linearGradient id="SVGID_5_" gradientUnits="userSpaceOnUse" x1="621.6783" y1="471.4241" x2="621.6783" y2="369.754">
	<stop  offset="0" style="stop-color:#349FBA"/>
	<stop  offset="1" style="stop-color:#8C0E8C"/>
</linearGradient>
<path class="st5" d="M672.55,420.58c0,28.03-23.06,51.01-51.02,50.85c-28.09-0.17-51.02-23.3-50.72-51.17
	c0.29-27.92,22.94-50.46,50.73-50.5C649.64,369.71,672.56,392.55,672.55,420.58z M652.11,420.8c0.13-16.89-13.27-30.5-30.22-30.67
	c-16.8-0.17-30.61,13.44-30.67,30.23c-0.07,16.87,13.45,30.6,30.23,30.7C638.3,451.16,651.98,437.66,652.11,420.8z"/>
<linearGradient id="SVGID_6_" gradientUnits="userSpaceOnUse" x1="621.6737" y1="247.66" x2="621.6737" y2="145.8154">
	<stop  offset="0" style="stop-color:#349FBA"/>
	<stop  offset="1" style="stop-color:#8C0E8C"/>
</linearGradient>
<path class="st6" d="M672.55,197.04c-0.14,27.97-23.38,50.89-51.31,50.61c-27.73-0.28-50.42-23.18-50.44-50.91
	c-0.02-27.93,23.17-51.07,51.04-50.93C649.87,145.96,672.69,169.02,672.55,197.04z M621.65,166.33
	c-16.89,0.01-30.44,13.55-30.43,30.42c0,16.87,13.54,30.35,30.48,30.36c16.95,0.01,30.43-13.46,30.42-30.4
	C652.11,179.81,638.58,166.32,621.65,166.33z"/>
<linearGradient id="SVGID_7_" gradientUnits="userSpaceOnUse" x1="418.1262" y1="318.4043" x2="418.1262" y2="298.8158">
	<stop  offset="0" style="stop-color:#349FBA"/>
	<stop  offset="1" style="stop-color:#8C0E8C"/>
</linearGradient>
<path class="st8" d="M408.18,318.4c0-6.66,0-12.92,0-19.59c6.71,0,13.12,0,19.89,0c0,6.51,0,12.78,0,19.59
	C421.7,318.4,415.29,318.4,408.18,318.4z"/>
</svg>
