<?xml version="1.0"?>
<svg xmlns="http://www.w3.org/2000/svg" id="Capa_1" enable-background="new 0 0 512 512" height="512px" viewBox="0 0 512 512" width="512px" class=""><g><path d="m451 437c0-39.006-29.935-71.139-68.036-74.665 24.11-29.028 38.036-65.578 38.036-105.335v-62c0-35.203-10.896-68.688-31.525-97.009l-32.663-97.991h-201.624l-32.664 97.99c-20.628 28.322-31.524 61.807-31.524 97.01v62c0 39.738 13.914 76.293 38.036 105.335-38.101 3.526-68.036 35.659-68.036 74.665v75h390zm-171.213 45h-47.574c-10.123-10.509-17.984-16.751-27.398-30.01h102.369c-9.404 13.246-17.422 19.655-27.397 30.01zm43.23-60h-134.034c-3.544-9.615-5.942-19.67-7.122-30h59.139v-60.737c-.339-.24-60-14.742-60-74.263v-92c0-2.457.111-4.875.33-7.253l74.67 56.003 74.67-56.003c.219 2.377.33 4.796.33 7.253v92c0 60.942-58.351 73.097-60 74.263v60.727h59.14c-1.181 10.34-3.578 20.395-7.123 30.01zm67.983-165c0 41.228-18.219 79.219-50.15 105h-39.85v-10.06c36.289-17.139 60-54.035 60-94.94v-92c0-9.479-1.196-18.628-3.562-27.328l14.904-11.178c12.235 20.676 18.658 44.079 18.658 68.506zm-214.188-227h158.377l23.162 69.487-102.351 76.763-102.351-76.763zm-55.812 165c0-24.427 6.423-47.83 18.658-68.507l14.904 11.178c-2.366 8.701-3.562 17.85-3.562 27.329v92c0 40.906 23.711 77.802 60 94.94v10.06h-39.85c-31.931-25.781-50.15-63.772-50.15-105zm-30 242c0-24.813 20.187-45 45-45h15.698c3.09 33.414 16.478 64.654 38.623 90h-99.321zm330 45h-99.321c22.145-25.346 35.533-56.586 38.623-90h15.698c24.813 0 45 20.187 45 45z" data-original="#000000" class="active-path" data-old_color="#000000" fill="#777676"/><path d="m322.708 88.416-13.416-26.832-53.292 26.645-53.292-26.645-13.416 26.832 66.708 33.355z" data-original="#000000" class="active-path" data-old_color="#000000" fill="#777676"/></g> </svg>
