<?xml version="1.0" encoding="UTF-8"?>
<svg width="45px" height="45px" viewBox="0 0 45 45" version="1.1" xmlns="http://www.w3.org/2000/svg" xmlns:xlink="http://www.w3.org/1999/xlink">
    <!-- Generator: Sketch 51.3 (57544) - http://www.bohemiancoding.com/sketch -->
    <title>gen/ic/ic-1</title>
    <desc>Created with Sketch.</desc>
    <defs>
        <polygon id="path-1" points="0.000298174484 0.072 38.4 0.072 38.4 40.9996 0.000298174484 40.9996"></polygon>
    </defs>
    <g id="gen/ic/ic-1" stroke="none" stroke-width="1" fill="none" fill-rule="evenodd">
        <g id="Group-10" transform="translate(3.000000, 1.000000)">
            <path d="M32.9092,36.5688 C31.9902,37.4868 30.4952,37.4868 29.5762,36.5688 C28.6572,35.6498 28.6572,34.1538 29.5762,33.2358 C30.0352,32.7768 30.6392,32.5468 31.2422,32.5468 C31.8462,32.5468 32.4502,32.7768 32.9092,33.2358 C33.8282,34.1538 33.8282,35.6498 32.9092,36.5688 M28.5312,32.1908 C27.0362,33.6858 27.0362,36.1178 28.5312,37.6128 C29.2792,38.3608 30.2612,38.7348 31.2422,38.7348 C32.2242,38.7348 33.2062,38.3608 33.9532,37.6128 C35.4492,36.1178 35.4492,33.6858 33.9532,32.1908 C32.4592,30.6958 30.0262,30.6958 28.5312,32.1908" id="Fill-1" fill="#FFFFFF"></path>
            <g id="Group-5" transform="translate(0.000000, 0.927800)">
                <mask id="mask-2" fill="white">
                    <use xlink:href="#path-1"></use>
                </mask>
                <g id="Clip-4"></g>
                <path d="M36.7823,34.2826 C36.6943,35.8796 35.9503,37.3146 34.6883,38.3246 C32.6963,39.9166 29.7063,39.8956 27.7343,38.2736 C25.8093,36.6906 25.1693,34.0916 26.1413,31.8056 C26.4793,31.0116 26.3163,30.1166 25.7263,29.5266 L22.1343,25.9346 C21.7453,25.5456 21.2053,25.3326 20.6223,25.3326 C20.5363,25.3326 20.4483,25.3366 20.3603,25.3466 C19.3793,25.4536 18.1843,24.8586 16.9983,23.6736 C15.7903,22.4656 15.2103,21.2286 15.3653,20.1916 C15.3933,19.9976 15.3443,19.7996 15.2273,19.6426 C15.1103,19.4846 14.9353,19.3806 14.7413,19.3516 C14.3783,19.2996 14.0543,19.1396 13.8053,18.8906 L3.1323,8.2166 C1.5403,6.6246 1.0663,4.2716 1.8443,2.2236 L16.1583,16.5376 C16.4073,16.7866 16.5673,17.1106 16.6203,17.4726 C16.6483,17.6666 16.7533,17.8416 16.9103,17.9586 C17.0683,18.0756 17.2663,18.1256 17.4603,18.0966 C18.4923,17.9436 19.7333,18.5216 20.9423,19.7306 C22.1273,20.9156 22.7213,22.1096 22.6153,23.0926 C22.5413,23.7726 22.7553,24.4186 23.2023,24.8656 L26.7673,28.4306 C27.3693,29.0326 28.2853,29.2016 29.1023,28.8616 C31.1903,27.9876 33.5693,28.4546 35.1653,30.0516 C36.2803,31.1646 36.8693,32.7076 36.7823,34.2826 Z M12.6743,29.3696 C12.0843,29.9596 11.9213,30.8546 12.2593,31.6486 C13.2313,33.9346 12.5913,36.5336 10.6663,38.1166 C8.6943,39.7386 5.7043,39.7606 3.7123,38.1676 C2.4493,37.1576 1.7063,35.7226 1.6183,34.1256 C1.5313,32.5516 2.1203,31.0086 3.2353,29.8946 C4.8303,28.2986 7.2093,27.8306 9.2983,28.7046 C10.1133,29.0446 11.0313,28.8766 11.6333,28.2736 L15.5843,24.3226 C15.7033,24.4546 15.8233,24.5876 15.9543,24.7186 C16.1933,24.9566 16.4333,25.1696 16.6743,25.3686 L12.6743,29.3696 Z M21.3463,17.7496 C21.3993,17.3866 21.5583,17.0636 21.8083,16.8146 L36.5553,2.0666 C37.3343,4.1156 36.8603,6.4676 35.2683,8.0596 L24.1603,19.1676 C23.9123,19.4156 23.5883,19.5756 23.2263,19.6286 C23.1093,19.6456 23.0053,19.6916 22.9143,19.7546 C22.6473,19.3976 22.3413,19.0406 21.9863,18.6856 C21.7433,18.4426 21.4963,18.2266 21.2473,18.0246 C21.2973,17.9436 21.3313,17.8496 21.3463,17.7496 Z M28.5323,27.4986 C28.2673,27.6086 27.9913,27.5656 27.8113,27.3866 L24.2473,23.8216 C24.0703,23.6446 24.0683,23.3886 24.0833,23.2516 C24.1613,22.5356 24.0233,21.7896 23.6833,21.0346 C24.2633,20.9046 24.7883,20.6286 25.2053,20.2116 L36.3133,9.1046 C38.6163,6.8006 39.0643,3.2356 37.4023,0.4336 C37.2853,0.2376 37.0853,0.1066 36.8593,0.0776 C36.6323,0.0486 36.4063,0.1276 36.2443,0.2886 L20.7633,15.7696 C20.3753,16.1576 20.1093,16.6386 19.9673,17.1706 C19.2753,16.8136 18.5823,16.6186 17.9123,16.5976 C17.7583,16.1826 17.5183,15.8086 17.2033,15.4926 L2.1563,0.4456 C1.9943,0.2836 1.7633,0.2056 1.5413,0.2346 C1.3153,0.2636 1.1153,0.3946 0.9983,0.5906 C-0.6637,3.3926 -0.2157,6.9576 2.0873,9.2616 L12.7613,19.9346 C13.0763,20.2506 13.4503,20.4896 13.8653,20.6446 C13.8913,21.4536 14.1733,22.2976 14.6853,23.1326 L10.5893,27.2296 C10.4083,27.4086 10.1333,27.4516 9.8673,27.3416 C7.2263,26.2356 4.2133,26.8266 2.1903,28.8496 C0.7793,30.2606 0.0323,32.2136 0.1433,34.2076 C0.2533,36.1996 1.2173,38.0636 2.7883,39.3206 C4.0583,40.3366 5.6073,40.8436 7.1563,40.8436 C8.7383,40.8436 10.3213,40.3136 11.6053,39.2576 C14.0403,37.2546 14.8493,33.9646 13.6183,31.0706 C13.5153,30.8296 13.5543,30.5786 13.7193,30.4136 L17.9153,26.2166 C18.8023,26.6966 19.6813,26.9076 20.5193,26.8156 C20.6573,26.8006 20.9123,26.8016 21.0893,26.9786 L24.6813,30.5706 C24.8443,30.7326 24.8833,30.9906 24.7823,31.2276 C23.5513,34.1216 24.3603,37.4116 26.7953,39.4136 C28.0803,40.4706 29.6623,40.9996 31.2443,40.9996 C32.7933,40.9996 34.3423,40.4926 35.6123,39.4766 C37.1823,38.2206 38.1473,36.3566 38.2573,34.3646 C38.3673,32.3696 37.6213,30.4176 36.2103,29.0066 C34.1883,26.9836 31.1733,26.3936 28.5323,27.4986 Z" id="Fill-3" fill="#FFFFFF" mask="url(#mask-2)"></path>
            </g>
            <path d="M8.8243,36.4116 C7.9053,37.3296 6.4103,37.3296 5.4913,36.4116 C4.5723,35.4926 4.5723,33.9966 5.4913,33.0786 C5.9503,32.6196 6.5543,32.3896 7.1573,32.3896 C7.7613,32.3896 8.3653,32.6196 8.8243,33.0786 C9.7433,33.9966 9.7433,35.4926 8.8243,36.4116 M4.4463,32.0336 C2.9513,33.5286 2.9513,35.9606 4.4463,37.4556 C5.1943,38.2036 6.1763,38.5776 7.1573,38.5776 C8.1393,38.5776 9.1213,38.2036 9.8683,37.4556 C11.3643,35.9606 11.3643,33.5286 9.8683,32.0336 C8.3743,30.5386 5.9413,30.5386 4.4463,32.0336" id="Fill-6" fill="#FFFFFF"></path>
            <path d="M18.8604,21.9424 C18.8114,21.9474 18.7674,21.9624 18.7224,21.9824 C18.6774,22.0014 18.6334,22.0214 18.5944,22.0504 C18.5544,22.0754 18.5154,22.1054 18.4814,22.1394 C18.3434,22.2774 18.2644,22.4694 18.2644,22.6614 C18.2644,22.8634 18.3434,23.0454 18.4814,23.1834 C18.5494,23.2564 18.6334,23.3114 18.7224,23.3454 C18.8114,23.3854 18.9044,23.4004 19.0034,23.4004 C19.1014,23.4004 19.2004,23.3854 19.2884,23.3454 C19.3774,23.3114 19.4564,23.2564 19.5254,23.1834 C19.6684,23.0454 19.7414,22.8634 19.7414,22.6614 C19.7414,22.4694 19.6624,22.2774 19.5254,22.1394 C19.3524,21.9724 19.1014,21.8934 18.8604,21.9424" id="Fill-8" fill="#FFFFFF"></path>
        </g>
    </g>
</svg>