<?xml version="1.0" encoding="UTF-8"?>
<svg width="45px" height="45px" viewBox="0 0 45 45" version="1.1" xmlns="http://www.w3.org/2000/svg" xmlns:xlink="http://www.w3.org/1999/xlink">
    <!-- Generator: Sketch 51.3 (57544) - http://www.bohemiancoding.com/sketch -->
    <title>gen/ic/ic-2</title>
    <desc>Created with Sketch.</desc>
    <defs>
        <polygon id="path-1" points="7.3362104e-05 0.371 42.629 0.371 42.629 42.9994024 7.3362104e-05 42.9994024"></polygon>
    </defs>
    <g id="gen/ic/ic-2" stroke="none" stroke-width="1" fill="none" fill-rule="evenodd">
        <g id="Group-50" transform="translate(1.000000, 1.000000)">
            <path d="M33.1734,21.2757 C27.2924,27.1567 21.9444,27.0727 19.2494,24.3797 C16.5564,21.6867 16.4724,16.3377 22.3544,10.4557 C25.1014,7.7087 28.6064,5.4697 31.8204,5.4697 C33.4214,5.4697 34.9514,6.0257 36.2774,7.3517 C40.2654,11.3407 37.2894,17.1597 33.1734,21.2757 M37.3214,6.3077 C33.3414,2.3277 27.2064,3.5147 21.3094,9.4117 C15.5914,15.1287 14.3444,21.5637 18.2044,25.4247 C19.6994,26.9197 21.5814,27.6487 23.6574,27.6487 C26.9424,27.6487 30.7154,25.8227 34.2174,22.3197 C40.1134,16.4237 41.3034,10.2887 37.3214,6.3077" id="Fill-1" fill="#FFFFFF"></path>
            <g id="Group-5" transform="translate(0.000000, 0.629400)">
                <mask id="mask-2" fill="white">
                    <use xlink:href="#path-1"></use>
                </mask>
                <g id="Clip-4"></g>
                <path d="M35.2115,22.6844 C29.9705,27.9254 23.7425,29.7984 19.3435,27.4554 C18.8675,27.2034 18.3095,27.1834 17.8135,27.4044 C17.2975,27.6334 16.9215,28.0824 16.7835,28.6354 C16.2345,30.8304 14.3745,33.6724 11.8085,36.2394 C7.4455,40.6024 3.5005,42.5204 1.9885,41.0114 C0.4795,39.5014 2.3975,35.5554 6.7615,31.1914 C9.3275,28.6254 12.1695,26.7654 14.3645,26.2164 C14.9175,26.0784 15.3665,25.7024 15.5965,25.1864 C15.8165,24.6904 15.7975,24.1334 15.5445,23.6574 C13.2015,19.2584 15.0745,13.0294 20.3155,7.7884 C23.6075,4.4964 27.8535,1.8674 31.9255,1.8674 C34.1885,1.8674 36.3975,2.6794 38.3595,4.6414 C43.8505,10.1324 40.3335,17.5624 35.2115,22.6844 M39.4035,3.5964 C34.1655,-1.6416 26.4505,-0.4366 19.2715,6.7444 C13.4725,12.5424 11.5445,19.2894 14.2405,24.3514 C14.2795,24.4264 14.2825,24.5054 14.2465,24.5854 C14.2255,24.6324 14.1615,24.7444 14.0055,24.7834 C11.5635,25.3944 8.4645,27.3994 5.7165,30.1464 C0.4945,35.3694 -1.2895,39.8214 0.9445,42.0554 C1.5785,42.6894 2.3915,43.0004 3.3495,42.9994 C5.7685,42.9994 9.1135,41.0234 12.8535,37.2834 C15.6005,34.5364 17.6055,31.4364 18.2165,28.9934 C18.2555,28.8384 18.3675,28.7744 18.4145,28.7534 C18.4945,28.7184 18.5745,28.7204 18.6485,28.7604 C23.7115,31.4554 30.4575,29.5274 36.2555,23.7284 C43.4355,16.5494 44.6415,8.8344 39.4035,3.5964" id="Fill-3" fill="#FFFFFF" mask="url(#mask-2)"></path>
            </g>
            <path d="M5.5138,38.594 C5.4278,38.68 5.3268,38.693 5.2748,38.693 C5.2218,38.693 5.1218,38.681 5.0348,38.594 C4.9488,38.508 4.9358,38.407 4.9358,38.355 C4.9358,38.303 4.9498,38.202 5.0348,38.115 C5.1008,38.05 5.1878,38.017 5.2748,38.017 C5.3618,38.017 5.4478,38.05 5.5138,38.115 C5.6458,38.247 5.6458,38.462 5.5138,38.594 M3.9908,37.071 C3.6478,37.414 3.4588,37.87 3.4588,38.355 C3.4588,38.841 3.6478,39.296 3.9908,39.638 C4.3328,39.982 4.7888,40.171 5.2748,40.171 C5.7598,40.171 6.2158,39.982 6.5578,39.638 C7.2658,38.931 7.2658,37.78 6.5578,37.071 C5.8498,36.364 4.6988,36.364 3.9908,37.071" id="Fill-6" fill="#FFFFFF"></path>
            <path d="M33.0626,11.305 C33.0626,11.109 32.9836,10.916 32.8466,10.784 C32.5746,10.508 32.0776,10.508 31.8016,10.784 C31.6646,10.916 31.5846,11.109 31.5846,11.305 C31.5846,11.502 31.6646,11.684 31.8016,11.827 C31.9446,11.966 32.1266,12.039 32.3236,12.039 C32.5206,12.039 32.7086,11.966 32.8466,11.827 C32.9886,11.684 33.0626,11.502 33.0626,11.305" id="Fill-8" fill="#FFFFFF"></path>
            <path d="M29.9161,9.8577 C30.0041,9.8927 30.0981,9.9117 30.1961,9.9117 C30.3941,9.9117 30.5811,9.8377 30.7191,9.6947 C30.8611,9.5577 30.9351,9.3697 30.9351,9.1737 C30.9351,9.1237 30.9301,9.0797 30.9201,9.0307 C30.9111,8.9817 30.8961,8.9367 30.8811,8.8927 C30.8611,8.8487 30.8371,8.8037 30.8121,8.7647 C30.7831,8.7257 30.7531,8.6857 30.7191,8.6507 C30.6841,8.6167 30.6501,8.5867 30.6051,8.5577 C30.5651,8.5327 30.5271,8.5127 30.4821,8.4937 C30.4371,8.4737 30.3891,8.4597 30.3391,8.4497 C30.1031,8.3997 29.8471,8.4797 29.6751,8.6507 C29.6401,8.6857 29.6111,8.7257 29.5811,8.7647 C29.5561,8.8037 29.5321,8.8487 29.5171,8.8927 C29.4971,8.9367 29.4831,8.9817 29.4731,9.0307 C29.4631,9.0797 29.4581,9.1237 29.4581,9.1737 C29.4581,9.3697 29.5371,9.5577 29.6751,9.6947 C29.7431,9.7637 29.8271,9.8177 29.9161,9.8577" id="Fill-10" fill="#FFFFFF"></path>
            <path d="M35.1353,13.1468 C35.1153,13.1028 35.0963,13.0638 35.0663,13.0238 C35.0423,12.9798 35.0123,12.9448 34.9783,12.9108 C34.8053,12.7378 34.5543,12.6598 34.3083,12.7088 C34.2643,12.7188 34.2143,12.7328 34.1703,12.7488 C34.1263,12.7678 34.0823,12.7928 34.0423,12.8168 C34.0033,12.8418 33.9633,12.8758 33.9343,12.9108 C33.8993,12.9448 33.8643,12.9798 33.8403,13.0238 C33.8163,13.0638 33.7913,13.1028 33.7713,13.1468 C33.7523,13.1908 33.7413,13.2408 33.7323,13.2898 C33.7223,13.3338 33.7173,13.3838 33.7173,13.4328 C33.7173,13.6298 33.7913,13.8118 33.9343,13.9548 C34.0723,14.0918 34.2593,14.1708 34.4563,14.1708 C34.5543,14.1708 34.6483,14.1518 34.7373,14.1118 C34.8253,14.0778 34.9083,14.0238 34.9783,13.9548 C35.1153,13.8118 35.1943,13.6298 35.1943,13.4328 C35.1943,13.3838 35.1903,13.3338 35.1793,13.2898 C35.1703,13.2408 35.1553,13.1908 35.1353,13.1468" id="Fill-12" fill="#FFFFFF"></path>
            <path d="M31.836,14.3187 C31.816,14.2747 31.797,14.2307 31.768,14.1907 C31.743,14.1517 31.713,14.1117 31.679,14.0777 C31.644,14.0477 31.605,14.0137 31.565,13.9887 C31.526,13.9597 31.482,13.9397 31.438,13.9207 C31.393,13.9007 31.349,13.8857 31.299,13.8807 C31.058,13.8317 30.802,13.9097 30.635,14.0777 C30.6,14.1117 30.565,14.1517 30.541,14.1907 C30.517,14.2307 30.492,14.2747 30.472,14.3187 C30.458,14.3627 30.442,14.4127 30.433,14.4567 C30.423,14.5057 30.418,14.5557 30.418,14.6047 C30.418,14.7967 30.492,14.9837 30.635,15.1267 C30.704,15.1957 30.783,15.2497 30.871,15.2837 C30.96,15.3237 31.058,15.3427 31.157,15.3427 C31.354,15.3427 31.536,15.2637 31.679,15.1267 C31.748,15.0577 31.802,14.9737 31.836,14.8847 C31.876,14.7967 31.896,14.6977 31.896,14.6047 C31.896,14.5557 31.891,14.5057 31.881,14.4567 C31.871,14.4127 31.856,14.3627 31.836,14.3187" id="Fill-14" fill="#FFFFFF"></path>
            <path d="M28.7442,13.157 C28.8322,13.191 28.9312,13.211 29.0302,13.211 C29.2262,13.211 29.4092,13.137 29.5472,12.994 C29.6892,12.856 29.7632,12.669 29.7632,12.472 C29.7632,12.281 29.6842,12.089 29.5472,11.95 C29.5172,11.916 29.4772,11.886 29.4382,11.857 C29.3932,11.832 29.3542,11.808 29.3102,11.793 C29.2652,11.773 29.2172,11.759 29.1722,11.748 C29.0742,11.729 28.9752,11.729 28.8822,11.748 C28.8372,11.759 28.7882,11.773 28.7442,11.793 C28.7002,11.808 28.6552,11.832 28.6162,11.857 C28.5772,11.886 28.5372,11.916 28.5032,11.95 C28.3652,12.089 28.2862,12.281 28.2862,12.472 C28.2862,12.669 28.3652,12.856 28.5032,12.994 C28.5712,13.063 28.6552,13.117 28.7442,13.157" id="Fill-16" fill="#FFFFFF"></path>
            <path d="M33.9684,16.4461 C33.9484,16.4021 33.9244,16.3631 33.8994,16.3181 C33.8704,16.2791 33.8404,16.2441 33.8054,16.2101 C33.5304,15.9341 33.0374,15.9341 32.7624,16.2101 C32.7274,16.2441 32.6974,16.2791 32.6684,16.3181 C32.6444,16.3631 32.6194,16.4021 32.5994,16.4461 C32.5854,16.4901 32.5704,16.5401 32.5604,16.5841 C32.5504,16.6331 32.5454,16.6831 32.5454,16.7321 C32.5454,16.9291 32.6194,17.1111 32.7624,17.2541 C32.8314,17.3221 32.9094,17.3771 32.9984,17.4111 C33.0924,17.4501 33.1854,17.4701 33.2844,17.4701 C33.3834,17.4701 33.4764,17.4501 33.5654,17.4111 C33.6584,17.3771 33.7374,17.3221 33.8054,17.2541 C33.8754,17.1851 33.9284,17.1011 33.9684,17.0121 C34.0034,16.9241 34.0224,16.8301 34.0224,16.7321 C34.0224,16.6831 34.0184,16.6331 34.0084,16.5841 C33.9984,16.5401 33.9834,16.4901 33.9684,16.4461" id="Fill-18" fill="#FFFFFF"></path>
            <path d="M26.3756,10.867 C26.4446,10.936 26.5286,10.99 26.6166,11.03 C26.7056,11.064 26.7986,11.084 26.8976,11.084 C26.9956,11.084 27.0896,11.064 27.1836,11.03 C27.2716,10.99 27.3506,10.936 27.4196,10.867 C27.5626,10.729 27.6366,10.542 27.6366,10.346 C27.6366,10.296 27.6306,10.247 27.6216,10.202 C27.6116,10.153 27.6016,10.109 27.5826,10.065 C27.5626,10.02 27.5376,9.976 27.5136,9.937 C27.4836,9.892 27.4546,9.858 27.4196,9.823 C27.1486,9.548 26.6516,9.548 26.3756,9.823 C26.3416,9.858 26.3116,9.892 26.2826,9.937 C26.2566,9.976 26.2326,10.02 26.2186,10.065 C26.1986,10.109 26.1836,10.153 26.1736,10.202 C26.1636,10.247 26.1596,10.296 26.1596,10.346 C26.1596,10.444 26.1786,10.537 26.2126,10.626 C26.2526,10.72 26.3066,10.798 26.3756,10.867" id="Fill-20" fill="#FFFFFF"></path>
            <path d="M28.3795,16.2938 C28.4485,16.2248 28.5035,16.1458 28.5375,16.0568 C28.5765,15.9628 28.5965,15.8698 28.5965,15.7718 C28.5965,15.5798 28.5175,15.3878 28.3795,15.2498 C28.1035,14.9738 27.6065,14.9738 27.3355,15.2498 C27.1975,15.3878 27.1185,15.5748 27.1185,15.7718 C27.1185,15.9688 27.1925,16.1558 27.3355,16.2938 C27.4045,16.3628 27.4835,16.4168 27.5725,16.4558 C27.6605,16.4958 27.7595,16.5098 27.8575,16.5098 C27.9565,16.5098 28.0495,16.4958 28.1385,16.4558 C28.2265,16.4168 28.3115,16.3628 28.3795,16.2938" id="Fill-22" fill="#FFFFFF"></path>
            <path d="M25.2086,14.1663 C25.2776,14.2353 25.3566,14.2893 25.4446,14.3293 C25.5336,14.3633 25.6266,14.3823 25.7256,14.3823 C25.9276,14.3823 26.1096,14.3043 26.2476,14.1663 C26.3166,14.0973 26.3706,14.0133 26.4106,13.9253 C26.4496,13.8363 26.4646,13.7423 26.4646,13.6443 C26.4646,13.5953 26.4586,13.5463 26.4496,13.5013 C26.4446,13.4523 26.4296,13.4083 26.4106,13.3633 C26.3906,13.3193 26.3656,13.2743 26.3416,13.2353 C26.3166,13.1963 26.2826,13.1573 26.2476,13.1223 C25.9766,12.8473 25.4796,12.8473 25.2086,13.1223 C25.1746,13.1573 25.1396,13.1963 25.1146,13.2353 C25.0846,13.2743 25.0656,13.3193 25.0456,13.3633 C25.0256,13.4083 25.0116,13.4523 25.0016,13.5013 C24.9916,13.5463 24.9876,13.5953 24.9876,13.6443 C24.9876,13.7423 25.0066,13.8363 25.0456,13.9253 C25.0806,14.0193 25.1346,14.0973 25.2086,14.1663" id="Fill-24" fill="#FFFFFF"></path>
            <path d="M29.463,17.3821 C29.325,17.5141 29.246,17.7061 29.246,17.9031 C29.246,18.1011 29.325,18.2831 29.463,18.4211 C29.532,18.4951 29.611,18.5491 29.699,18.5831 C29.793,18.6221 29.886,18.6421 29.985,18.6421 C30.084,18.6421 30.177,18.6221 30.266,18.5831 C30.359,18.5491 30.438,18.4951 30.507,18.4211 C30.645,18.2831 30.723,18.1011 30.723,17.9031 C30.723,17.7061 30.645,17.5141 30.507,17.3821 C30.236,17.1011 29.734,17.1061 29.463,17.3821" id="Fill-26" fill="#FFFFFF"></path>
            <path d="M26.1637,18.5486 C26.0257,18.6866 25.9467,18.8786 25.9467,19.0706 C25.9467,19.2676 26.0257,19.4546 26.1637,19.5926 C26.3017,19.7356 26.4887,19.8096 26.6857,19.8096 C26.7847,19.8096 26.8777,19.7946 26.9667,19.7556 C27.0547,19.7156 27.1387,19.6616 27.2077,19.5926 C27.2767,19.5236 27.3307,19.4446 27.3707,19.3566 C27.4047,19.2626 27.4247,19.1696 27.4247,19.0706 C27.4247,18.8786 27.3457,18.6866 27.2077,18.5486 C26.9367,18.2736 26.4347,18.2736 26.1637,18.5486" id="Fill-28" fill="#FFFFFF"></path>
            <path d="M25.0807,17.4656 C25.1487,17.3966 25.2037,17.3176 25.2387,17.2286 C25.2777,17.1356 25.2977,17.0416 25.2977,16.9436 C25.2977,16.8946 25.2917,16.8446 25.2827,16.8006 C25.2717,16.7516 25.2577,16.7076 25.2387,16.6626 C25.2187,16.6186 25.1987,16.5736 25.1687,16.5346 C25.1447,16.4956 25.1147,16.4556 25.0807,16.4216 C24.8047,16.1456 24.3077,16.1456 24.0367,16.4216 C23.8987,16.5596 23.8197,16.7516 23.8197,16.9436 C23.8197,17.0416 23.8397,17.1356 23.8737,17.2286 C23.9137,17.3176 23.9677,17.3966 24.0367,17.4656 C24.1057,17.5346 24.1847,17.5886 24.2727,17.6286 C24.3617,17.6626 24.4597,17.6816 24.5587,17.6816 C24.6567,17.6816 24.7507,17.6626 24.8387,17.6286 C24.9277,17.5886 25.0117,17.5346 25.0807,17.4656" id="Fill-30" fill="#FFFFFF"></path>
            <path d="M29.4972,20.9173 C29.4772,20.8733 29.4532,20.8293 29.4282,20.7893 C29.3992,20.7503 29.3692,20.7103 29.3342,20.6813 C29.3002,20.6463 29.2662,20.6123 29.2262,20.5873 C29.1822,20.5573 29.1432,20.5383 29.0992,20.5183 C29.0542,20.4993 29.0052,20.4893 28.9602,20.4793 C28.7142,20.4293 28.4632,20.5083 28.2912,20.6813 C28.2562,20.7103 28.2262,20.7503 28.2022,20.7893 C28.1732,20.8293 28.1532,20.8733 28.1332,20.9173 C28.1142,20.9613 28.0992,21.0103 28.0892,21.0553 C28.0792,21.1043 28.0742,21.1533 28.0742,21.2033 C28.0742,21.2963 28.0942,21.3953 28.1332,21.4833 C28.1682,21.5723 28.2222,21.6513 28.2912,21.7253 C28.4292,21.8623 28.6162,21.9373 28.8132,21.9373 C28.9122,21.9373 29.0052,21.9213 29.0992,21.8823 C29.1872,21.8483 29.2662,21.7933 29.3342,21.7253 C29.4772,21.5823 29.5512,21.3993 29.5512,21.2033 C29.5512,21.1533 29.5472,21.1043 29.5372,21.0553 C29.5272,21.0103 29.5122,20.9613 29.4972,20.9173" id="Fill-32" fill="#FFFFFF"></path>
            <path d="M21.9044,15.3382 C21.9734,15.4072 22.0574,15.4612 22.1454,15.4962 C22.2344,15.5352 22.3274,15.5552 22.4264,15.5552 C22.5254,15.5552 22.6234,15.5352 22.7124,15.4962 C22.8004,15.4612 22.8794,15.4072 22.9484,15.3382 C23.0224,15.2692 23.0764,15.1862 23.1114,15.0972 C23.1504,15.0082 23.1654,14.9142 23.1654,14.8172 C23.1654,14.6192 23.0864,14.4322 22.9484,14.2942 C22.9194,14.2592 22.8794,14.2252 22.8404,14.2012 C22.8004,14.1762 22.7564,14.1512 22.7124,14.1312 C22.6684,14.1122 22.6184,14.1022 22.5744,14.0922 C22.3274,14.0432 22.0764,14.1222 21.9044,14.2942 C21.7664,14.4322 21.6884,14.6192 21.6884,14.8172 C21.6884,14.9142 21.7074,15.0082 21.7474,15.0972 C21.7814,15.1862 21.8354,15.2692 21.9044,15.3382" id="Fill-34" fill="#FFFFFF"></path>
            <path d="M23.795,19.6272 C23.756,19.6032 23.712,19.5782 23.667,19.5632 C23.623,19.5432 23.579,19.5282 23.529,19.5192 C23.288,19.4692 23.037,19.5482 22.864,19.7212 C22.727,19.8582 22.648,20.0502 22.648,20.2422 C22.648,20.3412 22.668,20.4342 22.702,20.5232 C22.741,20.6172 22.796,20.6952 22.864,20.7642 C22.933,20.8342 23.012,20.8872 23.101,20.9272 C23.194,20.9612 23.288,20.9812 23.387,20.9812 C23.485,20.9812 23.579,20.9612 23.667,20.9272 C23.756,20.8872 23.84,20.8342 23.909,20.7642 C23.977,20.6952 24.032,20.6172 24.066,20.5232 C24.106,20.4342 24.126,20.3412 24.126,20.2422 C24.126,20.0502 24.046,19.8582 23.909,19.7212 C23.874,19.6862 23.835,19.6562 23.795,19.6272" id="Fill-36" fill="#FFFFFF"></path>
            <path d="M21.7813,18.6375 C21.8503,18.5685 21.9043,18.4845 21.9393,18.3965 C21.9783,18.3075 21.9983,18.2135 21.9983,18.1155 C21.9983,17.9185 21.9193,17.7315 21.7813,17.5935 C21.7473,17.5585 21.7073,17.5295 21.6683,17.4995 C21.6283,17.4755 21.5843,17.4505 21.5403,17.4305 C21.4953,17.4165 21.4513,17.4015 21.4023,17.3915 C21.1603,17.3425 20.9053,17.4215 20.7373,17.5935 C20.5993,17.7315 20.5203,17.9185 20.5203,18.1155 C20.5203,18.2135 20.5403,18.3075 20.5753,18.3965 C20.6143,18.4845 20.6683,18.5685 20.7373,18.6375 C20.8063,18.7065 20.8853,18.7605 20.9733,18.7945 C21.0623,18.8345 21.1603,18.8535 21.2593,18.8535 C21.3583,18.8535 21.4513,18.8345 21.5403,18.7945 C21.6283,18.7605 21.7123,18.7065 21.7813,18.6375" id="Fill-38" fill="#FFFFFF"></path>
            <path d="M26.1983,22.0892 C26.1783,22.0452 26.1543,22.0012 26.1293,21.9612 C26.1043,21.9222 26.0703,21.8822 26.0353,21.8482 C26.0013,21.8142 25.9673,21.7842 25.9273,21.7592 C25.8833,21.7302 25.8433,21.7052 25.7993,21.6912 C25.7553,21.6712 25.7063,21.6562 25.6613,21.6462 C25.5633,21.6262 25.4643,21.6262 25.3703,21.6462 C25.3223,21.6562 25.2773,21.6712 25.2333,21.6912 C25.1883,21.7052 25.1443,21.7302 25.1053,21.7592 C25.0653,21.7842 25.0263,21.8142 24.9913,21.8482 C24.9573,21.8822 24.9273,21.9222 24.8983,21.9612 C24.8733,22.0012 24.8543,22.0452 24.8343,22.0892 C24.8143,22.1332 24.7993,22.1772 24.7903,22.2272 C24.7803,22.2762 24.7753,22.3202 24.7753,22.3702 C24.7753,22.4682 24.7953,22.5672 24.8343,22.6552 C24.8683,22.7442 24.9233,22.8232 24.9913,22.8922 C25.0603,22.9612 25.1443,23.0152 25.2333,23.0542 C25.3223,23.0892 25.4153,23.1092 25.5133,23.1092 C25.6123,23.1092 25.7113,23.0892 25.7993,23.0542 C25.8873,23.0152 25.9673,22.9612 26.0353,22.8922 C26.1043,22.8232 26.1593,22.7442 26.1983,22.6552 C26.2323,22.5672 26.2523,22.4682 26.2523,22.3702 C26.2523,22.3202 26.2473,22.2762 26.2383,22.2272 C26.2273,22.1772 26.2133,22.1332 26.1983,22.0892" id="Fill-40" fill="#FFFFFF"></path>
            <path d="M22.0714,22.8182 C22.0224,22.8282 21.9784,22.8422 21.9344,22.8572 C21.8894,22.8772 21.8454,22.9012 21.8064,22.9262 C21.7664,22.9562 21.7274,22.9852 21.6924,23.0202 C21.5544,23.1572 21.4754,23.3492 21.4754,23.5422 C21.4754,23.6402 21.4954,23.7342 21.5344,23.8222 C21.5694,23.9162 21.6244,23.9952 21.6924,24.0642 C21.7614,24.1332 21.8454,24.1872 21.9344,24.2262 C22.0224,24.2612 22.1164,24.2802 22.2144,24.2802 C22.3134,24.2802 22.4114,24.2612 22.5004,24.2262 C22.5894,24.1872 22.6684,24.1332 22.7374,24.0642 C22.8054,23.9952 22.8604,23.9162 22.8994,23.8222 C22.9334,23.7342 22.9534,23.6402 22.9534,23.5422 C22.9534,23.3492 22.8744,23.1572 22.7374,23.0202 C22.5694,22.8472 22.3134,22.7692 22.0714,22.8182" id="Fill-42" fill="#FFFFFF"></path>
            <path d="M20.7721,21.1287 C20.7521,21.0847 20.7281,21.0457 20.7031,21.0057 C20.6731,20.9617 20.6441,20.9267 20.6091,20.8927 C20.4371,20.7197 20.1811,20.6417 19.9451,20.6907 C19.8951,20.7007 19.8511,20.7107 19.8021,20.7307 C19.7581,20.7497 19.7181,20.7747 19.6791,20.7987 C19.6341,20.8237 19.6001,20.8577 19.5651,20.8927 C19.5311,20.9267 19.5011,20.9617 19.4721,21.0057 C19.4471,21.0457 19.4221,21.0847 19.4031,21.1287 C19.3881,21.1727 19.3741,21.2227 19.3631,21.2667 C19.3541,21.3157 19.3491,21.3657 19.3491,21.4147 C19.3491,21.5127 19.3691,21.6067 19.4031,21.6957 C19.4421,21.7837 19.4971,21.8677 19.5651,21.9367 C19.6341,22.0057 19.7131,22.0597 19.8021,22.0937 C19.8951,22.1337 19.9891,22.1527 20.0871,22.1527 C20.1861,22.1527 20.2791,22.1337 20.3681,22.0937 C20.4571,22.0597 20.5411,22.0057 20.6091,21.9367 C20.6781,21.8677 20.7321,21.7837 20.7721,21.6957 C20.8061,21.6067 20.8261,21.5127 20.8261,21.4147 C20.8261,21.3657 20.8211,21.3157 20.8111,21.2667 C20.8021,21.2227 20.7871,21.1727 20.7721,21.1287" id="Fill-44" fill="#FFFFFF"></path>
            <path d="M35.8893,9.6658 C35.8493,9.6408 35.8053,9.6168 35.7613,9.5968 C35.7173,9.5768 35.6673,9.5668 35.6233,9.5578 C35.5293,9.5378 35.4313,9.5378 35.3323,9.5578 C35.2883,9.5668 35.2393,9.5768 35.1943,9.5968 C35.1503,9.6168 35.1063,9.6408 35.0663,9.6658 C35.0273,9.6948 34.9883,9.7248 34.9583,9.7588 C34.9243,9.7938 34.8893,9.8278 34.8653,9.8678 C34.8403,9.9118 34.8153,9.9508 34.7963,9.9958 C34.7763,10.0398 34.7663,10.0888 34.7563,10.1328 C34.7463,10.1828 34.7423,10.2318 34.7423,10.2818 C34.7423,10.4778 34.8153,10.6608 34.9583,10.8028 C35.0273,10.8718 35.1063,10.9258 35.1943,10.9608 C35.2833,10.9998 35.3823,11.0198 35.4803,11.0198 C35.5783,11.0198 35.6723,10.9998 35.7613,10.9608 C35.8493,10.9258 35.9283,10.8718 36.0023,10.8028 C36.1403,10.6608 36.2193,10.4778 36.2193,10.2818 C36.2193,10.0838 36.1403,9.8968 36.0023,9.7588 C35.9683,9.7248 35.9283,9.6948 35.8893,9.6658" id="Fill-46" fill="#FFFFFF"></path>
            <path d="M32.8263,8.6712 C32.9693,8.8142 33.1513,8.8882 33.3483,8.8882 C33.5453,8.8882 33.7323,8.8142 33.8703,8.6712 C33.9393,8.6022 33.9933,8.5232 34.0323,8.4352 C34.0673,8.3462 34.0863,8.2472 34.0863,8.1492 C34.0863,8.1042 34.0823,8.0552 34.0723,8.0062 C34.0623,7.9572 34.0523,7.9122 34.0323,7.8682 C34.0133,7.8242 33.9883,7.7802 33.9633,7.7402 C33.9343,7.7012 33.9043,7.6612 33.8703,7.6272 C33.8353,7.5922 33.8013,7.5632 33.7573,7.5382 C33.7173,7.5082 33.6783,7.4892 33.6343,7.4692 C33.5843,7.4502 33.5403,7.4352 33.4953,7.4252 C33.2553,7.3802 32.9983,7.4602 32.8263,7.6272 C32.7913,7.6612 32.7623,7.7012 32.7373,7.7402 C32.7083,7.7802 32.6833,7.8242 32.6683,7.8682 C32.6493,7.9122 32.6343,7.9572 32.6243,8.0062 C32.6143,8.0552 32.6093,8.1042 32.6093,8.1492 C32.6093,8.2472 32.6293,8.3462 32.6683,8.4352 C32.7033,8.5232 32.7573,8.6022 32.8263,8.6712" id="Fill-48" fill="#FFFFFF"></path>
        </g>
    </g>
</svg>