<?xml version="1.0" encoding="UTF-8"?>
<svg width="45px" height="45px" viewBox="0 0 45 45" version="1.1" xmlns="http://www.w3.org/2000/svg" xmlns:xlink="http://www.w3.org/1999/xlink">
    <!-- Generator: Sketch 51.3 (57544) - http://www.bohemiancoding.com/sketch -->
    <title>gen/ic/ic-3</title>
    <desc>Created with Sketch.</desc>
    <defs>
        <polygon id="path-1" points="0 0.425120587 12.6038362 0.425120587 12.6038362 42 0 42"></polygon>
        <polygon id="path-3" points="0.686164008 0.526 18.296 0.526 18.296 42.9141 0.686164008 42.9141"></polygon>
    </defs>
    <g id="gen/ic/ic-3" stroke="none" stroke-width="1" fill="none" fill-rule="evenodd">
        <g id="Group-7" transform="translate(6.000000, 1.000000)">
            <g id="Group-3" transform="translate(0.000000, 1.474500)">
                <mask id="mask-2" fill="white">
                    <use xlink:href="#path-1"></use>
                </mask>
                <g id="Clip-2"></g>
                <path d="M11.0067,39.4395 C10.7347,39.7535 9.2207,40.5225 6.3017,40.5225 C3.3857,40.5225 1.8727,39.7555 1.5977,39.4405 C1.5537,38.6455 1.1917,31.3515 1.9857,22.5795 C3.2977,23.0425 5.2387,23.1135 6.3017,23.1135 C7.3647,23.1135 9.3067,23.0425 10.6177,22.5795 C11.4017,31.2255 11.0597,38.4365 11.0067,39.4395 Z M5.0537,3.3315 C5.3887,2.6455 6.0097,2.1335 6.7147,1.9625 C7.0187,1.8885 7.4117,1.8445 7.5627,2.0465 C7.6877,2.2165 7.8097,2.4235 7.9267,2.6555 C7.9267,2.6565 7.9277,2.6575 7.9277,2.6585 C8.2187,3.2105 8.2147,3.7185 7.9177,4.2105 C7.4217,5.0315 6.2807,5.5365 5.6817,5.5365 C5.0787,5.5365 4.6577,5.3405 4.5227,5.1595 C4.4917,5.1195 4.4247,5.0225 4.4877,4.7875 C4.6317,4.3105 4.8067,3.8475 5.0187,3.4055 L5.0537,3.3315 Z M3.1297,13.3765 C4.1067,13.6475 5.3717,13.7105 6.3017,13.7105 C7.2327,13.7105 8.4967,13.6475 9.4737,13.3765 L9.4737,21.3555 C8.7407,21.5085 7.6747,21.6365 6.3017,21.6365 C4.9297,21.6365 3.8627,21.5085 3.1297,21.3565 L3.1297,13.3765 Z M8.8097,5.4765 C8.9057,6.0255 8.9617,6.5705 8.9617,7.0645 L8.9617,11.9815 C8.3927,12.1125 7.4857,12.2325 6.3017,12.2325 C5.3567,12.2325 4.5907,12.1555 4.0297,12.0585 L4.0297,7.9915 C4.0297,7.5385 4.0567,7.0955 4.1057,6.6625 C4.5467,6.8865 5.0897,7.0135 5.6817,7.0135 C6.6407,7.0135 7.9657,6.4465 8.8097,5.4765 Z M11.9657,21.1625 C11.9427,20.8585 11.7787,20.4595 11.1727,20.1385 C11.1007,20.1015 11.0267,20.0795 10.9507,20.0665 L10.9507,12.0975 C10.9507,11.8465 10.8557,11.5045 10.4387,11.2175 L10.4387,7.0645 C10.4387,5.4055 9.9417,3.3735 9.2427,1.9875 C9.2407,1.9815 9.2387,1.9775 9.2357,1.9715 C9.2347,1.9685 9.2317,1.9655 9.2307,1.9625 C9.0787,1.6645 8.9177,1.3945 8.7497,1.1685 C8.4637,0.7815 7.7757,0.1845 6.3647,0.5275 C5.2217,0.8055 4.2607,1.5915 3.7247,2.6865 L3.6867,2.7665 C3.4487,3.2625 3.2527,3.7805 3.0897,4.3135 C3.0847,4.3245 3.0787,4.3355 3.0747,4.3475 C3.0727,4.3565 3.0727,4.3655 3.0697,4.3745 C2.7287,5.5085 2.5527,6.7175 2.5527,7.9915 L2.5527,11.0125 C1.9577,11.2685 1.6527,11.6315 1.6527,12.0975 L1.6527,20.0365 C1.0267,20.3105 0.6887,20.6795 0.6437,21.1375 C0.6417,21.1475 0.6377,21.1565 0.6367,21.1675 C-0.3763,31.1025 0.1217,39.5185 0.1257,39.5575 C0.1257,40.9495 2.7807,42.0005 6.3017,42.0005 C9.8227,42.0005 12.4777,40.9495 12.4767,39.6025 C12.4817,39.5185 12.9807,31.1025 11.9667,21.1675 C11.9657,21.1655 11.9657,21.1645 11.9657,21.1625 Z" id="Fill-1" fill="#FFFFFF" mask="url(#mask-2)"></path>
            </g>
            <g id="Group-6" transform="translate(15.000000, 0.474500)">
                <mask id="mask-4" fill="white">
                    <use xlink:href="#path-3"></use>
                </mask>
                <g id="Clip-5"></g>
                <path d="M9.4911,41.4361 C7.8991,41.4361 7.4981,40.8011 7.4841,40.6611 L7.7421,24.0111 C8.2721,24.1561 8.8891,24.2201 9.4911,24.2201 C10.0941,24.2201 10.7101,24.1561 11.2401,24.0111 L11.4981,40.6441 C11.4851,40.8011 11.0841,41.4361 9.4911,41.4361 M2.5171,4.6771 C3.3451,2.9021 5.6921,2.0031 9.4911,2.0031 C13.2911,2.0031 15.6371,2.9021 16.4651,4.6771 C17.9451,7.8501 14.4971,13.5411 12.2631,16.5321 C12.5581,15.4821 12.6711,14.3571 12.6711,13.4681 C12.6711,13.0611 12.3411,12.7301 11.9321,12.7301 C11.5251,12.7301 11.1941,13.0601 11.1941,13.4681 C11.1921,14.6301 10.8481,17.8221 9.3951,18.1851 C9.0801,18.0101 8.6701,17.0531 8.5271,16.1051 C8.4661,15.7011 8.0861,15.4241 7.6871,15.4841 C7.2841,15.5441 7.0061,15.9191 7.0661,16.3221 C7.0901,16.4831 7.1501,16.8301 7.2641,17.2391 C5.1141,14.5381 0.9101,8.1231 2.5171,4.6771 M7.7661,22.4481 L7.8121,19.5101 C8.1691,19.6011 8.5621,19.6561 8.9621,19.6811 C9.0121,19.6921 9.0641,19.6991 9.1181,19.6991 C9.1411,19.6991 9.1611,19.6931 9.1841,19.6931 C9.2861,19.6961 9.3891,19.6991 9.4911,19.6991 C10.0671,19.6991 10.6571,19.6421 11.1701,19.5101 L11.2161,22.4481 C10.9911,22.5701 10.3741,22.7431 9.4911,22.7431 C8.6081,22.7431 7.9911,22.5701 7.7661,22.4481 M17.8041,4.0531 C16.7131,1.7121 13.9161,0.5251 9.4911,0.5251 C5.0671,0.5251 2.2701,1.7121 1.1781,4.0541 C-1.1159,8.9761 5.2991,17.1671 6.3511,18.4581 L6.0071,40.6491 C6.0071,41.5591 6.9351,42.9141 9.4911,42.9141 C12.0481,42.9141 12.9761,41.5591 12.9761,40.6381 L12.6311,18.4591 C13.6801,17.1721 20.0991,8.9781 17.8041,4.0531" id="Fill-4" fill="#FFFFFF" mask="url(#mask-4)"></path>
            </g>
        </g>
    </g>
</svg>