<?xml version="1.0" encoding="UTF-8"?>
<svg width="45px" height="45px" viewBox="0 0 45 45" version="1.1" xmlns="http://www.w3.org/2000/svg" xmlns:xlink="http://www.w3.org/1999/xlink">
    <!-- Generator: Sketch 51.3 (57544) - http://www.bohemiancoding.com/sketch -->
    <title>gen/ic/ic-4</title>
    <desc>Created with Sketch.</desc>
    <defs>
        <polygon id="path-1" points="0.0003 0.908 22.656 0.908 22.656 42 0.0003 42"></polygon>
    </defs>
    <g id="gen/ic/ic-4" stroke="none" stroke-width="1" fill="none" fill-rule="evenodd">
        <g id="Group-6" transform="translate(11.000000, 1.000000)">
            <g id="Group-3" transform="translate(0.000000, 0.092500)">
                <mask id="mask-2" fill="white">
                    <use xlink:href="#path-1"></use>
                </mask>
                <g id="Clip-2"></g>
                <path d="M21.1783,39.2233 C21.1783,39.9403 20.5953,40.5223 19.8793,40.5223 L2.7773,40.5223 C2.0603,40.5223 1.4773,39.9403 1.4773,39.2233 L1.4773,22.1213 C1.4773,21.4053 2.0603,20.8223 2.7773,20.8223 L7.0923,20.8223 C6.7723,21.3653 6.3303,21.8353 5.7783,22.1833 C4.5113,22.9803 3.7613,23.8623 3.5203,24.8113 C3.5053,24.8533 3.4933,24.8973 3.4863,24.9433 C3.4513,25.1193 3.4283,25.2973 3.4283,25.4773 C3.4283,26.5763 3.5833,28.8453 3.7473,31.2473 C3.8283,32.4333 3.9123,33.6593 3.9823,34.8043 C4.1083,36.8843 5.6223,38.6083 7.5823,38.9023 C8.6873,39.0663 9.9473,39.1503 11.3273,39.1503 C12.7083,39.1503 13.9693,39.0663 15.0733,38.9023 C17.0323,38.6083 18.5473,36.8843 18.6743,34.8043 C18.7433,33.6593 18.8273,32.4333 18.9083,31.2473 C19.0733,28.8453 19.2283,26.5763 19.2283,25.4773 C19.2283,25.3143 19.2113,25.1533 19.1813,24.9943 C19.1743,24.9083 19.1543,24.8263 19.1203,24.7503 C18.8633,23.8253 18.1173,22.9633 16.8773,22.1833 C16.3253,21.8353 15.8833,21.3653 15.5643,20.8223 L19.8793,20.8223 C20.5953,20.8223 21.1783,21.4053 21.1783,22.1213 L21.1783,39.2233 Z M17.7463,25.7953 C17.7223,26.9373 17.5823,28.9863 17.4343,31.1463 C17.3533,32.3363 17.2693,33.5663 17.1993,34.7143 C17.1153,36.1033 16.1283,37.2503 14.8543,37.4413 C13.8233,37.5953 12.6363,37.6733 11.3273,37.6733 C10.0203,37.6733 8.8333,37.5953 7.8023,37.4413 C6.5273,37.2503 5.5413,36.1033 5.4563,34.7143 C5.3863,33.5663 5.3023,32.3363 5.2213,31.1463 C5.0733,28.9863 4.9333,26.9373 4.9083,25.7953 L17.7463,25.7953 Z M16.0913,23.4333 C16.4673,23.6703 16.8793,23.9723 17.1993,24.3183 L5.4573,24.3183 C5.7763,23.9723 6.1883,23.6703 6.5653,23.4333 C7.5663,22.8033 8.3153,21.8873 8.7383,20.8223 L13.9183,20.8223 C14.3413,21.8873 15.0903,22.8033 16.0913,23.4333 Z M9.1303,18.7563 L9.1303,17.4323 L13.5253,17.4323 L13.5253,18.7563 C13.5253,18.9553 13.5423,19.1503 13.5623,19.3443 L9.0943,19.3443 C9.1143,19.1503 9.1303,18.9553 9.1303,18.7563 Z M7.9863,4.1183 C7.9863,3.1623 8.7633,2.3853 9.7193,2.3853 L12.9363,2.3853 C13.8913,2.3853 14.6693,3.1623 14.6693,4.1183 L14.6693,15.9553 L7.9863,15.9553 L7.9863,4.1183 Z M19.8793,19.3443 L15.0483,19.3443 C15.0203,19.1513 15.0023,18.9553 15.0023,18.7563 L15.0023,17.4323 L15.4083,17.4323 C15.8163,17.4323 16.1463,17.1013 16.1463,16.6933 L16.1463,4.1183 C16.1463,2.3473 14.7063,0.9073 12.9363,0.9073 L9.7193,0.9073 C7.9493,0.9073 6.5093,2.3473 6.5093,4.1183 L6.5093,16.6933 C6.5093,17.1013 6.8403,17.4323 7.2473,17.4323 L7.6533,17.4323 L7.6533,18.7563 C7.6533,18.9553 7.6353,19.1513 7.6083,19.3443 L2.7773,19.3443 C1.2453,19.3443 0.0003,20.5903 0.0003,22.1213 L0.0003,39.2233 C0.0003,40.7543 1.2453,42.0003 2.7773,42.0003 L19.8793,42.0003 C21.4093,42.0003 22.6563,40.7543 22.6563,39.2233 L22.6563,22.1213 C22.6563,20.5903 21.4093,19.3443 19.8793,19.3443 Z" id="Fill-1" fill="#FFFFFF" mask="url(#mask-2)"></path>
            </g>
            <path d="M9.8746,6.6419 C10.2826,6.6419 10.6136,6.3109 10.6136,5.9039 C10.6136,5.7449 10.6356,5.5339 10.7426,5.4319 C10.8386,5.3399 11.0106,5.3269 11.0706,5.3259 C11.4696,5.3529 11.8226,5.0529 11.8556,4.6509 C11.8896,4.2439 11.5876,3.8869 11.1806,3.8529 C11.0996,3.8459 10.3346,3.7999 9.7456,4.3409 C9.4676,4.5969 9.1356,5.0759 9.1356,5.9039 C9.1356,6.3109 9.4666,6.6419 9.8746,6.6419" id="Fill-4" fill="#FFFFFF"></path>
        </g>
    </g>
</svg>