<?xml version="1.0" encoding="UTF-8"?>
<svg width="45px" height="45px" viewBox="0 0 45 45" version="1.1" xmlns="http://www.w3.org/2000/svg" xmlns:xlink="http://www.w3.org/1999/xlink">
    <!-- Generator: Sketch 51.3 (57544) - http://www.bohemiancoding.com/sketch -->
    <title>gen/ic/ic-5</title>
    <desc>Created with Sketch.</desc>
    <defs>
        <polygon id="path-1" points="0.486794437 0.626 8.69680556 0.626 8.69680556 3.1439 0.486794437 3.1439"></polygon>
        <polygon id="path-3" points="0.7855 0.9733 2.2635 0.9733 2.2635 11 0.7855 11"></polygon>
        <polygon id="path-5" points="0.351869343 0.626 8.56216924 0.626 8.56216924 3.1439 0.351869343 3.1439"></polygon>
        <polygon id="path-7" points="0.979831349 0.168384599 11.049 0.168384599 11.049 5.0108 0.979831349 5.0108"></polygon>
    </defs>
    <g id="gen/ic/ic-5" stroke="none" stroke-width="1" fill="none" fill-rule="evenodd">
        <g id="Group-27" transform="translate(5.000000, 15.000000)">
            <g id="Group-3" transform="translate(0.000000, 0.374400)">
                <mask id="mask-2" fill="white">
                    <use xlink:href="#path-1"></use>
                </mask>
                <g id="Clip-2"></g>
                <path d="M0.8013,1.9689 C2.0343,2.8349 3.3143,3.1439 4.4843,3.1439 C6.1593,3.1439 7.6113,2.5109 8.3823,1.9689 C8.7163,1.7349 8.7973,1.2739 8.5623,0.9399 C8.3273,0.6059 7.8673,0.5249 7.5333,0.7599 C7.5043,0.7799 4.5583,2.8009 1.6503,0.7599 C1.3163,0.5259 0.8563,0.6069 0.6213,0.9399 C0.3863,1.2739 0.4673,1.7349 0.8013,1.9689" id="Fill-1" fill="#FFFFFF" mask="url(#mask-2)"></path>
            </g>
            <path d="M9.9141,3.7344 C10.1641,3.4134 10.1051,2.9524 9.7861,2.7014 C9.4641,2.4504 9.0011,2.5074 8.7491,2.8254 C8.6501,2.9514 6.2471,5.9074 0.7391,5.9074 C0.3311,5.9074 0.0001,6.2384 0.0001,6.6464 C0.0001,7.0534 0.3311,7.3844 0.7391,7.3844 C7.0071,7.3844 9.7981,3.8834 9.9141,3.7344" id="Fill-4" fill="#FFFFFF"></path>
            <path d="M11.9947,4.4053 C12.1657,4.0343 12.0037,3.5953 11.6327,3.4263 C11.2617,3.2543 10.8227,3.4173 10.6537,3.7873 C10.6357,3.8243 8.8997,7.4903 3.6137,9.5643 C3.2337,9.7133 3.0467,10.1423 3.1957,10.5223 C3.3097,10.8133 3.5887,10.9903 3.8827,10.9903 C3.9727,10.9903 4.0647,10.9743 4.1527,10.9403 C9.9877,8.6503 11.9157,4.5773 11.9947,4.4053" id="Fill-6" fill="#FFFFFF"></path>
            <path d="M13.3829,4.2417 C12.9819,4.1567 12.5919,4.4107 12.5059,4.8087 C12.4969,4.8507 11.5689,8.9987 7.9269,12.0487 C7.6139,12.3097 7.5729,12.7767 7.8349,13.0887 C7.9809,13.2627 8.1899,13.3537 8.4019,13.3537 C8.5689,13.3537 8.7369,13.2967 8.8749,13.1807 C12.9219,9.7917 13.9109,5.3057 13.9509,5.1167 C14.0349,4.7187 13.7809,4.3267 13.3829,4.2417" id="Fill-8" fill="#FFFFFF"></path>
            <path d="M15.4718,4.9844 C15.0648,4.9144 14.6898,5.1924 14.6248,5.5954 C14.6178,5.6394 13.9128,9.9644 12.5478,13.1984 C12.3888,13.5744 12.5648,14.0074 12.9418,14.1664 C13.0348,14.2054 13.1318,14.2244 13.2278,14.2244 C13.5158,14.2244 13.7898,14.0544 13.9088,13.7724 C15.3448,10.3724 16.0538,6.0144 16.0838,5.8304 C16.1478,5.4274 15.8738,5.0484 15.4718,4.9844" id="Fill-10" fill="#FFFFFF"></path>
            <g id="Group-14" transform="translate(16.000000, 4.374400)">
                <mask id="mask-4" fill="white">
                    <use xlink:href="#path-3"></use>
                </mask>
                <g id="Clip-13"></g>
                <path d="M1.5245,0.9733 C1.1165,0.9733 0.7855,1.3043 0.7855,1.7123 L0.7855,10.2613 C0.7855,10.6693 1.1165,11.0003 1.5245,11.0003 C1.9325,11.0003 2.2635,10.6693 2.2635,10.2613 L2.2635,1.7123 C2.2635,1.3043 1.9325,0.9733 1.5245,0.9733" id="Fill-12" fill="#FFFFFF" mask="url(#mask-4)"></path>
            </g>
            <g id="Group-17" transform="translate(26.000000, 0.374400)">
                <mask id="mask-6" fill="white">
                    <use xlink:href="#path-5"></use>
                </mask>
                <g id="Clip-16"></g>
                <path d="M0.6661,1.9689 C1.4381,2.5109 2.8891,3.1439 4.5641,3.1439 C5.7341,3.1439 7.0141,2.8349 8.2481,1.9689 C8.5821,1.7349 8.6621,1.2739 8.4281,0.9399 C8.1931,0.6059 7.7321,0.5249 7.3981,0.7599 C4.5181,2.7819 1.6441,0.8479 1.5141,0.7589 C1.1811,0.5259 0.7211,0.6069 0.4861,0.9399 C0.2511,1.2739 0.3331,1.7349 0.6661,1.9689" id="Fill-15" fill="#FFFFFF" mask="url(#mask-6)"></path>
            </g>
            <g id="Group-20" transform="translate(24.000000, 2.374400)">
                <mask id="mask-8" fill="white">
                    <use xlink:href="#path-7"></use>
                </mask>
                <g id="Clip-19"></g>
                <path d="M10.3101,3.5328 C4.8031,3.5328 2.4001,0.5788 2.2991,0.4518 C2.0481,0.1318 1.5861,0.0738 1.2651,0.3238 C0.9431,0.5738 0.8851,1.0378 1.1351,1.3598 C1.2501,1.5088 4.0411,5.0108 10.3101,5.0108 C10.7181,5.0108 11.0491,4.6788 11.0491,4.2718 C11.0491,3.8638 10.7181,3.5328 10.3101,3.5328" id="Fill-18" fill="#FFFFFF" mask="url(#mask-8)"></path>
            </g>
            <path d="M31.4356,9.5645 C26.2016,7.5105 24.4226,3.8455 24.3946,3.7855 C24.2236,3.4165 23.7866,3.2555 23.4156,3.4255 C23.0456,3.5955 22.8836,4.0345 23.0536,4.4055 C23.1326,4.5775 25.0616,8.6505 30.8956,10.9395 C30.9846,10.9745 31.0756,10.9905 31.1656,10.9905 C31.4606,10.9905 31.7386,10.8135 31.8536,10.5225 C32.0026,10.1425 31.8156,9.7135 31.4356,9.5645" id="Fill-21" fill="#FFFFFF"></path>
            <path d="M22.543,4.8101 C22.458,4.4111 22.066,4.1601 21.667,4.2411 C21.269,4.3251 21.013,4.7181 21.098,5.1171 C21.138,5.3061 22.127,9.7921 26.174,13.1811 C26.312,13.2961 26.48,13.3531 26.647,13.3531 C26.858,13.3531 27.068,13.2631 27.214,13.0891 C27.476,12.7761 27.435,12.3101 27.122,12.0481 C23.498,9.0131 22.561,4.8901 22.543,4.8101" id="Fill-23" fill="#FFFFFF"></path>
            <path d="M20.4239,5.5957 C20.3589,5.1927 19.9819,4.9147 19.5769,4.9847 C19.1749,5.0487 18.9009,5.4277 18.9649,5.8307 C18.9949,6.0137 19.7049,10.3717 21.1399,13.7727 C21.2589,14.0547 21.5329,14.2237 21.8209,14.2237 C21.9169,14.2237 22.0139,14.2057 22.1079,14.1657 C22.4839,14.0077 22.6599,13.5747 22.5009,13.1987 C21.1359,9.9647 20.4309,5.6387 20.4239,5.5957" id="Fill-25" fill="#FFFFFF"></path>
        </g>
    </g>
</svg>