<?xml version="1.0" encoding="utf-8"?>
<!-- Generator: Adobe Illustrator 23.1.0, SVG Export Plug-In . SVG Version: 6.00 Build 0)  -->
<svg version="1.1" id="Capa_1" xmlns="http://www.w3.org/2000/svg" xmlns:xlink="http://www.w3.org/1999/xlink" x="0px" y="0px"
	 viewBox="0 0 800 800" style="enable-background:new 0 0 800 800;" xml:space="preserve">
<style type="text/css">
	.st0{fill:#606060;}
	.st1{fill:url(#SVGID_1_);}
	.st2{fill:url(#SVGID_2_);}
	.st3{fill:url(#SVGID_3_);}
	.st4{fill:url(#SVGID_4_);}
	.st5{fill:url(#SVGID_5_);}
	.st6{fill:url(#SVGID_6_);}
	.st7{fill:#FFFFFF;}
	.st8{fill:url(#SVGID_7_);}
	.st9{fill:url(#SVGID_8_);}
	.st10{fill:url(#SVGID_9_);}
	.st11{fill:url(#SVGID_10_);}
	.st12{fill:url(#SVGID_11_);}
	.st13{fill:url(#SVGID_12_);}
	.st14{fill:url(#SVGID_13_);}
	.st15{fill:url(#SVGID_14_);}
	.st16{fill:url(#SVGID_15_);}
	.st17{fill:url(#SVGID_16_);}
	.st18{fill:url(#SVGID_17_);}
	.st19{fill:url(#SVGID_18_);}
	.st20{fill:url(#SVGID_19_);}
	.st21{fill:url(#SVGID_20_);}
	.st22{fill:url(#SVGID_21_);}
	.st23{fill:url(#SVGID_22_);}
	.st24{fill:url(#SVGID_23_);}
	.st25{fill:url(#SVGID_24_);}
	.st26{fill:url(#SVGID_25_);}
	.st27{fill:url(#SVGID_26_);}
	.st28{fill:url(#SVGID_27_);}
	.st29{fill:url(#SVGID_28_);}
	.st30{fill:url(#SVGID_29_);}
	.st31{fill:url(#SVGID_30_);}
	.st32{fill:url(#SVGID_31_);}
	.st33{fill:url(#SVGID_32_);}
	.st34{fill:url(#SVGID_33_);}
	.st35{fill:url(#SVGID_34_);}
	.st36{fill:url(#SVGID_35_);}
	.st37{fill:url(#SVGID_36_);}
	.st38{fill:url(#SVGID_37_);}
	.st39{fill:url(#SVGID_38_);}
	.st40{fill:url(#SVGID_39_);}
	.st41{fill:url(#SVGID_40_);}
	.st42{fill:url(#SVGID_41_);}
	.st43{fill:url(#SVGID_42_);}
</style>
<g>
	<path class="st7" d="M694,507.97c-0.37,0.85-0.89,1.67-1.1,2.56c-4.63,19.74-16.61,32.79-35.77,39.24
		c-27.05,9.11-54.95,14.52-83.12,18.59c-69.41,10.01-139.27,11.72-209.23,10.33c-55.07-1.09-109.67-7.26-163.76-17.74
		c-3.74-0.72-6.03,0-8.62,2.64c-12.88,13.14-25.89,26.15-39.01,39.05c-8.8,8.65-19.39,12.85-31.75,10.52
		c-10.85-2.05-17.88-9-21.09-19.42c-3.73-12.08-1.2-23.09,7.41-32.32c7.27-7.78,15.01-15.12,22.53-22.66
		c1.34-1.34,2.59-2.77,4.06-4.36c-10.17-12.62-14.04-26.76-12.47-42.52c2.97-29.78,29.87-50.1,59.23-44.52
		c9.31,1.77,18.59,3.71,27.8,5.94c4.24,1.03,6.99,0.05,10.12-3.09c40-40.25,80.18-80.34,120.31-120.47
		c17.94-17.94,35.9-35.87,53.8-53.85c2.15-2.16,3.96-3.71,7.46-2.54c30.44,10.15,60.95,20.11,91.43,30.14
		c0.52,0.17,0.99,0.52,1.97,1.04c-1,1.25-1.8,2.46-2.8,3.46c-10.94,10.98-21.75,22.09-32.98,32.75c-2.57,2.44-6.57,4.56-10.01,4.74
		c-29.93,1.55-53.71,14.67-74.18,36.12c-25,26.2-51.07,51.37-76.73,76.94c-1.48,1.48-3.46,2.46-5.21,3.67
		c0.34,0.66,0.69,1.33,1.03,1.99c6.79,0.59,13.56,1.32,20.36,1.76c63.09,4.02,126.2,4.25,189.27-0.08
		c43.47-2.98,86.66-8.23,129.22-18.11c28.75-6.67,54.67,10.59,60.74,39.58c0.23,1.09,0.74,2.13,1.11,3.19
		C694,496.35,694,502.16,694,507.97z M642.86,507.46c0.01-16.82-13.85-30.71-30.63-30.7c-16.76,0.01-30.72,13.96-30.72,30.7
		c0,16.77,13.92,30.69,30.69,30.68C629,538.13,642.84,524.28,642.86,507.46z M233.85,507.39c0-16.94-13.79-30.73-30.63-30.64
		c-16.78,0.09-30.46,14.04-30.37,30.95c0.09,16.58,13.79,30.26,30.38,30.33C220.11,538.11,233.85,524.35,233.85,507.39z"/>
	<path class="st7" d="M499.93,170.88c13.26-13.65,26.2-27.78,40.07-40.92c7.47-7.08,19.41-6.14,27.05,1.19
		c12.44,11.92,24.82,23.94,36.51,36.58c10.67,11.53,4.64,25.67-6.24,34.15c-0.7,0.54-2.28,0.38-3.28,0.05
		c-31.39-10.31-62.75-20.69-94.12-31.06C499.75,170.81,499.61,170.65,499.93,170.88z"/>
	<path class="st7" d="M537.51,261.91c-8.56,8.55-16.67,16.79-25,24.79c-0.88,0.85-3.23,0.85-4.62,0.4
		c-31.21-10.16-62.38-20.43-94.65-31.04c5.96-5.96,12.05-11.04,16.87-17.14c6.28-7.93,12.44-9.15,22.21-5.59
		c26.48,9.65,53.49,17.85,80.29,26.65C534.05,260.45,535.43,261.08,537.51,261.91z"/>
	<path class="st7" d="M580.02,219.48c-8.13,8.1-16.13,16.2-24.34,24.09c-0.93,0.9-3.18,1.22-4.5,0.79
		c-31.43-10.13-62.81-20.4-95.28-31c8.85-8.83,17.11-17.15,25.52-25.3c0.7-0.68,2.59-0.68,3.71-0.31
		c31.21,10.19,62.4,20.47,93.58,30.76C579.03,218.61,579.28,218.92,580.02,219.48z"/>
	<path class="st7" d="M612.2,497.4c5.84-0.01,10.2,4.47,10.07,10.34c-0.12,5.61-4.4,9.77-10.04,9.77c-5.84,0-10.23-4.49-10.09-10.33
		C602.27,501.64,606.62,497.4,612.2,497.4z"/>
	<path class="st7" d="M193.21,507.41c0.03-5.63,4.81-10.16,10.56-10.01c5.47,0.15,9.9,4.69,9.88,10.11
		c-0.03,5.67-4.78,10.17-10.56,9.99C197.58,517.35,193.18,512.84,193.21,507.41z"/>
</g>
</svg>
