<?xml version="1.0" encoding="utf-8"?>
<!-- Generator: Adobe Illustrator 23.1.0, SVG Export Plug-In . SVG Version: 6.00 Build 0)  -->
<svg version="1.1" id="Capa_1" xmlns="http://www.w3.org/2000/svg" xmlns:xlink="http://www.w3.org/1999/xlink" x="0px" y="0px"
	 viewBox="0 0 800 800" style="enable-background:new 0 0 800 800;" xml:space="preserve">
<style type="text/css">
	.st0{fill:#606060;}
	.st1{fill:url(#SVGID_1_);}
	.st2{fill:url(#SVGID_2_);}
	.st3{fill:url(#SVGID_3_);}
	.st4{fill:url(#SVGID_4_);}
	.st5{fill:url(#SVGID_5_);}
	.st6{fill:url(#SVGID_6_);}
	.st7{fill:#FFFFFF;}
	.st8{fill:url(#SVGID_7_);}
	.st9{fill:url(#SVGID_8_);}
	.st10{fill:url(#SVGID_9_);}
	.st11{fill:url(#SVGID_10_);}
	.st12{fill:url(#SVGID_11_);}
	.st13{fill:url(#SVGID_12_);}
	.st14{fill:url(#SVGID_13_);}
	.st15{fill:url(#SVGID_14_);}
	.st16{fill:url(#SVGID_15_);}
	.st17{fill:url(#SVGID_16_);}
	.st18{fill:url(#SVGID_17_);}
	.st19{fill:url(#SVGID_18_);}
	.st20{fill:url(#SVGID_19_);}
	.st21{fill:url(#SVGID_20_);}
	.st22{fill:url(#SVGID_21_);}
	.st23{fill:url(#SVGID_22_);}
	.st24{fill:url(#SVGID_23_);}
	.st25{fill:url(#SVGID_24_);}
	.st26{fill:url(#SVGID_25_);}
	.st27{fill:url(#SVGID_26_);}
	.st28{fill:url(#SVGID_27_);}
	.st29{fill:url(#SVGID_28_);}
	.st30{fill:url(#SVGID_29_);}
	.st31{fill:url(#SVGID_30_);}
	.st32{fill:url(#SVGID_31_);}
	.st33{fill:url(#SVGID_32_);}
	.st34{fill:url(#SVGID_33_);}
	.st35{fill:url(#SVGID_34_);}
	.st36{fill:url(#SVGID_35_);}
	.st37{fill:url(#SVGID_36_);}
	.st38{fill:url(#SVGID_37_);}
	.st39{fill:url(#SVGID_38_);}
	.st40{fill:url(#SVGID_39_);}
	.st41{fill:url(#SVGID_40_);}
	.st42{fill:url(#SVGID_41_);}
	.st43{fill:url(#SVGID_42_);}
</style>
<g>
	<linearGradient id="SVGID_1_" gradientUnits="userSpaceOnUse" x1="410.8739" y1="671" x2="410.8739" y2="129.3771">
		<stop  offset="0" style="stop-color:#EC4CFF"/>
		<stop  offset="0.505" style="stop-color:#9F399F"/>
		<stop  offset="1" style="stop-color:#660682"/>
	</linearGradient>
	<path class="st1" d="M319.44,671c-9.36-3.38-19.34-5.69-27.95-10.38c-17.96-9.77-29.48-25.47-37.52-43.71
		c-0.64-1.45-1.23-2.92-2.05-4.87c-1.36,1.12-2.53,2.07-3.68,3.04c-8.83,7.47-19.04,11.19-30.75,10.67
		c-5.81-0.26-9.39-3.61-9.48-8.73c-0.09-5.08,3.4-8.62,9.11-9.24c19.95-2.17,28.28-11.29,27.75-30.96
		c-0.76-28.31,6.41-54.12,25.12-76.16c15.01-17.67,34.11-27.75,58-28.38c1.6-0.04,3.8-1.2,4.65-2.5
		c18.15-27.74,36.19-55.53,54.01-83.47c0.95-1.48,0.35-4.68-0.65-6.47c-23.73-42.28-47.61-84.48-71.46-126.69
		c-9.92-17.56-19.76-35.17-29.82-52.66c-2.42-4.2-3.25-8.17-2.34-13.05c2.97-15.75,5.41-31.6,8.06-47.4
		c0.09-0.52,0.25-1.03,0.33-1.55c0.66-4.65,2.99-8.02,7.91-8.84c4.69-0.78,7.75,1.72,10.16,5.45c14.91,23.07,29.89,46.1,44.84,69.15
		c24.1,37.18,48.2,74.36,72.3,111.54c0.96,1.48,1.97,2.92,3.24,4.78c1.3-1.83,2.45-3.33,3.47-4.91
		c38.66-59.63,77.28-119.29,116.05-178.86c1.82-2.79,4.61-5.67,7.63-6.87c5.25-2.1,10.31,2.07,11.47,8.73
		c2.65,15.27,4.86,30.63,7.93,45.82c1.43,7.08-0.03,12.83-3.54,19c-33.16,58.3-66.03,116.76-99.21,175.05c-2.42,4.25-2,7,0.52,10.84
		c16.93,25.78,33.69,51.66,50.3,77.64c2.41,3.78,4.86,5.38,9.67,5.62c25.8,1.29,45.16,14.01,59.85,34.09
		c30.04,41.07,26.4,103.85-7.94,139.58c-12.2,12.69-26.71,21.29-44.57,23.9c-0.68,0.1-1.31,0.53-1.96,0.8c-5.41,0-10.81,0-16.22,0
		c-0.66-0.27-1.29-0.69-1.98-0.79c-17.84-2.64-32.39-11.18-44.6-23.87c-30.35-31.56-37.31-85.13-16.13-125.93
		c2.06-3.98,1.89-6.82-0.32-10.58c-8.41-14.36-16.45-28.92-24.64-43.4c-1.8-3.17-3.67-6.3-5.82-9.98
		c-10.89,19.27-21.48,37.87-31.81,56.61c-0.78,1.41-0.27,4.04,0.55,5.66c14.79,29.24,17.06,59.52,6.65,90.31
		c-9.11,26.94-25.87,47.79-54.01,58.07c-4.49,1.64-9.22,2.62-13.84,3.91C330.97,671,325.21,671,319.44,671z M384.86,497.33
		c-0.04,0.06,0.6-0.78,1.11-1.68c56.74-100.42,113.47-200.85,170.18-301.29c0.68-1.21,1.74-2.65,1.57-3.84
		c-1.24-8.59-2.75-17.14-4.42-27.22c-68.14,105.12-135.35,208.82-201.91,311.51C362.65,482.39,373.53,489.71,384.86,497.33z
		 M595.31,570.59c-0.25-20.73-6.12-40.71-20.27-57.85c-24.5-29.67-64.15-29.56-88.71,0.08c-26.3,31.75-26.86,83.9-1.26,116.24
		c25.31,31.97,66.88,31.77,91.74-0.58C589.7,611.71,595.17,592.48,595.31,570.59z M392.29,575.71c0.1-22.4-4.66-39.5-14.26-54.89
		c-23.62-37.88-69.08-40.63-96.38-5.83c-25.27,32.22-24.42,84.44,1.87,115.8c24.46,29.17,62.77,29.68,87.65,0.94
		C386,614.58,392.01,594.25,392.29,575.71z M399.7,366.54c5.72-8.84,10.74-16.98,16.19-24.84c2.08-2.99,1.86-5.02-0.06-7.97
		c-35.95-55.27-71.78-110.62-107.65-165.94c-0.7-1.07-1.59-2.03-2.97-3.77c-1.38,7.83-2.96,14.7-3.67,21.66
		c-0.33,3.24,0.17,7.1,1.74,9.91c23.66,42.32,47.55,84.52,71.39,126.74C382.84,336.79,391.03,351.23,399.7,366.54z M459.98,401.98
		c-3.22,5.7-6,10.55-8.71,15.45c-3.69,6.64-10.23,13.34-10.18,19.97c0.05,6.85,6.43,13.71,10.21,20.48
		c7.58,13.57,15.27,27.08,22.3,39.53c11.24-7.56,22.26-14.98,33.59-22.6C492.03,451.42,476.26,427.1,459.98,401.98z"/>
	<linearGradient id="SVGID_2_" gradientUnits="userSpaceOnUse" x1="429.2219" y1="400.2147" x2="429.2219" y2="373.1931">
		<stop  offset="0" style="stop-color:#EC4CFF"/>
		<stop  offset="0.505" style="stop-color:#9F399F"/>
		<stop  offset="1" style="stop-color:#660682"/>
	</linearGradient>
	<path class="st2" d="M438.42,387.03c0.02,8.95-3.09,13.32-9.35,13.18c-6.02-0.14-9.04-4.49-9.05-13.04c0-1.76-0.1-3.53,0.07-5.27
		c0.47-5.08,4.28-8.66,9.11-8.7c5.05-0.04,8.89,3.72,9.21,9.09C438.5,383.86,438.42,385.45,438.42,387.03z"/>
	<linearGradient id="SVGID_3_" gradientUnits="userSpaceOnUse" x1="530.8157" y1="634.9973" x2="530.8157" y2="508.6394">
		<stop  offset="0" style="stop-color:#EC4CFF"/>
		<stop  offset="0.505" style="stop-color:#9F399F"/>
		<stop  offset="1" style="stop-color:#660682"/>
	</linearGradient>
	<path class="st3" d="M576.89,572.59c-0.55,18.36-5.5,35.88-19.33,49.99c-16.2,16.53-37.55,16.6-53.63-0.1
		c-16.59-17.22-21.04-38.37-18.55-61.21c1.48-13.54,6.36-25.94,15.11-36.72c17.11-21.08,43-21.26,60.21-0.33
		C572.13,538.13,576.58,554.34,576.89,572.59z M503.09,571.62c0.21,13.41,3.43,25.86,12.26,36.39c9.74,11.62,20.93,11.58,30.76,0.14
		c16.3-18.97,16.35-53.64,0.09-72.73c-9.94-11.68-21.35-11.62-31.12,0.32C506.5,546.21,503.31,558.47,503.09,571.62z"/>
	<linearGradient id="SVGID_4_" gradientUnits="userSpaceOnUse" x1="327.7954" y1="634.9128" x2="327.7954" y2="508.6057">
		<stop  offset="0" style="stop-color:#EC4CFF"/>
		<stop  offset="0.505" style="stop-color:#9F399F"/>
		<stop  offset="1" style="stop-color:#660682"/>
	</linearGradient>
	<path class="st4" d="M373.84,573.68c-0.38,17.36-5.43,34.85-19.29,48.93c-16.36,16.64-37.83,16.3-54.07-0.48
		c-24.63-25.45-25.02-74.07-0.8-100.01c17.52-18.76,41.65-17.95,58.11,2.13C369.17,538.15,373.75,554.35,373.84,573.68z
		 M355.35,571.64c0.08-11.53-2.65-22.35-9.02-32.1c-11.17-17.1-26.15-17.09-37.13,0.18c-9.08,14.29-11.09,29.89-7.39,46.21
		c2.3,10.17,6.53,19.41,14.89,26.26c7.74,6.34,15.31,6.27,22.7-0.47c3.11-2.84,5.86-6.24,8.05-9.82
		C353.14,592.65,355.45,582.41,355.35,571.64z"/>
</g>
</svg>
