<?xml version="1.0" encoding="utf-8"?>
<!-- Generator: Adobe Illustrator 23.1.0, SVG Export Plug-In . SVG Version: 6.00 Build 0)  -->
<svg version="1.1" id="Capa_1" xmlns="http://www.w3.org/2000/svg" xmlns:xlink="http://www.w3.org/1999/xlink" x="0px" y="0px"
	 viewBox="0 0 800 800" style="enable-background:new 0 0 800 800;" xml:space="preserve">
<style type="text/css">
	.st0{fill:#606060;}
	.st1{fill:url(#SVGID_1_);}
	.st2{fill:url(#SVGID_2_);}
	.st3{fill:url(#SVGID_3_);}
	.st4{fill:url(#SVGID_4_);}
	.st5{fill:url(#SVGID_5_);}
	.st6{fill:url(#SVGID_6_);}
	.st7{fill:#FFFFFF;}
	.st8{fill:url(#SVGID_7_);}
	.st9{fill:url(#SVGID_8_);}
	.st10{fill:url(#SVGID_9_);}
	.st11{fill:url(#SVGID_10_);}
	.st12{fill:url(#SVGID_11_);}
	.st13{fill:url(#SVGID_12_);}
	.st14{fill:url(#SVGID_13_);}
	.st15{fill:url(#SVGID_14_);}
	.st16{fill:url(#SVGID_15_);}
	.st17{fill:url(#SVGID_16_);}
	.st18{fill:url(#SVGID_17_);}
	.st19{fill:url(#SVGID_18_);}
	.st20{fill:url(#SVGID_19_);}
	.st21{fill:url(#SVGID_20_);}
	.st22{fill:url(#SVGID_21_);}
	.st23{fill:url(#SVGID_22_);}
	.st24{fill:url(#SVGID_23_);}
	.st25{fill:url(#SVGID_24_);}
	.st26{fill:url(#SVGID_25_);}
	.st27{fill:url(#SVGID_26_);}
	.st28{fill:url(#SVGID_27_);}
	.st29{fill:url(#SVGID_28_);}
	.st30{fill:url(#SVGID_29_);}
	.st31{fill:url(#SVGID_30_);}
	.st32{fill:url(#SVGID_31_);}
	.st33{fill:url(#SVGID_32_);}
	.st34{fill:url(#SVGID_33_);}
	.st35{fill:url(#SVGID_34_);}
	.st36{fill:url(#SVGID_35_);}
	.st37{fill:url(#SVGID_36_);}
	.st38{fill:url(#SVGID_37_);}
	.st39{fill:url(#SVGID_38_);}
	.st40{fill:url(#SVGID_39_);}
	.st41{fill:url(#SVGID_40_);}
	.st42{fill:url(#SVGID_41_);}
	.st43{fill:url(#SVGID_42_);}
</style>
<g>
	<path class="st7" d="M593.7,132.43c10.75,3.71,14.96,11.39,14.58,22.54c-0.4,12.01-0.42,24.07,0.08,36.08
		c0.18,4.27,1.6,8.92,3.79,12.6c5.11,8.57,8.5,17.46,8.97,27.48c0.78,16.71,1.76,33.42,2.55,50.13c0.46,9.83-1.5,19.43-7.02,27.42
		c-9.18,13.27-10.88,27.52-10.72,43.32c0.42,42.13-7.88,83.16-20.12,123.28c-6.54,21.44-14.88,42.32-22.42,63.45
		c-0.58,1.62-1.25,3.21-2,5.11c5.57,2.77,11.02,5.39,16.39,8.17c16.68,8.64,27.58,22.01,32.63,40.11
		c3.79,13.58,7.57,27.16,11.29,40.75c5.49,20.07-6.07,35.1-27.01,35.11c-26.32,0.02-52.65,0.11-78.97-0.15
		c-2.94-0.03-6.56-1.48-8.54-3.55c-1.41-1.47-1.6-5.68-0.48-7.57c1.25-2.11,4.53-4.07,7.03-4.21c8.66-0.51,17.37-0.19,26.84-0.19
		c0-7.22,0-14.11,0-21c0-5.06-0.05-10.11,0.01-15.17c0.08-6.59,2.91-10.05,8.06-9.97c4.98,0.08,7.57,3.33,7.6,9.76
		c0.05,11.83,0.01,23.67,0.01,35.81c1.41,0.21,2.55,0.52,3.69,0.52c12.03,0.04,24.06,0.09,36.09,0c8.86-0.07,13.07-5.59,10.75-14.2
		c-3.9-14.45-7.86-28.88-12.02-43.26c-3.73-12.87-11.79-22.39-23.66-28.54c-29.38-15.24-60.53-25.6-92.61-33.32
		c-0.83-0.2-1.69-0.31-3.07-0.56c0,2.12,0.04,4.01-0.01,5.89c-0.16,6.98-2.14,13.35-6.34,19.01
		c-10.45,14.09-22.51,26.59-36.67,36.99c-12.11,8.89-25.86,8.98-37.62-0.45c-8.14-6.52-16.24-13.3-23.23-20.99
		c-15.61-17.18-19.14-19.94-20.03-41.75c-21.68,7.13-43.08,13.78-64.19,21.28c-10.29,3.65-20.16,8.61-29.99,13.45
		c-12.68,6.24-21.07,16.31-24.89,30.03c-3.92,14.08-7.89,28.15-11.7,42.26c-2.32,8.61,1.89,14.11,10.78,14.17
		c13.04,0.09,26.07,0.02,39.75,0.02c0-10.33,0-20.22,0-30.1c0-2.61-0.08-5.23,0.04-7.84c0.23-5.12,3.07-8.12,7.59-8.18
		c4.5-0.06,7.64,2.87,7.97,7.9c0.26,3.82,0.09,7.67,0.09,11.5c0.01,8.69,0,17.38,0,26.72c2.42,0,4.45,0,6.48,0
		c59.62,0,119.24,0,178.86,0c1.57,0,3.15-0.09,4.7,0.06c4.44,0.43,7.6,3.78,7.55,7.87c-0.06,4.1-3.24,7.3-7.73,7.71
		c-1.04,0.09-2.09,0.04-3.14,0.04c-80.54,0-161.08,0.01-241.62-0.01c-13.66,0-23.73-6.85-26.68-18.92
		c-1.04-4.23-1.11-9.14-0.06-13.35c3.82-15.36,8.1-30.62,12.57-45.81c4.92-16.71,15.43-29.04,30.74-37.25
		c5.66-3.04,11.47-5.78,17.41-8.75c-3.88-9.97-7.86-19.77-11.53-29.68c-15.98-43.12-27.43-87.38-31.59-133.25
		c-1.43-15.75-0.84-31.67-1.32-47.52c-0.08-2.5-0.45-5.22-1.53-7.43c-2.99-6.09-6.32-12.02-9.72-17.89
		c-7.32-12.64-7.13-26.33-5.61-40.15c0.46-4.17,3.58-6.51,7.66-6.47c4.36,0.04,7.22,2.67,7.68,7.07c0.31,2.92,0.12,5.94-0.26,8.87
		c-1.14,8.82,0.83,16.92,5.05,24.64c8.26,15.13,16.43,30.31,24.67,45.44c2.96,5.43,6.88,7.29,11.37,5.55
		c4.82-1.86,7.01-6.86,5.04-12.68c-4.4-13.02-8.93-26-13.62-38.93c-3.04-8.37-3.62-16.5,0.19-24.85c1.94-4.25,3.01-8.89,4.56-13.33
		c4.49-12.86,18.02-15.95,27.88-6.39c4.88,4.73,9.48,9.81,14.74,14.07c5.25,4.25,11.1,7.77,16.82,11.4
		c1.72,1.09,3.81,1.81,5.82,2.19c4.65,0.88,8.28-0.88,10.31-5.19c1.97-4.16-0.49-6.82-3.48-9.35c-7.83-6.63-15.87-13.05-23.24-20.17
		c-6.47-6.24-10.78-13.96-12.59-23.04c-0.66-3.31-2.21-6.72-4.23-9.42c-3.14-4.18-4.11-8.59-4.05-13.66
		c0.18-16.04,0.14-32.08,0.16-48.11c0.01-6.37-1.04-7.48-7.14-7.5c-12.55-0.04-25.1,0.12-37.65-0.09c-4.15-0.07-5.49,1.44-5.43,5.48
		c0.17,12.9-0.04,25.8,0.1,38.7c0.07,6.67-1.52,12.72-5.25,18.26c-4.34,6.43-7.44,13.25-7.85,21.26c-0.27,5.27-4.05,8.05-8.77,7.54
		c-4.42-0.48-6.87-3.64-6.69-8.94c0.32-9.67,3.87-18.2,8.72-26.47c2.18-3.71,3.77-8.29,3.95-12.55c0.51-11.66,0.52-23.37-0.01-35.02
		c-0.5-11.1,3.21-19.24,13.61-23.86c17.43,0,34.87,0,52.3,0c12.13,4.51,17.03,13.36,15.88,26.05c-0.37,4.06-0.06,8.18-0.06,13.19
		c2.38-1.64,3.92-2.64,5.4-3.73c18.98-13.96,39.82-24.13,62.69-29.74c10.24-2.51,20.76-3.88,31.15-5.77c9.07,0,18.13,0,27.2,0
		c1.86,0.34,3.73,0.67,5.58,1.03c10.23,2.02,20.51,3.81,30.65,6.18c4.46,1.04,6.62,5.39,5.37,9.31c-1.34,4.21-4.38,6.15-8.82,5.59
		c-1.37-0.17-2.71-0.62-4.06-0.95c-56.69-13.7-107.21-1.37-151.69,36.11c-1.56,1.31-3.18,3.5-3.3,5.37
		c-0.38,5.99-0.78,11.97,3.32,17.44c2.3,3.08,2.87,7.4,4.51,11.03c2.12,4.7,3.61,10.15,6.99,13.73
		c7.58,8.03,16.17,15.11,24.48,22.69c11.01-10.28,19.54-20.96,26.68-32.82c4.78-7.95,11.71-8.86,18.01-2.31
		c26.91,28,58.79,48.88,93.53,65.71c1.61,0.78,3.29,1.42,5.74,2.46c-9.51-17.46-7.41-26.66,7.82-37.96
		c3.63-2.7,7.24-5.45,10.64-8.43c8.12-7.1,14.83-15.02,16.93-26.21c0.74-3.96,3.16-7.69,5.21-11.3c3.51-6.19,2.4-16.46-3.15-20.54
		c-9.52-7-19.32-13.62-29.1-20.25c-4.53-3.07-6.08-6.91-3.92-10.98c2.24-4.24,6.87-5.51,11.69-2.6c7.29,4.4,14.36,9.19,21.51,13.82
		c1.33,0.86,2.65,1.75,4.68,3.09c0.1-15.93-3.64-32.45,15.76-39.23C559.53,132.43,576.62,132.43,593.7,132.43z M378.63,240.92
		c-9.55,10.58-18.91,20.85-28.08,31.29c-1.08,1.23-1.36,3.42-1.46,5.2c-0.79,13.86-14.24,25.81-27.61,22.65
		c-8.53-2.01-15.85-1.06-23.51,1.97c-1.93,0.76-3.99,1.5-6.03,1.64c-4.01,0.29-5.05,2.17-5.02,6.06c0.17,24.4,0.14,48.8,0.06,73.2
		c-0.04,14.08,2.26,27.72,7.13,40.93c24.21,65.8,103.22,98.95,169.49,71.35c44.19-18.4,78.49-61.37,77.05-115.61
		c-0.4-15.15-0.19-30.32,0.02-45.48c0.05-3.78-1.13-5.11-4.82-6.35c-19.43-6.53-39.14-12.54-57.93-20.63
		C440.68,291.1,407.15,269.07,378.63,240.92z M592.5,175.17c0-7.32-0.13-14.65,0.05-21.96c0.1-3.85-1.37-5.21-5.22-5.15
		c-12.55,0.17-25.1,0.04-37.65,0.07c-6.22,0.02-7.33,1.12-7.35,7.3c-0.03,14.99-0.17,29.99,0.06,44.97c0.1,6.77-0.19,13.11-5,18.6
		c-1.63,1.86-2.53,4.63-3.05,7.13c-2.24,10.85-7.96,19.68-15.81,27.11c-5.8,5.49-12.15,10.42-18.36,15.47
		c-4.13,3.36-6.43,8.6-4.77,11.6c2.35,4.26,7.78,5.68,13.37,3.21c2.85-1.26,5.81-2.62,8.18-4.59c8.81-7.34,17.55-14.77,26.02-22.5
		c9.66-8.81,22.91-5.84,27.31,6.44c1.82,5.08,3.26,10.3,5.29,15.29c3.07,7.53,2.79,14.82,0.02,22.37
		c-4.79,13.07-9.32,26.23-13.83,39.4c-2.05,5.97-0.25,10.83,4.45,12.96c4.51,2.05,8.82,0.14,11.85-5.44
		c8.56-15.76,17.39-31.38,25.42-47.41c2.63-5.26,4.43-11.63,4.34-17.45c-0.25-17.59-1.31-35.18-2.74-52.72
		c-0.42-5.19-2.08-10.88-4.97-15.13c-6.01-8.84-8.46-18.14-7.64-28.61C592.74,182.51,592.5,178.83,592.5,175.17z M270.64,367.45
		c-5.78,0.46-11.98,2.25-17.55,1.05c-5.69-1.23-10.74-5.38-16.11-8.28c3.29,61.4,19.46,120.3,43.42,176.71
		c24.35-7.42,47.86-14.6,71.49-21.8c0.57-7.72,0.5-7.6-6.05-11.21c-39.5-21.74-65.2-53.83-72.57-98.95
		C271.21,392.34,271.41,379.34,270.64,367.45z M475.69,515.09c24.12,7.37,47.64,14.56,71.54,21.86
		c23.89-56.75,40.14-115.49,43.45-178.92c-10.08,11.96-21.21,14.13-34.37,7.72c0,4.5-0.02,8.45,0,12.39
		c0.28,56.91-25.37,98.51-74.81,125.7C475.99,506.86,474.33,510.02,475.69,515.09z M367.81,513.32c0,8-0.49,15.49,0.18,22.87
		c0.41,4.45,1.45,9.8,4.24,12.91c9.97,11.08,20.44,21.77,31.46,31.8c6.84,6.22,12.9,5.56,20.32,0.06
		c12.25-9.09,22.77-19.94,31.78-32.21c1.79-2.43,3.46-5.56,3.62-8.46c0.47-8.79,0.17-17.62,0.17-26.96
		C428.93,522.85,398.6,522.75,367.81,513.32z M554.95,266.65c-14.81,15.51-29.52,29.48-50.52,35.53c16.2,4.81,32.4,9.61,48.82,14.49
		c2.98-8.59,5.77-16.43,8.37-24.33c0.52-1.58,0.79-3.55,0.32-5.08C559.9,280.66,557.53,274.16,554.95,266.65z M271.46,305.12
		c-1.65-17.3,12.81-14.48,21.93-18.25c-7.04-6.72-13.72-13.09-20.79-19.84C268.22,279.73,260.96,291.65,271.46,305.12z"/>
	<path class="st7" d="M394.85,451.17c-0.03-13.68,6.1-21.82,17.38-23.13c10.91-1.27,20.83,6.94,21.49,17.91
		c0.21,3.47,0.18,6.96,0.04,10.44c-0.41,10.68-9.24,19.11-19.71,18.93c-10.36-0.18-18.77-8.45-19.2-18.92
		C394.78,454.66,394.85,452.91,394.85,451.17z M410.52,451.64c-0.01,0-0.01,0-0.02,0c0,0.87-0.32,1.92,0.06,2.57
		c1.08,1.86,2.45,3.56,3.7,5.32c1.29-1.73,3.06-3.29,3.72-5.24c0.64-1.87,0.65-4.32-0.02-6.16c-0.63-1.73-2.52-2.99-3.86-4.46
		c-1.19,1.43-2.63,2.74-3.49,4.35C410.11,448.99,410.52,450.42,410.52,451.64z"/>
	<path class="st7" d="M437.51,387.88c0.01,15.38-6.76,24.81-19.57,27.3c-11.76,2.28-24.2-5.24-26.81-16.95
		c-1.15-5.17-1.04-10.72-0.78-16.06c0.21-4.51,4.04-7.48,8.16-7c4.37,0.51,6.91,3.08,7.16,7.55c0.17,3.12-0.05,6.27,0.21,9.39
		c0.39,4.6,3.04,7.37,7.65,7.78c4.18,0.38,7.72-3.02,8.18-7.77c0.27-2.76,0.05-5.56,0.16-8.34c0.21-5.38,3.16-8.64,7.71-8.66
		c4.54-0.01,7.56,3.23,7.92,8.58C437.59,385.09,437.51,386.49,437.51,387.88z"/>
	<path class="st7" d="M348.77,370.88c-9.07-0.16-19.28-3.54-28.22-10.54c-4.28-3.35-5.19-7.61-2.57-11.34
		c2.73-3.89,7.28-4.34,11.93-1.18c14.62,9.94,27.11,9.91,41.97-0.1c4.41-2.97,8.88-2.6,11.59,0.97c2.75,3.62,1.96,8.04-2.06,11.46
		C373.78,366.63,361.84,370.85,348.77,370.88z"/>
	<path class="st7" d="M476.82,370.92c-11.2-0.25-21.28-3.5-30.09-10.38c-4.55-3.56-5.51-7.87-2.73-11.7
		c2.75-3.79,7.3-4.14,11.97-0.92c14.15,9.77,27.27,9.77,41.55,0c4.7-3.22,9.17-2.87,11.97,0.94c2.81,3.81,1.82,8.17-2.72,11.71
		C497.95,367.44,487.85,370.64,476.82,370.92z"/>
</g>
</svg>
