<?xml version="1.0" encoding="utf-8"?>
<!-- Generator: Adobe Illustrator 23.1.0, SVG Export Plug-In . SVG Version: 6.00 Build 0)  -->
<svg version="1.1" id="Capa_1" xmlns="http://www.w3.org/2000/svg" xmlns:xlink="http://www.w3.org/1999/xlink" x="0px" y="0px"
	 viewBox="0 0 800 800" style="enable-background:new 0 0 800 800;" xml:space="preserve">
<style type="text/css">
	.st0{fill:#606060;}
	.st1{fill:url(#SVGID_1_);}
	.st2{fill:url(#SVGID_2_);}
	.st3{fill:url(#SVGID_3_);}
	.st4{fill:url(#SVGID_4_);}
	.st5{fill:url(#SVGID_5_);}
	.st6{fill:url(#SVGID_6_);}
	.st7{fill:#FFFFFF;}
	.st8{fill:url(#SVGID_7_);}
	.st9{fill:url(#SVGID_8_);}
	.st10{fill:url(#SVGID_9_);}
	.st11{fill:url(#SVGID_10_);}
	.st12{fill:url(#SVGID_11_);}
	.st13{fill:url(#SVGID_12_);}
	.st14{fill:url(#SVGID_13_);}
	.st15{fill:url(#SVGID_14_);}
	.st16{fill:url(#SVGID_15_);}
	.st17{fill:url(#SVGID_16_);}
	.st18{fill:url(#SVGID_17_);}
	.st19{fill:url(#SVGID_18_);}
	.st20{fill:url(#SVGID_19_);}
	.st21{fill:url(#SVGID_20_);}
	.st22{fill:url(#SVGID_21_);}
	.st23{fill:url(#SVGID_22_);}
	.st24{fill:url(#SVGID_23_);}
	.st25{fill:url(#SVGID_24_);}
	.st26{fill:url(#SVGID_25_);}
	.st27{fill:url(#SVGID_26_);}
	.st28{fill:url(#SVGID_27_);}
	.st29{fill:url(#SVGID_28_);}
	.st30{fill:url(#SVGID_29_);}
	.st31{fill:url(#SVGID_30_);}
	.st32{fill:url(#SVGID_31_);}
	.st33{fill:url(#SVGID_32_);}
	.st34{fill:url(#SVGID_33_);}
	.st35{fill:url(#SVGID_34_);}
	.st36{fill:url(#SVGID_35_);}
	.st37{fill:url(#SVGID_36_);}
	.st38{fill:url(#SVGID_37_);}
	.st39{fill:url(#SVGID_38_);}
	.st40{fill:url(#SVGID_39_);}
	.st41{fill:url(#SVGID_40_);}
	.st42{fill:url(#SVGID_41_);}
	.st43{fill:url(#SVGID_42_);}
</style>
<g>
	<path class="st7" d="M673,625.03c-15.8,12.36-33.59,19.28-52.35,23.68c-45.94,10.76-91.4,9.56-136.1-6.52
		c-0.32-0.12-0.7-0.15-0.97-0.34c-11.43-7.97-22.48-5.81-35.15-1.53c-39.7,13.43-80.88,16.98-122.65,14.57
		c-34.01-1.96-67.16-7.98-98.7-21.18c-22.22-9.3-42.6-21.41-57.39-41.13c-8.66-11.54-13.19-24.48-12.89-39.05
		c0.25-12.43-0.7-24.96,0.62-37.26c2.32-21.53,15.52-36.73,31.97-49.45c16.44-12.71,35.12-21.1,54.68-27.69
		c1.77-0.59,3.53-1.18,5.91-1.98c-1.22-1.31-2.02-2.31-2.96-3.17c-69.99-64.03-63.56-175.72,13.4-230.9
		c3.17-2.27,4.4-4.56,4.32-8.44c-0.14-6.53-0.23-13.2,0.88-19.59c3.32-19.06,19.97-33.22,39.35-33.4c28.33-0.27,56.66-0.29,84.99,0
		c22.15,0.22,39.92,18.25,40.48,40.39c0.15,5.86-1.53,12.53,0.74,17.36c2.16,4.6,8.47,7.19,12.82,10.83
		c68.05,56.99,70.57,162.1,5.35,222.61c-1.26,1.17-2.49,2.35-3.6,3.4c13.52,6.02,27.14,11.62,40.32,18.09
		c13.25,6.51,24.8,15.57,35.13,26.83c4.56-9.44,9.08-17.9,9.03-28.82c-0.41-92.05-0.25-184.1-0.22-276.15
		c0.01-20.1,14.74-35,33.98-34.61c17,0.34,31.3,14.11,32.26,31.1c0.13,2.24,0.08,4.49,0.08,6.73c0,92.74-0.02,185.49,0.1,278.23
		c0,3.47,0.85,7.21,2.33,10.35c23.8,50.55,47.77,101.02,71.69,151.51C671.27,621.2,672.04,622.93,673,625.03z M350.29,473.13
		c-27,0.11-51.01,2.36-74.57,8.36c-21.38,5.45-41.94,12.85-59.29,27.07c-12.89,10.56-13.3,18.74,0.15,28.54
		c10.21,7.43,21.38,14.33,33.15,18.7c57.66,21.42,116.47,21.81,175.64,6.88c19.18-4.84,37.34-12.42,52.92-25.06
		c13.34-10.82,13.71-19.03-0.15-29.24c-9.35-6.89-19.67-12.9-30.35-17.45C415.85,477.33,381.97,473.44,350.29,473.13z
		 M651.52,619.05c-0.14-0.66-0.15-1.03-0.29-1.33c-22.35-47.22-44.69-94.44-67.21-141.58c-0.7-1.46-3.31-2.79-5.06-2.84
		c-10.18-0.27-20.38,0.02-30.56-0.21c-3.59-0.08-5.42,1-6.99,4.35c-21.49,45.72-43.16,91.35-64.78,137.01
		c-0.71,1.5-1.28,3.06-1.89,4.53C520.59,645.87,607.53,645.26,651.52,619.05z M480.24,323.98c0.02-72.99-59.39-132.53-132.38-132.68
		c-73.22-0.15-132.95,59.41-132.98,132.59c-0.03,72.97,59.4,132.54,132.37,132.7C420.45,456.76,480.22,397.15,480.24,323.98z
		 M579.75,423.19c0-2.09,0-3.79,0-5.49c0-79.95,0-159.9,0-239.85c0-1.38,0.05-2.77-0.05-4.14c-0.56-7.87-6.62-14.39-14.32-15.46
		c-7.7-1.06-15.35,3.56-17.77,11.16c-0.86,2.72-0.99,5.76-0.99,8.66c-0.05,79.78-0.04,159.55-0.04,239.33c0,1.85,0,3.7,0,5.79
		C557.74,423.19,568.38,423.19,579.75,423.19z M288.42,461.34c-6.41-3.52-12.53-7.06-18.83-10.21c-1.63-0.81-4.09-1.1-5.76-0.5
		c-14.41,5.2-29.04,9.95-42.98,16.23c-14.74,6.63-27.78,16.12-37.67,29.27c-13.05,17.35-13.14,36.23,0.02,53.47
		c3.74,4.9,8.15,9.43,12.87,13.41c16.1,13.56,34.95,22.05,54.81,28.35c47.75,15.16,96.52,17.86,145.93,10.95
		c25.75-3.6,50.71-10.19,74.24-21.54c1.66-0.8,3.79-1.71,4.53-3.17c4.18-8.23,8-16.64,11.94-24.98
		c-15.12,10.42-31.36,17.76-48.51,23.19c-39.75,12.58-80.51,15.7-121.84,12.1c-27.81-2.42-54.95-8.13-80.64-19.42
		c-14.47-6.36-28.2-13.96-38.5-26.4c-10.77-13.01-10.7-25.34,0.03-38.36c1.53-1.86,3.2-3.63,4.97-5.27
		c14.24-13.18,31.42-21.16,49.56-27.1C264.34,467.49,276.42,464.65,288.42,461.34z M463.83,602.61
		c-10.94,3.34-20.85,6.79-30.99,9.39c-44.54,11.43-89.68,13.09-135.13,7.07c-27.83-3.69-54.8-10.68-80.26-22.85
		c-15.35-7.34-29.37-16.59-42.27-29.79c0.72,2.47,0.95,3.62,1.38,4.68c3.96,9.65,10.44,17.43,18.32,24.07
		c20.39,17.18,44.52,26.7,69.89,33.42c40.53,10.73,81.71,12.8,123.26,8.03c21.47-2.46,42.56-6.89,62.89-14.37
		c2.06-0.76,4.35-2.29,5.39-4.12C459.06,613.37,461.16,608.25,463.83,602.61z M413.6,190.12c2.76-20.4-10.87-32.85-29.28-32.21
		c-25.35,0.89-50.76,0.2-76.14,0.23c-18.4,0.02-29.58,13.46-26.32,31.86C325.62,169.61,369.43,169.56,413.6,190.12z M406.22,461.66
		c1.66,0.45,2.81,0.75,3.96,1.08c13.41,3.78,27.17,6.65,40.15,11.56c22.11,8.36,43.24,18.64,54.4,41.99c2.37-4.99,4.5-9.88,7-14.58
		c1.33-2.49,1.33-4.43-0.65-6.44c-4.1-4.17-7.82-8.81-12.29-12.53c-20.04-16.7-43.76-25.81-68.63-32.36
		c-1.33-0.35-3.12-0.13-4.34,0.51C419.43,454.24,413.16,457.81,406.22,461.66z M546.7,456.17c10.9,0,21.77,0,32.71,0
		c0-5.39,0-10.62,0-15.76c-11.1,0-21.85,0-32.71,0C546.7,445.78,546.7,450.76,546.7,456.17z"/>
	<path class="st7" d="M571.94,508.95c5.47-1.7,10.36-3.23,15.82-4.93c11.04,35.88,22.02,71.54,33.15,107.71
		c-5.33,1.67-10.35,3.24-15.82,4.96C594.02,580.7,583.09,545.19,571.94,508.95z"/>
	<path class="st7" d="M554.57,508.71c-11.11,36.12-22.08,71.78-33.14,107.74c-5.37-1.65-10.26-3.16-15.82-4.87
		c11-35.78,21.9-71.27,33.11-107.75C543.94,505.43,549.04,507,554.57,508.71z"/>
	<path class="st7" d="M555.09,622.14c0-24.74,0-49.17,0-73.98c5.28,0,10.52,0,16.06,0c0,24.58,0,49.14,0,73.98
		C565.9,622.14,560.79,622.14,555.09,622.14z"/>
	<path class="st7" d="M463.65,323.86c0.04,63.9-51.99,116.06-115.89,116.15c-64.14,0.1-116.38-52.13-116.3-116.25
		c0.08-63.9,52.2-115.9,116.15-115.88C411.54,207.9,463.61,259.95,463.65,323.86z M447.07,323.96c0-54.83-44.66-99.49-99.5-99.49
		c-54.84,0-99.51,44.65-99.52,99.47c-0.01,54.8,44.68,99.5,99.49,99.5C402.37,423.44,447.06,378.77,447.07,323.96z"/>
	<path class="st7" d="M318.06,254.26c2.91-2.73,6.65-6.24,9.84-9.23c32.69,32.7,65.68,65.7,98.83,98.86
		c-2.97,2.65-6.8,6.07-10.04,8.97C384.24,320.42,351.24,287.42,318.06,254.26z"/>
	<path class="st7" d="M268.12,304.72c3.39-3.6,6.92-7.34,10.13-10.74c33.11,33.1,66.04,66.03,99.15,99.13
		c-3.39,3.27-7.16,6.93-10.61,10.25C333.95,370.53,301.02,337.61,268.12,304.72z"/>
</g>
</svg>
