<?xml version="1.0" encoding="utf-8"?>
<!-- Generator: Adobe Illustrator 23.1.0, SVG Export Plug-In . SVG Version: 6.00 Build 0)  -->
<svg version="1.1" id="Capa_1" xmlns="http://www.w3.org/2000/svg" xmlns:xlink="http://www.w3.org/1999/xlink" x="0px" y="0px"
	 viewBox="0 0 800 800" style="enable-background:new 0 0 800 800;" xml:space="preserve">
<style type="text/css">
	.st0{fill:#606060;}
	.st1{fill:url(#SVGID_1_);}
	.st2{fill:url(#SVGID_2_);}
	.st3{fill:url(#SVGID_3_);}
	.st4{fill:url(#SVGID_4_);}
	.st5{fill:url(#SVGID_5_);}
	.st6{fill:url(#SVGID_6_);}
	.st7{fill:#FFFFFF;}
	.st8{fill:url(#SVGID_7_);}
	.st9{fill:url(#SVGID_8_);}
	.st10{fill:url(#SVGID_9_);}
	.st11{fill:url(#SVGID_10_);}
	.st12{fill:url(#SVGID_11_);}
	.st13{fill:url(#SVGID_12_);}
	.st14{fill:url(#SVGID_13_);}
	.st15{fill:url(#SVGID_14_);}
	.st16{fill:url(#SVGID_15_);}
	.st17{fill:url(#SVGID_16_);}
	.st18{fill:url(#SVGID_17_);}
	.st19{fill:url(#SVGID_18_);}
	.st20{fill:url(#SVGID_19_);}
	.st21{fill:url(#SVGID_20_);}
	.st22{fill:url(#SVGID_21_);}
	.st23{fill:url(#SVGID_22_);}
	.st24{fill:url(#SVGID_23_);}
	.st25{fill:url(#SVGID_24_);}
	.st26{fill:url(#SVGID_25_);}
	.st27{fill:url(#SVGID_26_);}
	.st28{fill:url(#SVGID_27_);}
	.st29{fill:url(#SVGID_28_);}
	.st30{fill:url(#SVGID_29_);}
	.st31{fill:url(#SVGID_30_);}
	.st32{fill:url(#SVGID_31_);}
	.st33{fill:url(#SVGID_32_);}
	.st34{fill:url(#SVGID_33_);}
	.st35{fill:url(#SVGID_34_);}
	.st36{fill:url(#SVGID_35_);}
	.st37{fill:url(#SVGID_36_);}
	.st38{fill:url(#SVGID_37_);}
	.st39{fill:url(#SVGID_38_);}
	.st40{fill:url(#SVGID_39_);}
	.st41{fill:url(#SVGID_40_);}
	.st42{fill:url(#SVGID_41_);}
	.st43{fill:url(#SVGID_42_);}
</style>
<g>
	<path class="st7" d="M647.93,637.67c0-8.82-6.43-16.35-15.13-17.73l-78.5-12.44c-7.5-1.19-14.48-4.69-19.91-10l-64.58-63.04
		c-10.35-10.1-25.27-14.09-39.33-10.78c-95.06,22.4-169.6,26.46-242.29,2.57c-10.82-3.55-22.32,3.87-22.56,15.27L164.39,600
		c-0.27,12.85,10.05,23.4,22.88,23.4h243.18l-11.78-9.15c-5.1-3.96-6.03-11.31-2.07-16.42c3.96-5.1,11.3-6.03,16.4-2.07l39.3,30.51
		c2.68,1.22,5.2,2.81,7.46,4.75l7.83,6.73c11.42,9.82,26.06,15.25,41.11,15.25h103.9C641.07,653,647.93,646.13,647.93,637.67z"/>
	<path class="st7" d="M340.71,461.48l4.52,1.24l78.4,21.49c6.31,1.74,13.18-1.17,16.2-7.26c3.43-6.92,0.62-15.31-6.29-18.75
		l-66.74-33.22l-62.2-72.27c-0.63-0.73-1.31-1.4-2.02-2.02c-3.54-3.96-7.92-7.2-12.96-9.36c-11.38-4.9-24.55,0.44-29.33,11.88
		l-53.2,127.35c-4.89,11.72,0.9,25.35,13.11,28.81c26.95,7.63,49.83,9.34,79.22,7.1c13.02-0.99,22.4-12.66,21.42-25.69l-4.32-57.38
		l19.96,23.19L340.71,461.48z"/>
	<path class="st7" d="M286.23,150.77c-15.12-8.92-38.68,3.04-52.62,26.72c-13.94,23.68-12.99,50.1,2.13,59.02
		c6.39,3.77,14.28,3.77,22.32,0.78c-0.6,3.96-0.91,8.01-0.91,12.13c0,44.41,35.97,80.41,80.33,80.41c44.37,0,80.33-36,80.33-80.41
		c0-44.41-35.97-80.41-80.33-80.41c-14.31,0-27.73,3.76-39.36,10.32C298.84,166.62,294.84,155.85,286.23,150.77z"/>
	<path class="st7" d="M489.77,485.77c0,42.82,34.68,77.54,77.46,77.54c42.78,0,77.46-34.72,77.46-77.54
		c0-42.82-34.68-77.54-77.46-77.54C524.45,408.23,489.77,442.95,489.77,485.77z"/>
</g>
</svg>
