<?xml version="1.0" encoding="utf-8"?>
<!-- Generator: Adobe Illustrator 23.1.0, SVG Export Plug-In . SVG Version: 6.00 Build 0)  -->
<svg version="1.1" id="Capa_1" xmlns="http://www.w3.org/2000/svg" xmlns:xlink="http://www.w3.org/1999/xlink" x="0px" y="0px"
	 viewBox="0 0 800 800" style="enable-background:new 0 0 800 800;" xml:space="preserve">
<style type="text/css">
	.st0{fill:#606060;}
	.st1{fill:url(#SVGID_1_);}
	.st2{fill:url(#SVGID_2_);}
	.st3{fill:url(#SVGID_3_);}
	.st4{fill:url(#SVGID_4_);}
	.st5{fill:url(#SVGID_5_);}
	.st6{fill:url(#SVGID_6_);}
	.st7{fill:#FFFFFF;}
	.st8{fill:url(#SVGID_7_);}
	.st9{fill:url(#SVGID_8_);}
	.st10{fill:url(#SVGID_9_);}
	.st11{fill:url(#SVGID_10_);}
	.st12{fill:url(#SVGID_11_);}
	.st13{fill:url(#SVGID_12_);}
	.st14{fill:url(#SVGID_13_);}
	.st15{fill:url(#SVGID_14_);}
	.st16{fill:url(#SVGID_15_);}
	.st17{fill:url(#SVGID_16_);}
	.st18{fill:url(#SVGID_17_);}
	.st19{fill:url(#SVGID_18_);}
	.st20{fill:url(#SVGID_19_);}
	.st21{fill:url(#SVGID_20_);}
	.st22{fill:url(#SVGID_21_);}
	.st23{fill:url(#SVGID_22_);}
	.st24{fill:url(#SVGID_23_);}
	.st25{fill:url(#SVGID_24_);}
	.st26{fill:url(#SVGID_25_);}
	.st27{fill:url(#SVGID_26_);}
	.st28{fill:url(#SVGID_27_);}
	.st29{fill:url(#SVGID_28_);}
	.st30{fill:url(#SVGID_29_);}
	.st31{fill:url(#SVGID_30_);}
	.st32{fill:url(#SVGID_31_);}
	.st33{fill:url(#SVGID_32_);}
	.st34{fill:url(#SVGID_33_);}
	.st35{fill:url(#SVGID_34_);}
	.st36{fill:url(#SVGID_35_);}
	.st37{fill:url(#SVGID_36_);}
	.st38{fill:url(#SVGID_37_);}
	.st39{fill:url(#SVGID_38_);}
	.st40{fill:url(#SVGID_39_);}
	.st41{fill:url(#SVGID_40_);}
	.st42{fill:url(#SVGID_41_);}
	.st43{fill:url(#SVGID_42_);}
</style>
<g>
	<path class="st7" d="M403.84,124.8c3.56,0.76,7.13,1.45,10.66,2.28c37.63,8.91,65.01,42.04,65.4,80.8
		c0.52,51,0.46,102.01,0.04,153.02c-0.27,32.68-24.9,59.38-57.65,61.97c-18.04,1.42-36.39,1.49-54.43,0.05
		c-34.03-2.72-58.12-29.84-58.25-64.02c-0.16-41.01-0.12-82.01,0.01-123.02c0.04-12.98-0.61-26.14,1.21-38.91
		c5.32-37.44,34.78-65.93,72.2-71.29c0.96-0.14,1.87-0.58,2.8-0.87C391.84,124.8,397.84,124.8,403.84,124.8z"/>
	<path class="st7" d="M586.87,124.8c5.63,2.51,7.89,6.76,8.19,12.99c0.72,14.8,12.25,26.97,26.91,29.19c1.97,0.3,3.97,0.44,5.95,0.7
		c5.58,0.72,9.54,5.02,9.6,10.37c0.06,5.5-4.13,9.86-9.86,10.77c-4.72,0.75-9.73,1.16-13.99,3.09
		c-11.98,5.42-18.06,15.22-18.81,28.35c-0.33,5.82-3.05,9.47-7.96,10.76c-4.74,1.25-8.66-0.26-11.34-4.2
		c-1.14-1.68-1.67-3.98-1.9-6.06c-2.12-19.79-12.5-30.07-32.45-31.95c-6.08-0.57-10.4-5.06-10.34-10.76
		c0.06-5.73,4.17-9.79,10.57-10.45c16.34-1.67,26.85-9.64,30.76-23.42c0.59-2.07,1.2-4.26,1.13-6.36c-0.22-6,2.56-10.08,7.51-12.99
		C582.87,124.8,584.87,124.8,586.87,124.8z"/>
	<path class="st7" d="M543.87,636.73c-99.53,0-198.5,0-298.07,0c-0.08-1.82-0.23-3.56-0.23-5.31
		c-0.01-96.34,0.06-192.68-0.04-289.02c-0.04-37.81,11.8-71.25,35.88-100.36c1.76-2.13,3.72-4.11,6.66-7.33c0,3.29,0,5.18,0,7.08
		c0,38.84-0.44,77.68,0.13,116.51c0.55,37.4,18.28,64.36,52.48,79.7c7.6,3.41,16.25,5.83,24.52,6.16c20.28,0.8,40.82,1.89,60.9-0.35
		c44.57-4.96,75.29-40.77,75.47-85.69c0.16-39.17,0.03-78.34,0.04-117.51c0-1.74,0-3.49,0-6.5c9.47,9.45,16.5,19.01,22.47,29.37
		c13.43,23.31,20.06,48.43,20.05,75.35c-0.04,97.84-0.01,195.68-0.02,293.52C544.1,633.67,543.97,634.97,543.87,636.73z
		 M458.71,530.5c-42.88,0-85.25,0-127.56,0c0,7.15,0,13.91,0,20.72c42.69,0,85.06,0,127.56,0
		C458.71,544.19,458.71,537.54,458.71,530.5z M331,593.75c42.83,0,85.18,0,127.52,0c0-7.11,0-13.84,0-20.54
		c-42.69,0-85.04,0-127.52,0C331,580.16,331,586.77,331,593.75z"/>
	<path class="st7" d="M245.48,263.44c0.02,5.68-4.17,10.1-10.47,10.56c-7.68,0.55-14.75,2.56-20.69,7.66
		c-7.51,6.44-11.2,14.64-11.57,24.52c-0.21,5.6-3.91,9.66-8.96,10.51c-4.44,0.75-9.2-1.65-11.1-5.91c-0.72-1.62-0.97-3.51-1.15-5.3
		c-1.9-18.7-12.8-29.6-31.48-31.38c-7.09-0.68-11.37-4.81-11.23-10.85c0.13-6.03,4.6-10.04,11.67-10.46
		c16.36-0.98,28.42-12.11,30.66-28.28c0.16-1.15,0.27-2.32,0.38-3.48c0.68-6.68,4.88-10.97,10.7-10.9
		c6.03,0.07,10.15,4.59,10.58,11.6c0.75,12.51,6.53,22.02,17.76,27.51c4.34,2.12,9.5,2.79,14.38,3.51
		C241.09,253.65,245.45,257.73,245.48,263.44z"/>
</g>
</svg>
