<?xml version="1.0" encoding="UTF-8"?>
<svg width="50px" height="32px" viewBox="0 0 50 32" version="1.1" xmlns="http://www.w3.org/2000/svg" xmlns:xlink="http://www.w3.org/1999/xlink">
    <!-- Generator: Sketch 49 (51002) - http://www.bohemiancoding.com/sketch -->
    <title>ic/otros/img placeholder</title>
    <desc>Created with Sketch.</desc>
    <defs></defs>
    <g id="Page-1" stroke="none" stroke-width="1" fill="none" fill-rule="evenodd">
        <g id="agregar-tratamiento" transform="translate(-53.000000, -602.000000)" fill="#2d939c">
            <g id="ic/otros/img-placeholder" transform="translate(49.000000, 589.000000)">
                <path fill="gray" d="M41.3637387,19.3333333 C42.8527813,19.3333333 44.0608107,20.5312343 44.0608107,22.009 C44.0608107,23.4867658 42.8527813,24.6846667 41.3637387,24.6846667 C39.8741508,24.6846667 38.6666667,23.4867658 38.6666667,22.009 C38.6666667,20.5312343 39.8741508,19.3333333 41.3637387,19.3333333 Z" id="Fill-1" fill-rule="evenodd"></path>
                <path fill="gray" d="M4.83333333,41.0773562 L4.83333333,16.9226438 C4.83333333,14.9170449 6.45736566,13.2916667 8.46178822,13.2916667 L49.5382118,13.2916667 C51.5378889,13.2916667 53.1666667,14.9192566 53.1666667,16.9226438 L53.1666667,41.0773562 C53.1666667,43.0829551 51.5426343,44.7083333 49.5382118,44.7083333 L8.46178822,44.7083333 C6.4621111,44.7083333 4.83333333,43.0807434 4.83333333,41.0773562 Z M7.25,41.0773562 C7.25,41.7456604 7.79640474,42.2916667 8.46178822,42.2916667 L49.5382118,42.2916667 C50.2074978,42.2916667 50.75,41.7487149 50.75,41.0773562 L50.75,16.9226438 C50.75,16.2543396 50.2035953,15.7083333 49.5382118,15.7083333 L8.46178822,15.7083333 C7.79250216,15.7083333 7.25,16.2512851 7.25,16.9226438 L7.25,41.0773562 Z" id="Stroke-3" fill-rule="nonzero"></path>
                <polygon fill="gray" id="Stroke-5" fill-rule="nonzero" points="32.7333823 36.0691723 37.0101279 32.4793387 51.1795296 44.4238691 52.7371371 42.5761309 37.0134533 29.3213708 32.7333823 32.9139956 24.7514405 26.2140783 5.26481033 42.5708516 6.81852301 44.4218661 24.7514405 29.369255"></polygon>
            </g>
        </g>
    </g>
</svg>