<?xml version="1.0" encoding="UTF-8"?>
<svg width="24px" height="24px" viewBox="0 0 24 24" version="1.1" xmlns="http://www.w3.org/2000/svg" xmlns:xlink="http://www.w3.org/1999/xlink">
    <!-- Generator: Sketch 51.3 (57544) - http://www.bohemiancoding.com/sketch -->
    <title>Tab bar/ic/Mi cuenta-activo</title>
    <desc>Created with Sketch.</desc>
    <defs>
        <path d="M15.4309431,13 L15.9954721,21.4679559 C16.0842844,22.8508903 14.9312259,24 13.4965,24 C12.1214328,24 10.9965,22.9373472 10.9965,21.62 L10.9976074,21.4667405 L11.5620568,13 L10.4961,13 C10.2035758,13 9.97352915,12.7499802 9.99782798,12.458467 L10.6658134,4.44464199 C10.8743159,1.93257692 12.9748402,0 15.4961,0 C15.7722424,0 15.9961,0.223857625 15.9961,0.5 L15.9961,12.5 C15.9961,12.7761424 15.7722424,13 15.4961,13 L15.4309431,13 Z M12.5642188,13 L11.9965,21.5 L11.9965,21.62 C11.9965,22.3719261 12.6613841,23 13.4965,23 C14.368647,23 15.0483022,22.3226724 14.9976074,21.5332595 L14.4287235,13 L12.5642188,13 Z M5.07130438,8.62836931 L5.87381549,21.4724386 C5.95990394,22.8422577 4.8723711,23.9998 3.4998,23.9998 C2.1272289,23.9998 1.03969606,22.8422577 1.12577312,21.4726203 L1.92830781,8.62817413 C0.78456644,8.05245208 0,6.8679302 0,5.5 L0,0.5 C0,0.223857625 0.223857625,0 0.5,0 C0.776142375,0 1,0.223857625 1,0.5 L1,5.5 C1,6.53889625 1.63347852,7.42965139 2.53528913,7.80711901 C2.59849069,7.81800565 2.65735433,7.84063057 2.70972787,7.87255474 C2.9581093,7.95523157 3.22382003,8 3.5,8 C3.77585413,8 4.0412637,7.95533714 4.28939291,7.87284722 C4.34207352,7.84065447 4.40133716,7.81787703 4.46498858,7.80700275 C5.36665153,7.42946852 6,6.5387896 6,5.5 L6,0.5 C6,0.223857625 6.22385763,0 6.5,0 C6.77614237,0 7,0.223857625 7,0.5 L7,5.5 C7,6.8680848 6.21525621,8.05271982 5.07130438,8.62836931 Z M4.08948641,8.95058005 C3.89784528,8.9830775 3.70090063,9 3.5,9 C3.29896106,9 3.10188355,8.98305419 2.91011778,8.95051291 L2.12381549,21.5351614 C2.07392148,22.3290632 2.70409138,22.9998 3.4998,22.9998 C4.29550862,22.9998 4.92567852,22.3290632 4.87577312,21.5349797 L4.08948641,8.95058005 Z M2,0.5 C2,0.223857625 2.22385763,0 2.5,0 C2.77614237,0 3,0.223857625 3,0.5 L3,4.5 C3,4.77614237 2.77614237,5 2.5,5 C2.22385763,5 2,4.77614237 2,4.5 L2,0.5 Z M4,0.5 C4,0.223857625 4.22385763,0 4.5,0 C4.77614237,0 5,0.223857625 5,0.5 L5,4.5 C5,4.77614237 4.77614237,5 4.5,5 C4.22385763,5 4,4.77614237 4,4.5 L4,0.5 Z M14.9961,12 L14.9961,1.03228185 C13.2236404,1.26280842 11.813852,2.70248313 11.662372,4.52753303 L11.039511,12 L14.9961,12 Z" id="path-1"></path>
    </defs>
    <g id="Tab-bar/ic/Mi-cuenta-activo" stroke="none" stroke-width="1" fill="none" fill-rule="evenodd">
        <g id="bg/fill/Amarillo" transform="translate(4.000000, 0.000000)">
            <mask id="mask-2" fill="white">
                <use xlink:href="#path-1"></use>
            </mask>
            <use id="Mask" fill="#F5A623" fill-rule="nonzero" xlink:href="#path-1"></use>
            <g mask="url(#mask-2)" fill="#F5A623" id="Rectangle">
                <g transform="translate(-5.000000, 0.000000)">
                    <rect x="0" y="0" width="25" height="25"></rect>
                </g>
            </g>
        </g>
    </g>
</svg>