<?xml version="1.0" encoding="UTF-8"?>
<svg width="70px" height="45px" viewBox="0 0 70 45" version="1.1" xmlns="http://www.w3.org/2000/svg" xmlns:xlink="http://www.w3.org/1999/xlink">
    <!-- Generator: Sketch 49 (51002) - http://www.bohemiancoding.com/sketch -->
    <title>ic/pago/mastercard</title>
    <desc>Created with Sketch.</desc>
    <defs>
        <polygon id="path-1" points="0.0348 0.334 0.892 0.334 0.892 1 0.0348 1"></polygon>
        <polygon id="path-3" points="0 0.002 19.9227 0.002 19.9227 24.594 0 24.594"></polygon>
    </defs>
    <g id="ic/pago/mastercard" stroke="none" stroke-width="1" fill="none" fill-rule="evenodd">
        <g id="Page-1" transform="translate(15.000000, 6.000000)">
            <path d="M6.8358,28.8241 C6.7228,28.7101 6.5868,28.6201 6.4298,28.5571 C6.2718,28.4931 6.0998,28.4621 5.9138,28.4621 C5.8148,28.4621 5.7118,28.4701 5.6048,28.4871 C5.4968,28.5041 5.3948,28.5341 5.2918,28.5781 C5.1898,28.6201 5.0928,28.6801 4.9998,28.7561 C4.9078,28.8331 4.8268,28.9281 4.7588,29.0441 C4.6498,28.8621 4.4998,28.7201 4.3138,28.6161 C4.1258,28.5131 3.9108,28.4621 3.6678,28.4621 C3.5878,28.4621 3.5028,28.4701 3.4158,28.4841 C3.3298,28.4991 3.2418,28.5241 3.1568,28.5611 C3.0718,28.5971 2.9898,28.6461 2.9128,28.7091 C2.8348,28.7711 2.7638,28.8501 2.6998,28.9451 L2.6998,28.5471 L2.0128,28.5471 L2.0128,31.8101 L2.7058,31.8101 L2.7058,30.0011 C2.7058,29.8631 2.7278,29.7401 2.7728,29.6321 C2.8158,29.5241 2.8748,29.4331 2.9468,29.3611 C3.0228,29.2881 3.1068,29.2331 3.2058,29.1961 C3.3048,29.1581 3.4118,29.1391 3.5238,29.1391 C3.7548,29.1391 3.9378,29.2131 4.0648,29.3611 C4.1938,29.5091 4.2588,29.7191 4.2588,29.9941 L4.2588,31.8101 L4.9498,31.8101 L4.9498,30.0011 C4.9498,29.8631 4.9738,29.7401 5.0158,29.6321 C5.0608,29.5241 5.1188,29.4331 5.1928,29.3611 C5.2668,29.2881 5.3528,29.2331 5.4518,29.1961 C5.5508,29.1581 5.6558,29.1391 5.7688,29.1391 C6.0018,29.1391 6.1818,29.2131 6.3098,29.3611 C6.4378,29.5091 6.5018,29.7191 6.5018,29.9941 L6.5018,31.8101 L7.1948,31.8101 L7.1948,29.7601 C7.1948,29.5681 7.1648,29.3941 7.1018,29.2351 C7.0388,29.0761 6.9488,28.9391 6.8358,28.8241" id="Fill-1" fill="#000000"></path>
            <path d="M10.4588,30.5942 C10.4108,30.7212 10.3448,30.8312 10.2578,30.9242 C10.1718,31.0172 10.0678,31.0912 9.9478,31.1432 C9.8278,31.1972 9.6938,31.2242 9.5458,31.2242 C9.3928,31.2242 9.2528,31.1962 9.1328,31.1402 C9.0108,31.0842 8.9088,31.0102 8.8248,30.9152 C8.7398,30.8212 8.6758,30.7112 8.6308,30.5842 C8.5848,30.4572 8.5628,30.3212 8.5628,30.1772 C8.5628,30.0352 8.5848,29.9002 8.6308,29.7722 C8.6758,29.6452 8.7398,29.5352 8.8248,29.4412 C8.9088,29.3472 9.0108,29.2722 9.1328,29.2162 C9.2528,29.1602 9.3928,29.1332 9.5458,29.1332 C9.6938,29.1332 9.8278,29.1592 9.9478,29.2132 C10.0678,29.2662 10.1718,29.3392 10.2578,29.4322 C10.3448,29.5252 10.4108,29.6352 10.4588,29.7622 C10.5078,29.8892 10.5298,30.0282 10.5298,30.1772 C10.5298,30.3282 10.5078,30.4672 10.4588,30.5942 Z M10.4858,28.9422 C10.3728,28.7972 10.2318,28.6802 10.0638,28.5922 C9.8958,28.5062 9.6948,28.4622 9.4608,28.4622 C9.2308,28.4622 9.0188,28.5042 8.8208,28.5892 C8.6238,28.6752 8.4508,28.7932 8.3038,28.9462 C8.1538,29.0972 8.0398,29.2792 7.9558,29.4892 C7.8718,29.6992 7.8278,29.9282 7.8278,30.1772 C7.8278,30.4282 7.8718,30.6582 7.9558,30.8682 C8.0398,31.0782 8.1538,31.2592 8.3038,31.4112 C8.4508,31.5632 8.6238,31.6822 8.8208,31.7672 C9.0188,31.8522 9.2308,31.8952 9.4608,31.8952 C9.6948,31.8952 9.8958,31.8512 10.0638,31.7652 C10.2318,31.6782 10.3728,31.5632 10.4858,31.4182 L10.4858,31.8102 L11.1978,31.8102 L11.1978,28.5472 L10.4858,28.5472 L10.4858,28.9422 Z" id="Fill-3" fill="#000000"></path>
            <path d="M14.4695,30.1733 C14.2695,30.0173 13.9915,29.9133 13.6355,29.8613 L13.2975,29.8103 C13.2235,29.7983 13.1535,29.7853 13.0875,29.7713 C13.0215,29.7563 12.9645,29.7363 12.9165,29.7113 C12.8695,29.6863 12.8315,29.6543 12.8025,29.6163 C12.7745,29.5773 12.7605,29.5303 12.7605,29.4733 C12.7605,29.3573 12.8135,29.2643 12.9225,29.1923 C13.0305,29.1213 13.1815,29.0853 13.3765,29.0853 C13.4785,29.0853 13.5795,29.0933 13.6785,29.1123 C13.7755,29.1303 13.8705,29.1533 13.9585,29.1803 C14.0475,29.2073 14.1285,29.2373 14.1995,29.2703 C14.2735,29.3033 14.3345,29.3353 14.3855,29.3643 L14.6915,28.8093 C14.5205,28.7003 14.3225,28.6153 14.0955,28.5553 C13.8675,28.4943 13.6265,28.4653 13.3695,28.4653 C13.1605,28.4653 12.9725,28.4893 12.8065,28.5383 C12.6425,28.5883 12.5005,28.6563 12.3845,28.7463 C12.2665,28.8363 12.1775,28.9453 12.1155,29.0753 C12.0525,29.2043 12.0215,29.3493 12.0215,29.5103 C12.0215,29.7743 12.1155,29.9873 12.3025,30.1493 C12.4885,30.3123 12.7655,30.4183 13.1285,30.4673 L13.4685,30.5113 C13.6635,30.5393 13.8075,30.5833 13.8985,30.6433 C13.9885,30.7033 14.0335,30.7793 14.0335,30.8733 C14.0335,30.9963 13.9705,31.0933 13.8465,31.1643 C13.7215,31.2353 13.5365,31.2713 13.2905,31.2713 C13.1575,31.2713 13.0365,31.2623 12.9325,31.2443 C12.8265,31.2263 12.7305,31.2013 12.6435,31.1713 C12.5545,31.1403 12.4775,31.1053 12.4075,31.0653 C12.3385,31.0263 12.2745,30.9833 12.2155,30.9383 L11.8845,31.4723 C12.0015,31.5613 12.1275,31.6323 12.2565,31.6873 C12.3865,31.7413 12.5135,31.7843 12.6375,31.8143 C12.7625,31.8453 12.8805,31.8653 12.9915,31.8753 C13.1025,31.8853 13.2005,31.8913 13.2845,31.8913 C13.5175,31.8913 13.7285,31.8653 13.9125,31.8133 C14.0985,31.7613 14.2535,31.6873 14.3795,31.5933 C14.5055,31.4993 14.6025,31.3863 14.6685,31.2563 C14.7365,31.1253 14.7695,30.9823 14.7695,30.8253 C14.7695,30.5463 14.6695,30.3293 14.4695,30.1733" id="Fill-5" fill="#000000"></path>
            <path d="M19.1443,29.8988 C19.1613,29.7808 19.1933,29.6728 19.2393,29.5738 C19.2853,29.4748 19.3433,29.3898 19.4153,29.3178 C19.4853,29.2468 19.5713,29.1908 19.6693,29.1528 C19.7683,29.1148 19.8813,29.0948 20.0083,29.0948 C20.2363,29.0948 20.4193,29.1658 20.5633,29.3058 C20.7063,29.4468 20.7973,29.6448 20.8363,29.8988 L19.1443,29.8988 Z M21.1333,28.9378 C20.9993,28.7858 20.8363,28.6698 20.6463,28.5868 C20.4563,28.5028 20.2493,28.4618 20.0223,28.4618 C19.7823,28.4618 19.5613,28.5028 19.3633,28.5868 C19.1643,28.6698 18.9953,28.7858 18.8513,28.9378 C18.7083,29.0878 18.5963,29.2688 18.5163,29.4798 C18.4373,29.6908 18.3983,29.9238 18.3983,30.1778 C18.3983,30.4368 18.4393,30.6718 18.5193,30.8838 C18.6023,31.0948 18.7163,31.2748 18.8653,31.4248 C19.0123,31.5748 19.1883,31.6908 19.3913,31.7718 C19.5963,31.8538 19.8213,31.8948 20.0653,31.8948 C20.3143,31.8948 20.5483,31.8608 20.7733,31.7928 C20.9983,31.7248 21.2073,31.6058 21.4083,31.4348 L21.0543,30.9278 C20.9173,31.0368 20.7683,31.1208 20.6033,31.1808 C20.4393,31.2408 20.2743,31.2718 20.1113,31.2718 C19.9963,31.2718 19.8833,31.2558 19.7763,31.2238 C19.6703,31.1918 19.5743,31.1428 19.4863,31.0758 C19.4013,31.0088 19.3273,30.9228 19.2663,30.8188 C19.2053,30.7138 19.1623,30.5878 19.1403,30.4408 L21.5493,30.4408 C21.5553,30.3988 21.5593,30.3568 21.5613,30.3108 C21.5643,30.2658 21.5653,30.2208 21.5653,30.1748 C21.5653,29.9198 21.5273,29.6888 21.4523,29.4788 C21.3743,29.2688 21.2693,29.0878 21.1333,28.9378 Z" id="Fill-7" fill="#000000"></path>
            <path d="M30.5633,30.5942 C30.5153,30.7212 30.4493,30.8312 30.3623,30.9242 C30.2763,31.0172 30.1733,31.0912 30.0533,31.1432 C29.9333,31.1972 29.7983,31.2242 29.6503,31.2242 C29.4973,31.2242 29.3573,31.1962 29.2373,31.1402 C29.1153,31.0842 29.0133,31.0102 28.9293,30.9152 C28.8453,30.8212 28.7803,30.7112 28.7353,30.5842 C28.6893,30.4572 28.6673,30.3212 28.6673,30.1772 C28.6673,30.0352 28.6893,29.9002 28.7353,29.7722 C28.7803,29.6452 28.8453,29.5352 28.9293,29.4412 C29.0133,29.3472 29.1153,29.2722 29.2373,29.2162 C29.3573,29.1602 29.4973,29.1332 29.6503,29.1332 C29.7983,29.1332 29.9333,29.1592 30.0533,29.2132 C30.1733,29.2662 30.2763,29.3392 30.3623,29.4322 C30.4493,29.5252 30.5153,29.6352 30.5633,29.7622 C30.6123,29.8892 30.6343,30.0282 30.6343,30.1772 C30.6343,30.3282 30.6123,30.4672 30.5633,30.5942 Z M30.5903,28.9422 C30.4773,28.7972 30.3363,28.6802 30.1683,28.5922 C30.0003,28.5062 29.7993,28.4622 29.5653,28.4622 C29.3363,28.4622 29.1233,28.5042 28.9253,28.5892 C28.7283,28.6752 28.5553,28.7932 28.4083,28.9462 C28.2593,29.0972 28.1443,29.2792 28.0613,29.4892 C27.9763,29.6992 27.9333,29.9282 27.9333,30.1772 C27.9333,30.4282 27.9763,30.6582 28.0613,30.8682 C28.1443,31.0782 28.2593,31.2592 28.4083,31.4112 C28.5553,31.5632 28.7283,31.6822 28.9253,31.7672 C29.1233,31.8522 29.3363,31.8952 29.5653,31.8952 C29.7993,31.8952 30.0003,31.8512 30.1683,31.7652 C30.3363,31.6782 30.4773,31.5632 30.5903,31.4182 L30.5903,31.8102 L31.3023,31.8102 L31.3023,28.5472 L30.5903,28.5472 L30.5903,28.9422 Z" id="Fill-9" fill="#000000"></path>
            <path d="M17.5213,31.1591 C17.4083,31.2021 17.2943,31.2231 17.1833,31.2231 C17.1113,31.2231 17.0423,31.2131 16.9803,31.1901 C16.9173,31.1671 16.8623,31.1311 16.8173,31.0821 C16.7703,31.0341 16.7333,30.9711 16.7073,30.8931 C16.6793,30.8171 16.6663,30.7231 16.6663,30.6151 L16.6663,29.1941 L17.8083,29.1941 L17.8083,28.5471 L16.6663,28.5471 L16.6663,27.5591 L15.9503,27.5591 L15.9503,28.5471 L15.2993,28.5471 L15.2993,29.1941 L15.9503,29.1941 L15.9503,30.6281 C15.9503,31.0611 16.0523,31.3811 16.2583,31.5861 C16.4633,31.7921 16.7513,31.8941 17.1213,31.8941 C17.3293,31.8941 17.5133,31.8631 17.6783,31.7991 C17.7873,31.7571 17.8883,31.7091 17.9823,31.6571 L17.7393,31.0611 C17.6693,31.0971 17.5983,31.1311 17.5213,31.1591" id="Fill-11" fill="#000000"></path>
            <path d="M23.9481,28.4618 C23.7491,28.4618 23.5681,28.4988 23.4071,28.5708 C23.2461,28.6428 23.1111,28.8178 23.0001,28.9748 L23.0001,28.5468 L22.3531,28.5468 L22.3531,31.8098 L23.0081,31.8098 L23.0081,30.0148 C23.0081,29.8758 23.0281,29.7528 23.0651,29.6438 C23.1041,29.5338 23.1571,29.4428 23.2251,29.3678 C23.2941,29.2928 23.3771,29.2358 23.4711,29.1968 C23.5671,29.1588 23.6711,29.1398 23.7851,29.1398 C23.8701,29.1398 23.9651,29.1498 24.0631,29.1698 C24.1151,29.1808 24.1621,29.1928 24.2071,29.2088 L24.4171,28.5278 C24.3591,28.5098 24.3021,28.4948 24.2431,28.4828 C24.1551,28.4688 24.0571,28.4618 23.9481,28.4618" id="Fill-13" fill="#000000"></path>
            <path d="M33.8426,28.4618 C33.6426,28.4618 33.4626,28.4988 33.3016,28.5708 C33.1396,28.6428 33.0046,28.8178 32.8956,28.9748 L32.8956,28.5468 L32.2486,28.5468 L32.2486,31.8098 L32.9036,31.8098 L32.9036,30.0148 C32.9036,29.8758 32.9226,29.7528 32.9606,29.6438 C32.9996,29.5338 33.0516,29.4428 33.1196,29.3678 C33.1886,29.2928 33.2706,29.2358 33.3656,29.1968 C33.4616,29.1588 33.5666,29.1398 33.6796,29.1398 C33.7646,29.1398 33.8596,29.1498 33.9566,29.1698 C34.0096,29.1808 34.0556,29.1928 34.1016,29.2088 L34.3106,28.5278 C34.2546,28.5098 34.1966,28.4948 34.1376,28.4828 C34.0506,28.4688 33.9516,28.4618 33.8426,28.4618" id="Fill-15" fill="#000000"></path>
            <path d="M37.1404,30.5942 C37.0924,30.7212 37.0264,30.8312 36.9394,30.9242 C36.8534,31.0172 36.7484,31.0912 36.6284,31.1432 C36.5084,31.1972 36.3744,31.2242 36.2264,31.2242 C36.0734,31.2242 35.9344,31.1962 35.8144,31.1402 C35.6924,31.0842 35.5884,31.0102 35.5054,30.9152 C35.4204,30.8212 35.3564,30.7112 35.3114,30.5842 C35.2664,30.4572 35.2444,30.3212 35.2444,30.1772 C35.2444,30.0352 35.2664,29.9002 35.3114,29.7722 C35.3564,29.6452 35.4204,29.5352 35.5054,29.4412 C35.5884,29.3472 35.6924,29.2722 35.8144,29.2162 C35.9344,29.1602 36.0734,29.1332 36.2264,29.1332 C36.3744,29.1332 36.5084,29.1592 36.6284,29.2132 C36.7484,29.2662 36.8534,29.3392 36.9394,29.4322 C37.0264,29.5252 37.0924,29.6352 37.1404,29.7622 C37.1884,29.8892 37.2114,30.0282 37.2114,30.1772 C37.2114,30.3282 37.1884,30.4672 37.1404,30.5942 Z M37.1674,27.2202 L37.1674,28.9422 C37.0544,28.7972 36.9124,28.6802 36.7444,28.5922 C36.5764,28.5062 36.3764,28.4622 36.1424,28.4622 C35.9124,28.4622 35.7004,28.5042 35.5024,28.5892 C35.3044,28.6752 35.1314,28.7932 34.9854,28.9462 C34.8354,29.0972 34.7214,29.2792 34.6374,29.4892 C34.5534,29.6992 34.5094,29.9282 34.5094,30.1772 C34.5094,30.4282 34.5534,30.6582 34.6374,30.8682 C34.7214,31.0782 34.8354,31.2592 34.9854,31.4112 C35.1314,31.5632 35.3044,31.6822 35.5024,31.7672 C35.7004,31.8522 35.9124,31.8952 36.1424,31.8952 C36.3764,31.8952 36.5764,31.8512 36.7444,31.7652 C36.9124,31.6782 37.0544,31.5632 37.1674,31.4182 L37.1674,31.8102 L37.8784,31.8102 L37.8784,27.2202 L37.1674,27.2202 Z" id="Fill-17" fill="#000000"></path>
            <path d="M25.6522,29.4242 C25.7422,29.3322 25.8502,29.2602 25.9752,29.2092 C26.0992,29.1582 26.2352,29.1322 26.3802,29.1322 C26.5402,29.1322 26.6882,29.1582 26.8272,29.2092 C26.9592,29.2592 27.0742,29.3272 27.1722,29.4152 L27.5132,28.8452 C27.3852,28.7432 27.2412,28.6582 27.0812,28.5922 C26.8642,28.5052 26.6322,28.4622 26.3802,28.4622 C26.1292,28.4622 25.8932,28.5052 25.6802,28.5922 C25.4652,28.6802 25.2812,28.8002 25.1242,28.9542 C24.9692,29.1072 24.8482,29.2882 24.7592,29.4972 C24.6702,29.7062 24.6272,29.9332 24.6272,30.1782 C24.6272,30.4242 24.6702,30.6512 24.7592,30.8602 C24.8482,31.0682 24.9692,31.2492 25.1242,31.4022 C25.2812,31.5552 25.4652,31.6752 25.6802,31.7632 C25.8932,31.8512 26.1292,31.8942 26.3802,31.8942 C26.6322,31.8942 26.8642,31.8512 27.0812,31.7632 C27.2412,31.6982 27.3852,31.6132 27.5132,31.5102 L27.1722,30.9412 C27.0742,31.0282 26.9592,31.0972 26.8272,31.1472 C26.6882,31.1982 26.5402,31.2242 26.3802,31.2242 C26.2352,31.2242 26.0992,31.1982 25.9752,31.1472 C25.8502,31.0962 25.7422,31.0242 25.6522,30.9322 C25.5612,30.8412 25.4892,30.7302 25.4372,30.6022 C25.3832,30.4742 25.3592,30.3322 25.3592,30.1782 C25.3592,30.0242 25.3832,29.8822 25.4372,29.7542 C25.4892,29.6262 25.5612,29.5162 25.6522,29.4242" id="Fill-19" fill="#000000"></path>
            <g id="Group-23" transform="translate(39.000000, 30.997800)">
                <mask id="mask-2" fill="white">
                    <use xlink:href="#path-1"></use>
                </mask>
                <g id="Clip-22"></g>
                <path d="M0.3338,0.591 L0.3338,0.645 L0.3958,0.645 C0.4088,0.645 0.4178,0.643 0.4258,0.639 C0.4338,0.635 0.4368,0.628 0.4368,0.618 C0.4368,0.609 0.4338,0.602 0.4258,0.598 C0.4178,0.593 0.4088,0.591 0.3958,0.591 L0.3338,0.591 Z M0.3968,0.519 C0.4388,0.519 0.4698,0.528 0.4898,0.546 C0.5118,0.564 0.5208,0.589 0.5208,0.618 C0.5208,0.642 0.5138,0.661 0.4988,0.677 C0.4828,0.693 0.4618,0.703 0.4338,0.708 L0.5248,0.814 L0.4258,0.814 L0.3448,0.711 L0.3338,0.711 L0.3338,0.814 L0.2518,0.814 L0.2518,0.519 L0.3968,0.519 Z M0.3788,0.907 C0.4118,0.907 0.4428,0.901 0.4728,0.888 C0.5018,0.876 0.5258,0.858 0.5468,0.837 C0.5698,0.816 0.5858,0.789 0.5998,0.76 C0.6098,0.731 0.6168,0.7 0.6168,0.667 C0.6168,0.633 0.6098,0.603 0.5998,0.573 C0.5858,0.543 0.5698,0.518 0.5468,0.496 C0.5258,0.475 0.5018,0.458 0.4728,0.445 C0.4428,0.433 0.4118,0.426 0.3788,0.426 C0.3458,0.426 0.3128,0.433 0.2838,0.445 C0.2538,0.458 0.2278,0.475 0.2068,0.496 C0.1858,0.518 0.1678,0.543 0.1558,0.573 C0.1438,0.603 0.1378,0.633 0.1378,0.667 C0.1378,0.7 0.1438,0.731 0.1558,0.76 C0.1678,0.789 0.1858,0.816 0.2068,0.837 C0.2278,0.858 0.2538,0.876 0.2838,0.888 C0.3128,0.901 0.3458,0.907 0.3788,0.907 Z M0.3788,0.334 C0.4258,0.334 0.4708,0.343 0.5118,0.36 C0.5538,0.378 0.5898,0.401 0.6198,0.431 C0.6508,0.462 0.6748,0.497 0.6938,0.537 C0.7098,0.577 0.7208,0.62 0.7208,0.667 C0.7208,0.712 0.7098,0.755 0.6938,0.796 C0.6748,0.836 0.6508,0.871 0.6198,0.902 C0.5898,0.932 0.5538,0.956 0.5118,0.974 C0.4708,0.991 0.4258,1 0.3788,1 C0.3298,1 0.2848,0.991 0.2438,0.974 C0.2008,0.956 0.1648,0.932 0.1338,0.902 C0.1028,0.871 0.0788,0.836 0.0608,0.796 C0.0438,0.755 0.0348,0.712 0.0348,0.667 C0.0348,0.62 0.0438,0.577 0.0608,0.537 C0.0788,0.497 0.1028,0.462 0.1338,0.431 C0.1648,0.401 0.2008,0.378 0.2438,0.36 C0.2848,0.343 0.3298,0.334 0.3788,0.334 Z" id="Fill-21" fill="#000000" mask="url(#mask-2)"></path>
            </g>
            <g id="Group-26" transform="translate(0.000000, 0.997800)">
                <mask id="mask-4" fill="white">
                    <use xlink:href="#path-3"></use>
                </mask>
                <g id="Clip-25"></g>
                <path d="M15.2557,12.298 C15.2557,8.39 17.0797,4.91 19.9227,2.657 C17.8267,0.996 15.1787,0.002 12.2977,0.002 C5.5067,0.002 -0.0003,5.507 -0.0003,12.298 C-0.0003,19.09 5.5067,24.594 12.2977,24.594 C15.1787,24.594 17.8267,23.6 19.9227,21.939 C17.0797,19.688 15.2557,16.207 15.2557,12.298" id="Fill-24" fill="#E31719" mask="url(#mask-4)"></path>
            </g>
            <path d="M15.2557,13.2958 C15.2557,17.2048 17.0797,20.6858 19.9227,22.9368 C22.7667,20.6858 24.5937,17.2048 24.5937,13.2958 C24.5937,9.3878 22.7667,5.9078 19.9227,3.6548 C17.0797,5.9078 15.2557,9.3878 15.2557,13.2958" id="Fill-27" fill="#EA601C"></path>
            <path d="M39.784,19.9467 L39.784,19.6287 L39.68,19.9037 L39.567,19.9037 L39.464,19.6297 L39.464,19.9467 L39.355,19.9467 L39.355,19.4887 L39.511,19.4887 L39.624,19.7817 L39.736,19.4887 L39.892,19.4887 L39.892,19.9467 L39.784,19.9467 Z M39.013,19.9467 L39.013,19.5877 L38.867,19.5877 L38.867,19.4887 L39.266,19.4887 L39.266,19.5877 L39.121,19.5877 L39.121,19.9467 L39.013,19.9467 Z" id="Fill-29" fill="#F59E0F"></path>
            <path d="M27.5516,0.9999 C24.6676,0.9999 22.0196,1.9939 19.9236,3.6549 C22.7676,5.9069 24.5936,9.3869 24.5936,13.2959 C24.5936,17.2049 22.7676,20.6849 19.9236,22.9369 C22.0196,24.5979 24.6676,25.5919 27.5516,25.5919 C34.3426,25.5919 39.8476,20.0869 39.8476,13.2959 C39.8476,6.5049 34.3426,0.9999 27.5516,0.9999" id="Fill-31" fill="#F59E0F"></path>
        </g>
    </g>
</svg>