<?xml version="1.0" encoding="UTF-8"?>
<svg width="24px" height="24px" viewBox="0 0 24 24" version="1.1" xmlns="http://www.w3.org/2000/svg" xmlns:xlink="http://www.w3.org/1999/xlink">
    <!-- Generator: Sketch 51.3 (57544) - http://www.bohemiancoding.com/sketch -->
    <title>Tab bar/ic/Mesas-activo</title>
    <desc>Created with Sketch.</desc>
    <defs></defs>
    <g id="Tab-bar/ic/Mesas-activo" stroke="none" stroke-width="1" fill="none" fill-rule="evenodd">
        <g id="Group-17-Copy" transform="translate(0.000000, 4.000000)" fill="#F5A623">
            <path d="M21.0656685,8.9098 L16.8786759,8.9098 L14.981,15.6366 C14.919,15.8566 14.719,16.0006 14.5,16.0006 C14.455,16.0006 14.409,15.9946 14.364,15.9816 C14.099,15.9066 13.943,15.6306 14.019,15.3646 L15.8392741,8.9098 L14.5,8.9098 C14.224,8.9098 14,8.6858 14,8.4098 C14,8.1338 14.224,7.9098 14.5,7.9098 L21.1115247,7.9098 L23.016,0.3776 C23.082,0.1106 23.347,-0.0534 23.623,0.0156 C23.891,0.0836 24.053,0.3556 23.984,0.6236 L22.009,8.4376 L22.995,15.4306 C23.033,15.7046 22.843,15.9576 22.569,15.9956 C22.546,15.9996 22.522,16.0006 22.499,16.0006 C22.254,16.0006 22.04,15.8206 22.005,15.5706 L21.0656685,8.9098 Z M2.88847535,7.9098 L9.5,7.9098 C9.776,7.9098 10,8.1338 10,8.4098 C10,8.6858 9.776,8.9098 9.5,8.9098 L8.16072591,8.9098 L9.981,15.3646 C10.057,15.6306 9.901,15.9066 9.636,15.9816 C9.591,15.9946 9.545,16.0006 9.5,16.0006 C9.281,16.0006 9.081,15.8566 9.019,15.6366 L7.1213241,8.9098 L2.93433155,8.9098 L1.995,15.5706 C1.96,15.8196 1.746,16.0006 1.501,16.0006 C1.478,16.0006 1.454,15.9996 1.431,15.9956 C1.157,15.9576 0.967,15.7046 1.005,15.4306 L1.991,8.4376 L0.016,0.6236 C-0.053,0.3556 0.109,0.0836 0.377,0.0156 C0.651,-0.0534 0.918,0.1106 0.984,0.3776 L2.88847535,7.9098 Z M11,2.0006 L5.5,2.0006 C5.224,2.0006 5,1.7766 5,1.5006 C5,1.2246 5.224,1.0006 5.5,1.0006 L17.5,1.0006 C17.776,1.0006 18,1.2246 18,1.5006 C18,1.7766 17.776,2.0006 17.5,2.0006 L12,2.0006 L12,15.5006 C12,15.7766 11.776,16.0006 11.5,16.0006 C11.224,16.0006 11,15.7766 11,15.5006 L11,2.0006 Z" id="Combined-Shape"></path>
        </g>
    </g>
</svg>