<?xml version="1.0"?>
<svg xmlns="http://www.w3.org/2000/svg" height="512px" viewBox="0 -1 512 512" width="512px"><g><path d="m432.246094 318.753906-16.851563 27.328125-6.691406-2.519531c-12.199219-4.589844-20.589844-15.496094-21.890625-28.464844l-3.894531-38.734375 14.054687-41.898437h38.53125v-30.03125h-34.925781c-3.472656-43.507813-21.976563-84.210938-53.003906-115.921875-31.230469-31.917969-71.542969-50.964844-114.804688-54.554688v-33.957031h-30.03125v33.957031c-43.261719 3.589844-83.574219 22.636719-114.808593 54.554688-31.023438 31.710937-49.53125 72.414062-53 115.921875h-34.929688v30.03125h38.535156l18.515625 55.203125h54.785157l126.128906 114.914062h54.671875c26.203125 0 51.019531 9.011719 70.917969 25.566407l-17.886719 29.007812 80.019531 51.566406 86.3125-140.738281zm-322.851563-209.238281c29.125-29.765625 67.605469-46.160156 108.359375-46.160156 40.75 0 79.230469 16.394531 108.355469 46.160156 25.492187 26.054687 40.929687 59.3125 44.328125 94.914063h-305.371094c3.398438-35.601563 18.835938-68.859376 44.328125-94.914063zm-39.183593 124.949219h295.085937l-8.445313 25.171875h-278.199218zm239.886718 55.203125c-.121094 6.464843-2.660156 12.535156-7.21875 17.175781-4.78125 4.871094-11.175781 7.550781-18 7.550781-4.949218 0-9.75-1.4375-13.882812-4.164062l-31.203125-20.5625zm-17.460937 84.882812h-43.042969l-93.167969-84.886719h28.792969l69.25 45.640626c9.050781 5.96875 19.566406 9.121093 30.410156 9.121093 14.949219 0 28.953125-5.875 39.429688-16.542969 10.121094-10.308593 15.691406-23.832031 15.808594-38.21875h13.953124l2.859376 28.4375c2.457031 24.402344 18.242187 44.929688 41.195312 53.566407l1.210938.457031-19.886719 32.25c-24.699219-19.339844-54.949219-29.824219-86.8125-29.824219zm123.503906 94.292969-29.457031-18.984375 55.070312-89.304687 29.269532 18.800781zm0 0" data-original="#000000" class="active-path" data-old_color="#000000" fill="#828282"/></g> </svg>
