<?xml version="1.0" encoding="UTF-8"?>
<svg width="24px" height="24px" viewBox="0 0 24 24" version="1.1" xmlns="http://www.w3.org/2000/svg" xmlns:xlink="http://www.w3.org/1999/xlink">
    <!-- Generator: Sketch 51.3 (57544) - http://www.bohemiancoding.com/sketch -->
    <title>Tab bar/ic/noticias</title>
    <desc>Created with Sketch.</desc>
    <defs>
        <path d="M1,11 L1,22 C1,22.5524608 1.44774538,23 2,23 C2.55225462,23 3,22.5524608 3,22 L3,11 L1,11 Z M2,24 C0.895563694,24 0,23.1048486 0,22 L0,10.5 C0,10.2238576 0.223857625,10 0.5,10 L3.5,10 C3.77614237,10 4,10.2238576 4,10.5 L4,22 C4,23.1048486 3.10443631,24 2,24 Z M4,2 L4,21.5 C4,21.7761424 3.77614237,22 3.5,22 C3.22385763,22 3,21.7761424 3,21.5 L3,1.5 C3,1.22385763 3.22385763,1 3.5,1 L23.5,1 C23.7761424,1 24,1.22385763 24,1.5 L24,21.5 C24,22.8801424 22.8801424,24 21.5,24 L2.5,24 C2.22385763,24 2,23.7761424 2,23.5 C2,23.2238576 2.22385763,23 2.5,23 L21.5,23 C22.3278576,23 23,22.3278576 23,21.5 L23,2 L4,2 Z M6.5,13 C6.22385763,13 6,12.7761424 6,12.5 L6,4.5 C6,4.22385763 6.22385763,4 6.5,4 L13.5,4 C13.7761424,4 14,4.22385763 14,4.5 L14,12.5 C14,12.7761424 13.7761424,13 13.5,13 L6.5,13 Z M7,12 L13,12 L13,5 L7,5 L7,12 Z M16.5,7 C16.2238576,7 16,6.77614237 16,6.5 C16,6.22385763 16.2238576,6 16.5,6 L21.5,6 C21.7761424,6 22,6.22385763 22,6.5 C22,6.77614237 21.7761424,7 21.5,7 L16.5,7 Z M16.5,10 C16.2238576,10 16,9.77614237 16,9.5 C16,9.22385763 16.2238576,9 16.5,9 L21.5,9 C21.7761424,9 22,9.22385763 22,9.5 C22,9.77614237 21.7761424,10 21.5,10 L16.5,10 Z M16.5,13 C16.2238576,13 16,12.7761424 16,12.5 C16,12.2238576 16.2238576,12 16.5,12 L21.5,12 C21.7761424,12 22,12.2238576 22,12.5 C22,12.7761424 21.7761424,13 21.5,13 L16.5,13 Z M7.5,18 C7.22385763,18 7,17.7761424 7,17.5 C7,17.2238576 7.22385763,17 7.5,17 L21.5,17 C21.7761424,17 22,17.2238576 22,17.5 C22,17.7761424 21.7761424,18 21.5,18 L7.5,18 Z M7.5,21 C7.22385763,21 7,20.7761424 7,20.5 C7,20.2238576 7.22385763,20 7.5,20 L21.5,20 C21.7761424,20 22,20.2238576 22,20.5 C22,20.7761424 21.7761424,21 21.5,21 L7.5,21 Z" id="path-1"></path>
    </defs>
    <g id="Tab-bar/ic/noticias" stroke="none" stroke-width="1" fill="none" fill-rule="evenodd">
        <g id="--↳-🎨Color">
            <mask id="mask-2" fill="white">
                <use xlink:href="#path-1"></use>
            </mask>
            <use id="Combined-Shape" fill="#163567" fill-rule="nonzero" xlink:href="#path-1"></use>
            <g id="bg/fill/gris" mask="url(#mask-2)" fill="#9B9B9B">
                <rect id="Rectangle" x="0" y="0" width="24" height="24"></rect>
            </g>
        </g>
    </g>
</svg>