<?xml version="1.0" encoding="UTF-8"?>
<svg width="38px" height="42px" viewBox="0 0 38 42" version="1.1" xmlns="http://www.w3.org/2000/svg" xmlns:xlink="http://www.w3.org/1999/xlink">
    <!-- Generator: Sketch 51.3 (57544) - http://www.bohemiancoding.com/sketch -->
    <title>Mapa/Marcador</title>
    <desc>Created with Sketch.</desc>
    <defs>
        <linearGradient x1="100%" y1="100%" x2="0%" y2="0%" id="linearGradient-1">
            <stop stop-color="#B122E5" offset="0%"></stop>
            <stop stop-color="#FF63DE" offset="100%"></stop>
        </linearGradient>
        <path d="M18.7904941,29.294974 L15,34 L11.2095059,29.294974 C4.76681254,27.6622859 8.51168383e-16,21.8253173 0,14.875 C-1.0060762e-15,6.65976435 6.65976435,-2.67242532e-16 14.875,-1.77635684e-15 L15.125,-3.55271368e-15 C23.3402357,-5.06182799e-15 30,6.65976435 30,14.875 C30,21.8253173 25.2331875,27.6622859 18.7904941,29.294974 Z" id="path-2"></path>
        <filter x="-18.3%" y="-16.2%" width="143.3%" height="138.2%" filterUnits="objectBoundingBox" id="filter-3">
            <feOffset dx="1" dy="1" in="SourceAlpha" result="shadowOffsetOuter1"></feOffset>
            <feGaussianBlur stdDeviation="2" in="shadowOffsetOuter1" result="shadowBlurOuter1"></feGaussianBlur>
            <feColorMatrix values="0 0 0 0 0   0 0 0 0 0   0 0 0 0 0  0 0 0 0.2 0" type="matrix" in="shadowBlurOuter1"></feColorMatrix>
        </filter>
        <path d="M7.62697536,7.70504319 L8.50018518,8.60816987 L10.2573475,5.96990894 C10.1268456,5.9047075 10.0004281,5.82666977 9.87978975,5.73555888 C9.75862511,5.64405049 9.64853579,5.54330071 9.54976175,5.43503022 L7.62697536,7.70504319 Z M7.19038039,7.25349013 L9.18208872,4.90210895 C8.77974094,4.10683655 8.83536793,3.11794029 9.40791962,2.35812931 L11.0910446,0.12437931 C11.1949063,-0.0134601288 11.3908438,-0.0410045527 11.5286832,0.0628571176 C11.6665226,0.166718788 11.6940671,0.362656251 11.5902054,0.50049569 L9.90707469,2.73425324 C9.31330666,3.52221959 9.46977638,4.64268098 10.2564602,5.23681612 C11.0431393,5.83094766 12.161346,5.67442174 12.7547693,4.88691287 L14.4378943,2.65253787 C14.5417375,2.51468447 14.7376712,2.4871137 14.8755246,2.59095683 C15.013378,2.69479997 15.0409488,2.89073373 14.9371057,3.02858713 L13.2539497,5.26300324 C12.6807968,6.02361199 11.7448786,6.34836848 10.869629,6.17808945 L8.9448288,9.06804733 L11.9658727,12.1925945 C12.6674021,12.9129216 12.6840312,14.0314128 11.9790603,14.638034 C11.3041859,15.2192841 10.2482815,15.0819288 9.61813651,14.3606725 C9.59051834,14.329025 9.59051834,14.329025 9.54851559,14.281033 L7.3399614,11.4810473 L5.48030105,14.2705146 C4.96889153,15.053901 3.89311453,15.239717 3.1477145,14.6736774 C2.73521318,14.3586764 2.499875,13.8775869 2.499875,13.3753125 C2.499875,12.989162 2.6362134,12.6180409 2.8929081,12.3168029 L5.54001835,9.19909524 L4.80601559,8.26853297 C4.69913028,8.13302471 4.72233377,7.9365259 4.85784203,7.82964059 C4.99335029,7.72275528 5.1898491,7.74595877 5.29673441,7.88146703 L7.55742334,10.7479893 C7.56198665,10.7533868 7.56634655,10.758918 7.57050069,10.7645712 L10.0270923,13.8794954 C10.0584817,13.914725 10.0584817,13.914725 10.0898336,13.9506427 C10.5029902,14.4235329 11.1696972,14.5102602 11.5712959,14.1643746 C11.9897036,13.8043385 11.9792638,13.1021482 11.5173395,12.6278436 L8.34760789,9.34951621 C8.3270632,9.33297578 8.30910127,9.31424992 8.29383482,9.29390086 L6.19046448,7.11846856 C6.07049799,6.99439198 6.07382986,6.79655598 6.19790644,6.67658948 C6.32198302,6.55662299 6.51981902,6.55995486 6.63978552,6.68403144 L7.19038039,7.25349013 Z M5.93487628,9.69969268 L3.36898081,12.7217466 C3.20840246,12.9101901 3.124875,13.1375567 3.124875,13.3753125 C3.124875,13.6837682 3.27017667,13.9808008 3.52636491,14.1764369 C3.98236695,14.5227135 4.64386014,14.4084555 4.95860928,13.9263437 L6.93287442,10.964946 L5.93487628,9.69969268 Z M12.2067889,0.967386837 C12.3106465,0.829544266 12.5065831,0.801993933 12.6444257,0.905851447 C12.7822682,1.00970896 12.8098186,1.20564559 12.7059611,1.34348816 L11.4434611,3.01911316 C11.3396035,3.15695573 11.1436669,3.18450607 11.0058243,3.08064855 C10.8679818,2.97679104 10.8404314,2.78085441 10.9442889,2.64301184 L12.2067889,0.967386837 Z M13.3225212,1.81020247 C13.4264115,1.67238461 13.6223547,1.64488089 13.7601725,1.74877119 C13.8979904,1.85266149 13.9254941,2.04860467 13.8216038,2.18642253 L12.5584788,3.86204753 C12.4545885,3.99986539 12.2586453,4.02736911 12.1208275,3.92347881 C11.9830096,3.81958851 11.9555059,3.62364533 12.0593962,3.48582747 L13.3225212,1.81020247 Z M6.91128503,6.88667202 L4.47628503,8.98229702 C4.33873345,9.10067753 4.12961066,9.07738798 4.02147385,8.93164571 L0.817140751,4.61295182 C-0.319745621,3.11299748 -0.270589843,1.13839939 0.964872681,0.0754248274 C1.02157256,0.0266410476 1.09388955,-0.0001875 1.1686875,-0.0001875 C1.25949589,-0.0001875 1.34528238,0.0387729321 1.40462492,0.106681002 L6.94274992,6.444181 C7.05692435,6.57483541 7.04279844,6.77348812 6.91128503,6.88667202 Z M1.15328121,0.768876252 C0.40573666,1.64156584 0.443791342,3.08568467 1.31715115,4.23797929 L4.32322144,8.28943544 L6.26493385,6.61834671 L1.15328121,0.768876252 Z" id="path-4"></path>
    </defs>
    <g id="Usuario" stroke="none" stroke-width="1" fill="none" fill-rule="evenodd">
        <g id="Mapa/Marcador" transform="translate(3.000000, 3.000000)">
            <g id="Group-4" stroke-width="1" fill-rule="evenodd">
                <g id="Group-2">
                    <g id="Combined-Shape">
                        <use fill="black" fill-opacity="1" filter="url(#filter-3)" xlink:href="#path-2"></use>
                        <use fill="url(#linearGradient-1)" fill-rule="evenodd" xlink:href="#path-2"></use>
                    </g>
                </g>
            </g>
            <circle id="Oval-3" fill="#FFFFFF" fill-rule="evenodd" cx="15" cy="15" r="12"></circle>
            <g id="Input/Icons/1" transform="translate(8.000000, 8.000000)">
                <mask id="mask-5" fill="white">
                    <use xlink:href="#path-4"></use>
                </mask>
                <use id="Combined-Shape" fill="#FF63DE" fill-rule="nonzero" xlink:href="#path-4"></use>
                <g id="bg/fill/Morado" mask="url(#mask-5)" fill="#FF63DE" fill-rule="evenodd">
                    <rect id="Rectangle" x="0" y="0" width="15" height="15"></rect>
                </g>
            </g>
        </g>
    </g>
</svg>