<?xml version="1.0"?>
<svg xmlns="http://www.w3.org/2000/svg" xmlns:xlink="http://www.w3.org/1999/xlink" xmlns:svgjs="http://svgjs.com/svgjs" version="1.1" width="512" height="512" x="0" y="0" viewBox="0 0 511 511.999" style="enable-background:new 0 0 512 512" xml:space="preserve" class=""><g><path xmlns="http://www.w3.org/2000/svg" d="m171.605469 92.519531c-42.707031 0-77.449219 34.742188-77.449219 77.449219s34.742188 77.449219 77.449219 77.449219 77.449219-34.742188 77.449219-77.449219-34.742188-77.449219-77.449219-77.449219zm0 124.875c-26.148438 0-47.425781-21.277343-47.425781-47.425781 0-26.152344 21.277343-47.425781 47.425781-47.425781 26.152343 0 47.425781 21.273437 47.425781 47.425781 0 26.148438-21.277344 47.425781-47.425781 47.425781zm0 0" fill="#4cd77c" data-original="#000000" style="" class=""/><path xmlns="http://www.w3.org/2000/svg" d="m171.605469 0c-94.347657 0-171.105469 83.761719-171.105469 186.714844 0 39.769531 24.449219 102.386718 72.671875 186.117187 35.886719 62.3125 73.660156 116.703125 84.386719 131.894531 3.21875 4.554688 8.46875 7.273438 14.046875 7.273438h.011719c5.578124-.003906 10.828124-2.730469 14.042968-7.292969 26.195313-37.171875 156.734375-227.011719 157.050782-317.992187v-.324219c-.15625-102.808594-76.855469-186.390625-171.105469-186.390625zm-.003907 472.335938c-16.257812-23.6875-44.902343-66.722657-72.410156-114.488282-56.753906-98.542968-68.667968-147.453125-68.667968-171.132812 0-86.398438 63.289062-156.691406 141.082031-156.691406 77.730469 0 140.984375 70.1875 141.082031 156.492187-.109375 63.839844-84.261719 203.042969-141.085938 285.820313zm0 0" fill="#4cd77c" data-original="#000000" style="" class=""/></g></svg>
