<?xml version="1.0" encoding="iso-8859-1"?>
<!-- Generator: Adobe Illustrator 19.0.0, SVG Export Plug-In . SVG Version: 6.00 Build 0)  -->
<svg version="1.1" id="Capa_1" xmlns="http://www.w3.org/2000/svg" xmlns:xlink="http://www.w3.org/1999/xlink" x="0px" y="0px"
	 viewBox="0 0 512.002 512.002" style="enable-background:new 0 0 512.002 512.002;" xml:space="preserve">
<g>
	<polygon style="fill:#444D56;" points="317.01,337.212 432.09,330.4 321.243,270.15 269.828,253.007 225.731,339.681 	"/>
	<path style="fill:#444D56;" d="M79.953,258.094c-39.934,0-72.307,32.373-72.307,72.307s32.373,72.306,72.307,72.306
		s72.307-32.373,72.307-72.306C152.259,290.467,119.886,258.094,79.953,258.094z M79.953,374.815
		c-24.529,0-44.416-19.885-44.416-44.416c0-24.53,19.885-44.416,44.416-44.416c24.529,0,44.415,19.885,44.415,44.416
		S104.482,374.815,79.953,374.815z"/>
	<path style="fill:#444D56;" d="M432.086,258.094c-39.934,0-72.307,32.373-72.307,72.307s32.373,72.306,72.307,72.306
		s72.307-32.373,72.307-72.306C504.393,290.467,472.02,258.094,432.086,258.094z M432.086,374.815
		c-24.529,0-44.416-19.885-44.416-44.416c0-24.53,19.885-44.416,44.416-44.416c24.529,0,44.415,19.885,44.415,44.416
		C476.502,354.93,456.616,374.815,432.086,374.815z"/>
</g>
<path style="fill:#F2171C;" d="M316.668,156.355l-99.35-9.803c-17.569-1.744-34.813,5.606-45.742,19.475l-11.527,14.629
	l126.504,63.229"/>
<path style="fill:#AF0900;" d="M134.684,174.755l21.989-65.46C50.612,126.976,10.182,243.692,7.77,250.971
	c-0.041,0.122-0.071,0.203-0.091,0.264s-0.03,0.091-0.03,0.091"/>
<polygon style="fill:#515F84;" points="178.592,266.692 260.829,300.2 260.839,300.2 383.759,239.059 416.2,170.122 
	504.399,155.929 504.399,131.599 404.035,131.599 316.668,156.355 316.657,156.355 316.647,156.355 184.623,193.763 "/>
<path style="fill:#444D56;" d="M241.652,177.603l22.603,17.227c10.895,8.304,25.808,8.951,37.381,1.621l102.399-64.852"/>
<polygon style="fill:#3B4A6B;" points="222.831,182.937 307.843,238.697 383.759,239.059 260.829,300.2 198.36,300.2 
	184.623,193.763 "/>
<path style="fill:#F2171C;" d="M167.054,377.5c7.583-14.01,11.892-30.048,11.892-47.1c0-0.852,0-1.713-0.03-2.555
	c-0.335-13.331-3.366-25.821-8.516-37.054c-0.973-2.129-2.017-4.217-3.153-6.265c-20.742-37.631-66.068-58.971-111.1-46.563
	L7.648,251.326c17.346-51.449,89.304-87.489,141.929-74.107c34.103,8.678,68.308,43.461,68.308,43.461
	c-0.76,4.187-1.156,8.506-1.156,12.916c0,39.933,32.37,72.303,72.303,72.303c3.771,0,7.461-0.284,11.07-0.841
	c10.949,17.853,18.268,34.357,22.982,47.1c5.748,15.45,7.674,25.344,7.674,25.344L167.054,377.5L167.054,377.5z"/>
<path style="fill:#AF0900;" d="M167.054,377.5c7.583-14.01,11.892-30.048,11.892-47.1c0-0.852,0-1.713-0.03-2.555
	c-0.335-13.331-3.366-25.821-8.516-37.054c18.187,29.166,92.598,79.135,152.685,61.364c5.748,15.45,7.674,25.344,7.674,25.344
	L167.054,377.5L167.054,377.5z"/>
<path d="M414.993,162.615c-2.48,0.399-4.603,1.997-5.672,4.269l-6.588,13.999c-1.788,3.8-0.157,8.329,3.642,10.117l0,0
	c3.8,1.788,8.329,0.157,10.116-3.643l4.879-10.368l84.236-13.555c3.685-0.593,6.395-3.774,6.395-7.507v-24.331
	c0-4.199-3.404-7.603-7.603-7.603H404.035c-0.701,0-1.398,0.097-2.073,0.288l-85.985,24.364l-97.91-9.662
	c-20.247-2.01-39.861,6.339-52.465,22.335l-8.126,10.313c-2.002-0.666-4.013-1.271-6.027-1.783c-2.172-0.553-4.382-1.02-6.62-1.421
	l19.05-56.712c0.851-2.531,0.311-5.322-1.421-7.354c-1.733-2.032-4.402-3.004-7.037-2.567
	c-45.635,7.607-86.509,34.491-118.202,77.745c-24.463,33.388-35.491,65.489-36.681,69.078l-0.08,0.233l0,0l-0.016,0.046
	c-0.489,1.384-0.596,2.893-0.197,4.305c1.242,4.388,5.528,6.53,9.421,5.455l48.503-13.362c16.604-4.575,33.741-4.295,49.701,0.509
	l-3.626,8.476c-8.935-2.859-18.543-4.199-28.528-3.677C34.733,252.748,1.74,286.144,0.105,327.15
	c-1.867,46.837,36.82,85.302,83.732,83.068c41.049-1.956,74.207-35.301,75.949-76.36c1.341-31.644-15.834-59.488-41.567-73.587
	l3.791-8.861c4.75,2.367,9.333,5.167,13.693,8.402c21.945,16.282,34.924,41.15,35.609,68.28c0.024,0.764,0.032,1.538,0.032,2.31
	c0,15.097-3.753,30.043-10.857,43.243c-1.011,1.878-1.345,4.088-0.701,6.121c1.029,3.246,3.998,5.337,7.261,5.337h20.544
	c4.199,0,7.603-3.404,7.603-7.603l0,0c0-4.199-3.404-7.603-7.603-7.603h-8.609c4.975-12.5,7.568-25.947,7.568-39.494
	c0-0.936-0.011-1.873-0.04-2.746c-0.803-31.787-16.02-60.967-41.748-80.056c-26.196-19.436-59.233-25.62-90.635-16.966
	l-32.837,9.046c9.843-16.932,26.521-32.121,47.573-42.961c26.193-13.489,55.668-18.023,78.838-12.132
	c26.357,6.704,53.577,30.814,62.072,38.82c-0.43,3.364-0.648,6.777-0.648,10.193c0,44.061,35.846,79.907,79.907,79.907
	c2.373,0,4.745-0.104,7.093-0.311c14.13,24.014,21.494,45.219,24.837,56.701h-97.884c-4.199,0-7.603,3.404-7.603,7.603l0,0
	c0,4.199,3.404,7.603,7.603,7.603h107.489c1.404,0,2.812-0.31,4.021-1.025c2.886-1.707,4.241-4.945,3.637-8.035
	c-0.164-0.844-2.674-13.31-10.035-31.874l24.941-1.476c6.125,39.746,41.473,69.528,82.906,67.52
	c40.771-1.976,73.798-34.933,75.852-75.7c2.313-45.92-34.379-84.017-79.803-84.017c-26.743,0-51.486,13.332-66.254,35.239
	l-28.114-15.281l49.427-24.585c1.533-0.762,2.765-2.02,3.493-3.571l12.807-27.216c1.788-3.8,0.157-8.329-3.642-10.117l0,0
	c-3.8-1.788-8.329-0.157-10.116,3.643l-11.681,24.822l-117.28,58.335c-21.527-10.519-36.393-32.637-36.393-58.165
	c0-3.898,0.348-7.787,1.035-11.559c0.443-2.433-0.325-4.93-2.059-6.693c-0.697-0.709-8.996-9.067-21.364-18.589l38.124-10.803
	l19.578,14.922c7.166,5.462,15.816,8.226,24.485,8.226c7.49,0,14.996-2.063,21.572-6.229l100.535-63.672h90.556v10.249
	L414.993,162.615z M144.656,330.4c0,35.677-29.025,64.703-64.703,64.703S15.25,366.078,15.25,330.4s29.025-64.703,64.702-64.703
	c6.347,0,12.478,0.935,18.277,2.646l-5.028,11.755c-4.233-1.115-8.671-1.715-13.249-1.715c-28.683,0-52.019,23.335-52.019,52.019
	s23.335,52.017,52.019,52.017s52.019-23.335,52.019-52.019c0-18.709-9.932-35.138-24.796-44.304l5.027-11.753
	C131.578,285.534,144.656,306.462,144.656,330.4z M76.962,337.39c0.975,0.418,1.989,0.614,2.987,0.614
	c2.952,0,5.759-1.729,6.994-4.615l14.157-33.094c9.464,6.669,15.664,17.672,15.664,30.104c0,20.298-16.513,36.812-36.812,36.812
	S43.139,350.699,43.139,330.4c0-20.299,16.513-36.812,36.812-36.812c2.455,0,4.853,0.246,7.176,0.708L72.962,327.41
	C71.31,331.27,73.102,335.739,76.962,337.39z M61.902,183.2c-5.164,2.659-10.094,5.569-14.773,8.687
	c20.803-29.403,52.615-60.69,98.102-72.406l-15.912,47.368C107.572,166.22,83.973,171.834,61.902,183.2z M432.087,265.701
	c35.675,0,64.699,29.023,64.699,64.699s-29.023,64.699-64.699,64.699c-31.661,0-58.286-22.875-63.678-53.314l12.753-0.755
	c4.927,23.734,25.992,41.385,50.925,41.385c28.682,0,52.017-23.335,52.017-52.017c0-28.682-23.335-52.017-52.017-52.017
	c-16.506,0-31.84,7.801-41.58,20.761l-11.237-6.108C391.314,276.012,410.926,265.701,432.087,265.701z M435.72,323.719
	l-31.646-17.201c6.915-8.11,17.1-12.929,28.013-12.929c20.297,0,36.81,16.513,36.81,36.81c0,20.297-16.513,36.81-36.81,36.81
	c-16.867,0-31.226-11.417-35.503-27.092l35.956-2.128c3.388-0.201,6.233-2.623,6.972-5.935
	C440.249,328.742,438.703,325.34,435.72,323.719z M321.092,278.722l84.003,45.658l-83.314,4.932
	c-4.08-8.738-9.084-18.274-15.193-28.233c-1.604-2.613-4.62-4.01-7.648-3.537c-3.228,0.502-6.561,0.755-9.907,0.755
	c-2.235,0-4.444-0.115-6.622-0.337L321.092,278.722z M172.05,177.71l5.499-6.978c9.375-11.898,23.963-18.11,39.023-16.614
	l59.394,5.861l-90.093,25.528C181.467,182.735,176.832,180.085,172.05,177.71z M297.568,190.028
	c-8.843,5.601-20.378,5.1-28.703-1.245l-10.509-8.009l97.382-27.588L297.568,190.028z"/>
<path d="M221.675,362.49h19.768c4.199,0,7.603-3.404,7.603-7.603s-3.404-7.603-7.603-7.603h-14.976l-9.453-19.767h22.909
	c4.199,0,7.603-3.404,7.603-7.603s-3.404-7.603-7.603-7.603h-34.973c-2.611,0-5.04,1.34-6.432,3.549
	c-1.392,2.21-1.553,4.979-0.427,7.335l16.726,34.973C216.079,360.808,218.747,362.49,221.675,362.49z"/>
<g>
</g>
<g>
</g>
<g>
</g>
<g>
</g>
<g>
</g>
<g>
</g>
<g>
</g>
<g>
</g>
<g>
</g>
<g>
</g>
<g>
</g>
<g>
</g>
<g>
</g>
<g>
</g>
<g>
</g>
</svg>
