<?xml version="1.0"?>
<svg xmlns="http://www.w3.org/2000/svg" xmlns:xlink="http://www.w3.org/1999/xlink" version="1.1" id="Capa_1" x="0px" y="0px" viewBox="0 0 455.592 455.592" style="enable-background:new 0 0 455.592 455.592;" xml:space="preserve" width="512px" height="512px"><g><g>
	<g>
		<g>
			<path d="M434.672,158.515h-5.92v-73.12c-0.044-25.444-20.636-46.072-46.08-46.16h-249.44c-24.16,0.058-44.203,18.707-46,42.8     c-2.727,1.77-5.261,3.821-7.56,6.12c-8.677,8.63-13.556,20.362-13.56,32.6v65.72c-24.826,12.746-44.514,33.641-55.762,59.181     c-27.078,61.481,0.811,133.272,62.292,160.351c61.481,27.078,133.272-0.811,160.351-62.292l128.68,0.4     c24.167-0.079,44.204-18.74,46-42.84c5.747-3.75,10.595-8.721,14.2-14.56c4.472-7.208,6.854-15.517,6.88-24v-2.4h5.96     c5.523-0.013,10.816-2.213,14.72-6.12c3.931-3.907,6.147-9.217,6.16-14.76v-60C455.57,167.891,446.216,158.537,434.672,158.515z      M133.192,55.435h249.64c16.519,0.066,29.894,13.441,29.96,29.96v73.12h-4.84v-37.76c-0.066-25.506-20.773-46.142-46.28-46.12     h-249.44l0.16,0.2h-3.76c-1.147,0.08-2.293,0.213-3.44,0.4C109.5,63.455,120.649,55.571,133.192,55.435z M196.483,368.887     c-41.2,41.185-107.987,41.172-149.171-0.029S6.14,260.871,47.34,219.687s107.987-41.172,149.171,0.029v0.24     c19.751,19.708,30.859,46.458,30.88,74.36C227.384,322.287,216.266,349.111,196.483,368.887z M391.632,297.515     c-0.066,16.519-13.441,29.894-29.96,29.96h-122.8c2.609-9.123,4.139-18.521,4.56-28l0.12,0.64v-4c0-0.507,0-1.027,0-1.56     c-0.088-67.117-54.523-121.48-121.64-121.48c-5,0.024-9.995,0.331-14.96,0.92c-8.401,1.127-16.678,3.042-24.72,5.72v-59.16     c0.075-15.201,11.465-27.964,26.56-29.76h252.88c16.519,0.066,29.894,13.441,29.96,29.96v37.76h-83.36     c-20.32,0-50.88,14.88-50.88,50.88c0,36.52,30.24,50.88,50.88,50.88h83.36V297.515z M408.352,278.155l-0.4,0.64v-18.68h4.64     l0.16,2.4C412.766,268.036,411.243,273.452,408.352,278.155z M439.392,239.395c0.012,1.256-0.478,2.466-1.36,3.36     c-0.897,0.879-2.104,1.368-3.36,1.36h-34.96h-91.44c-0.029,0-0.057-0.001-0.086-0.001c-19.394-0.266-34.901-16.205-34.634-35.599     c0-0.31,0.003-0.621,0.011-0.931c0.486-18.683,16.026-33.435,34.709-32.948h126.36c2.62,0.022,4.738,2.14,4.76,4.76V239.395z" data-original="#000000" class="active-path" data-old_color="#000000" fill="white"/>
			<path d="M121.912,197.075v0.24c-25.762-0.099-50.504,10.062-68.76,28.24c-18.236,18.236-28.481,42.969-28.482,68.758     c-0.001,53.704,43.534,97.241,97.238,97.242s97.241-43.534,97.242-97.238S175.616,197.076,121.912,197.075z M179.256,351.74     c-31.657,31.67-82.994,31.681-114.664,0.024C32.921,320.107,32.91,268.77,64.567,237.1c31.657-31.67,82.994-31.681,114.664-0.024     l0.04,0.16c15.175,15.153,23.708,35.715,23.72,57.16C202.998,315.902,194.46,336.529,179.256,351.74z" data-original="#000000" class="active-path" data-old_color="#000000" fill="white"/>
			<path d="M152.592,294.195c-6.979-4.185-14.736-6.907-22.8-8v-29.2c3.639,0.453,7.227,1.243,10.72,2.36     c3.474,1.287,7.064,2.238,10.72,2.84c5.173,0,7.76-2.813,7.76-8.44c0-2.72-2.053-5.147-6.16-7.28     c-7.282-3.138-15.077-4.914-23-5.24v-10.48c0-4.418-3.582-8-8-8s-8,3.582-8,8l0.08,11.12c-6.943,1.263-13.493,4.141-19.12,8.4     c-7.666,5.201-12.263,13.856-12.28,23.12c-0.133,6.786,2.807,13.269,8,17.64c2.732,2.029,5.77,3.608,9,4.68     c3.239,1.232,6.569,2.208,9.96,2.92l4.44,0.76v31.68c-4.069-0.626-8.082-1.576-12-2.84c-4.188-1.53-8.496-2.708-12.88-3.52     c-5.333,0-8,3.187-8,9.56c0,3.627,4.253,6.773,12.76,9.44c6.484,2.122,13.198,3.465,20,4v10.24c0,4.418,3.582,8,8,8s8-3.582,8-8     v-10.8c7.686-0.75,15.038-3.509,21.32-8c7.591-5.583,11.897-14.586,11.48-24C163.23,306.886,159.421,298.902,152.592,294.195z      M113.832,283.715h-0.68c-2.164-0.451-4.29-1.066-6.36-1.84c-2.111-0.584-3.985-1.815-5.36-3.52     c-1.045-1.66-1.562-3.599-1.48-5.56c0.015-4.767,2.517-9.18,6.6-11.64c2.225-1.523,4.684-2.672,7.28-3.4V283.715z      M145.272,316.315c0.083,4.73-2.457,9.117-6.6,11.4c-2.732,1.587-5.726,2.671-8.84,3.2v-28.8l0.16,0.12     c3.244,0.74,6.386,1.868,9.36,3.36C143.284,307.67,145.61,311.882,145.272,316.315z" data-original="#000000" class="active-path" data-old_color="#000000" fill="white"/>
			<circle cx="311.672" cy="209.395" r="13.44" data-original="#000000" class="active-path" data-old_color="#000000" fill="white"/>
		</g>
	</g>
</g></g> </svg>
