<?xml version="1.0" encoding="UTF-8"?>
<svg width="24px" height="24px" viewBox="0 0 24 24" version="1.1" xmlns="http://www.w3.org/2000/svg" xmlns:xlink="http://www.w3.org/1999/xlink">
    <!-- Generator: Sketch 51.3 (57544) - http://www.bohemiancoding.com/sketch -->
    <title>Tab bar/ic/Inicio-activo</title>
    <desc>Created with Sketch.</desc>
    <defs>
        <path d="M16.533266,20 L15,20 C14.7238576,20 14.5,19.7761424 14.5,19.5 C14.5,19.2238576 14.7238576,19 15,19 L16.6872499,19 L17.1492015,16 L15,16 C14.7238576,16 14.5,15.7761424 14.5,15.5 C14.5,15.2238576 14.7238576,15 15,15 L17.3031854,15 L17.6169581,12.9623014 C17.4147902,12.987186 17.2088897,13 17,13 C16.7238576,13 16.5,12.7761424 16.5,12.5 C16.5,12.2238576 16.7238576,12 17,12 C17.3603138,12 17.7095127,11.9523397 18.0416354,11.8629805 C18.0698949,11.8521478 18.0992777,11.8438311 18.1294668,11.8382629 C19.7884819,11.3507294 21,9.81663476 21,8 C21,5.79114237 19.2088576,4 17,4 C16.6370547,4 16.2787596,4.05133217 15.9282128,4.15111302 C15.9754124,4.42702245 16,4.71064331 16,5 C16,5.27614237 15.7761424,5.5 15.5,5.5 C15.2238576,5.5 15,5.27614237 15,5 C15,2.79114237 13.2088576,1 11,1 C8.79114237,1 7,2.79114237 7,5 C7,5.27614237 6.77614237,5.5 6.5,5.5 C6.22385763,5.5 6,5.27614237 6,5 C6,4.71057661 6.02459892,4.42689171 6.07181982,4.15092224 C5.72231271,4.0511962 5.36337962,3.9998 4.9996,3.9998 C2.79074237,3.9998 0.9996,5.79094237 0.9996,7.9998 C0.9996,9.81689248 2.21078411,11.3506032 3.86982029,11.8380589 C3.90068073,11.8436782 3.93070381,11.8521688 3.95955156,11.8632829 C4.29118768,11.9523202 4.63984583,11.9998 4.9996,11.9998 C5.27574237,11.9998 5.4996,12.2236576 5.4996,12.4998 C5.4996,12.7759424 5.27574237,12.9998 4.9996,12.9998 C4.7909784,12.9998 4.58534143,12.9870258 4.38342881,12.9622167 L5.92910109,23.0001 L16.0712989,23.0001 L16.533266,20 Z M3.33366741,12.7155977 C1.39127638,12.0295052 -0.0004,10.1774204 -0.0004,7.9998 C-0.0004,5.23865763 2.23845763,2.9998 4.9996,2.9998 C5.45495022,2.9998 5.90360405,3.06372685 6.33883523,3.18720297 C7.06487428,1.32203849 8.87823338,0 11,0 C13.1218357,0 14.9352438,1.32212458 15.6612357,3.18738515 C16.0972907,3.06391082 16.5452589,3 17,3 C19.7611424,3 22,5.23885763 22,8 C22,10.1767313 20.6085791,12.0288694 18.6667651,12.7153866 L16.9943756,23.5761951 C16.9568212,23.8200807 16.74696,24.0001 16.5002,24.0001 L5.5002,24.0001 C5.25343996,24.0001 5.04357884,23.8200807 5.00602438,23.5761951 L3.33366741,12.7155977 Z" id="path-1"></path>
    </defs>
    <g id="Tab-bar/ic/Inicio-activo" stroke="none" stroke-width="1" fill="none" fill-rule="evenodd">
        <g id="bg/fill/Amarillo" transform="translate(1.000000, 0.000000)">
            <mask id="mask-2" fill="white">
                <use xlink:href="#path-1"></use>
            </mask>
            <use id="Mask" fill="#F5A623" fill-rule="nonzero" xlink:href="#path-1"></use>
            <g mask="url(#mask-2)" fill="#F5A623" id="Rectangle">
                <g transform="translate(-1.000000, 0.000000)">
                    <rect x="0" y="0" width="24" height="24"></rect>
                </g>
            </g>
        </g>
    </g>
</svg>