<svg height="512" viewBox="0 0 512 512" width="512" xmlns="http://www.w3.org/2000/svg"><g id="flat"><path d="m128 112-104-88v376l104 88 16-24v-360z" fill="#599b32"/><path d="m384 112-128-88-128 88v376l128-88 128 88 24-40v-336z" fill="#5eae35"/><path d="m256 24v376l128 88v-376z" fill="#599b32"/><path d="m384 112v376l104-88v-376z" fill="#5eae35"/><path d="m256 368-79.877-119.815a96 96 0 0 1 -16.123-53.251v-2.934a96 96 0 0 1 96-96 96 96 0 0 1 96 96v2.934a96 96 0 0 1 -16.123 53.251z" fill="#fb0200"/><path d="m180.568 254.852 75.432 113.148 79.877-119.815a96 96 0 0 0 16.123-53.251v-2.934a95.566 95.566 0 0 0 -17.718-55.583 257.043 257.043 0 0 1 -153.714 118.435z" fill="#e50000"/><path d="m240 176c0-13.255-7.164-24-16-24s-16 10.745-16 24c0 8.882 3.219 16.631 8 20.781v67.219h16v-67.219c4.781-4.15 8-11.899 8-20.781z" fill="#ffc933"/><path d="m296 156v16a4 4 0 0 1 -4 4h-8a4 4 0 0 1 -4-4v-16a4 4 0 0 0 -4-4 4 4 0 0 0 -4 4v28a15.98 15.98 0 0 0 8 13.842v66.158h16v-66.158a15.98 15.98 0 0 0 8-13.842v-28a4 4 0 0 0 -4-4 4 4 0 0 0 -4 4z" fill="#ffc933"/><g fill="#ffb600"><path d="m216 242.24v21.76h16v-29.511q-7.845 4.139-16 7.751z"/><path d="m296 197.842a15.98 15.98 0 0 0 8-13.842v-5.9a258.04 258.04 0 0 1 -24 23.624v62.276h16z"/></g></g></svg>