<?xml version="1.0" encoding="utf-8"?>
<!-- Generator: Adobe Illustrator 23.1.0, SVG Export Plug-In . SVG Version: 6.00 Build 0)  -->
<svg version="1.1" id="Capa_1" xmlns="http://www.w3.org/2000/svg" xmlns:xlink="http://www.w3.org/1999/xlink" x="0px" y="0px"
	 viewBox="0 0 800 800" style="enable-background:new 0 0 800 800;" xml:space="preserve">
<style type="text/css">
	.st0{fill:#606060;}
	.st1{fill:url(#SVGID_1_);}
	.st2{fill:url(#SVGID_2_);}
	.st3{fill:url(#SVGID_3_);}
	.st4{fill:url(#SVGID_4_);}
	.st5{fill:url(#SVGID_5_);}
	.st6{fill:url(#SVGID_6_);}
	.st7{fill:#FFFFFF;}
	.st8{fill:url(#SVGID_7_);}
	.st9{fill:url(#SVGID_8_);}
	.st10{fill:url(#SVGID_9_);}
	.st11{fill:url(#SVGID_10_);}
	.st12{fill:url(#SVGID_11_);}
	.st13{fill:url(#SVGID_12_);}
	.st14{fill:url(#SVGID_13_);}
	.st15{fill:url(#SVGID_14_);}
	.st16{fill:url(#SVGID_15_);}
	.st17{fill:url(#SVGID_16_);}
	.st18{fill:url(#SVGID_17_);}
	.st19{fill:url(#SVGID_18_);}
	.st20{fill:url(#SVGID_19_);}
	.st21{fill:url(#SVGID_20_);}
	.st22{fill:url(#SVGID_21_);}
	.st23{fill:url(#SVGID_22_);}
	.st24{fill:url(#SVGID_23_);}
	.st25{fill:url(#SVGID_24_);}
	.st26{fill:url(#SVGID_25_);}
	.st27{fill:url(#SVGID_26_);}
	.st28{fill:url(#SVGID_27_);}
	.st29{fill:url(#SVGID_28_);}
	.st30{fill:url(#SVGID_29_);}
	.st31{fill:url(#SVGID_30_);}
	.st32{fill:url(#SVGID_31_);}
	.st33{fill:url(#SVGID_32_);}
	.st34{fill:url(#SVGID_33_);}
	.st35{fill:url(#SVGID_34_);}
	.st36{fill:url(#SVGID_35_);}
	.st37{fill:url(#SVGID_36_);}
	.st38{fill:url(#SVGID_37_);}
	.st39{fill:url(#SVGID_38_);}
	.st40{fill:url(#SVGID_39_);}
	.st41{fill:url(#SVGID_40_);}
	.st42{fill:url(#SVGID_41_);}
	.st43{fill:url(#SVGID_42_);}
</style>
<g>
	<linearGradient id="SVGID_1_" gradientUnits="userSpaceOnUse" x1="386.9055" y1="705.241" x2="386.9055" y2="112.6863">
		<stop  offset="0" style="stop-color:#349FBA"/>
		<stop  offset="1" style="stop-color:#8C0E8C"/>
	</linearGradient>
	<path class="st1" d="M71,696.48c0-2.47,0-4.94,0-7.4c5.09-10.99,15.6-8.2,24.35-8.77c0-115.53,0-230.21,0-344.85
		c-19.84-2.6-19.84-2.6-24.35-9.22c0-27.15,0-54.3,0-81.45c3.62-6.71,9.19-9.54,16.78-8.68c2.44,0.28,4.96-0.21,7.39,0.1
		c3.82,0.49,5.57-1.24,7.6-4.43c14.33-22.59,21.02-46.88,17.61-73.65c-0.15-1.21-0.02-2.47-0.02-3.7
		c0.01-26.88,14.72-41.69,41.44-41.69c125.24,0,250.48,0,375.73,0c26.12,0,52.24-0.11,78.35,0.04c21.4,0.12,37.25,16.11,37.52,37.55
		c0.08,6.38,0.58,12.81-0.09,19.12c-1.94,18.47,3.21,34.72,11.73,51.08c5.83,11.2,11.17,18.05,24.92,15.91
		c7.54-1.17,12.7,4.8,12.75,12.6c0.14,24.27,0.14,48.54,0,72.81c-0.05,8.09-5.07,12.78-13.28,13.01c-3.63,0.1-7.26,0.02-10.89,0.02
		c0,115.58,0,230.42,0,345.63c4.53,0,8.65-0.25,12.72,0.06c6.65,0.5,11.5,5.87,11.47,12.26c-0.03,6.4-4.89,11.58-11.56,12.22
		c-1.63,0.16-3.29,0.08-4.93,0.08c-199.48,0-398.97-0.03-598.45,0.13C80.21,705.25,74.62,703.19,71,696.48z M652.97,680.16
		c0-115.33,0-230.15,0-344.79c-177.76,0-355.08,0-532.27,0c0,115.18,0,229.86,0,344.65c8.22,0,16.1,0,24.34,0c0-2.85,0-5.29,0-7.73
		c0-90.7,0-181.39,0-272.09c0-11.88,4.07-15.96,15.93-15.96c49.14-0.01,98.29-0.01,147.43,0c13.01,0,16.78,3.82,16.78,16.98
		c0,90.49,0,180.98,0,271.47c0,2.4,0,4.81,0,7.48C434.75,680.16,543.65,680.16,652.97,680.16z M645.64,235.93
		c-3.46-6.96-6.74-12.88-9.37-19.08c-1.78-4.19-4.18-5.53-8.78-5.52c-62.1,0.17-124.2,0.12-186.3,0.11c-2.26,0-4.56,0.14-6.77-0.2
		c-6-0.92-10.37-6.05-10.46-11.96c-0.09-6.15,4.45-11.49,10.72-12.34c2.23-0.3,4.52-0.17,6.78-0.17
		c59.84-0.01,119.68-0.01,179.52-0.01c2.41,0,4.81,0,7.78,0c0-11.07,0-21.5,0-31.94c0-13.88-3.58-17.43-17.57-17.43
		c-149.49,0-298.99,0-448.48,0c-2.06,0-4.13-0.12-6.16,0.09c-5.73,0.6-10.54,3.8-10.85,9.28c-0.75,13.21-0.24,26.5-0.24,39.99
		c3.02,0,5.47,0,7.93,0c59.63,0,119.27,0,178.9,0c1.85,0,3.71-0.08,5.55,0.05c7.02,0.51,12.08,5.77,12.02,12.39
		c-0.06,6.62-5.16,11.73-12.23,12.2c-1.64,0.11-3.29,0.04-4.93,0.04c-16.45,0-32.9,0-49.35,0c-45.86,0-91.71-0.02-137.57,0.07
		c-2.05,0-5.22,0.32-5.95,1.59c-4.13,7.24-7.67,14.82-11.69,22.82C300.94,235.93,472.8,235.93,645.64,235.93z M95.94,309.74
		c194.32,0,388.08,0,581.85,0c0-16.41,0-32.37,0-48.58c-194.06,0-387.82,0-581.85,0C95.94,277.46,95.94,293.42,95.94,309.74z
		 M170.15,409.19c0,41.27,0,82.05,0,122.65c43.68,0,86.91,0,130.03,0c0-41.12,0-81.75,0-122.65
		C256.76,409.19,213.67,409.19,170.15,409.19z M300.08,680.16c0-41.25,0-82.02,0-122.65c-43.67,0-86.9,0-130.04,0
		c0,41.11,0,81.74,0,122.65C213.45,680.16,256.53,680.16,300.08,680.16z"/>
	<linearGradient id="SVGID_2_" gradientUnits="userSpaceOnUse" x1="489.3021" y1="655.7536" x2="489.3021" y2="384.2366">
		<stop  offset="0" style="stop-color:#349FBA"/>
		<stop  offset="1" style="stop-color:#8C0E8C"/>
	</linearGradient>
	<path class="st2" d="M489.58,384.24c40.9,0,81.81,0,122.71,0c12.39,0,16.44,3.95,16.44,16.07c0.01,79.77,0.01,159.53,0,239.3
		c0,12.13-4.07,16.13-16.39,16.13c-82.01,0.01-164.03,0.01-246.04,0c-12.53,0-16.43-3.97-16.43-16.7c0-79.36,0-158.71,0-238.07
		c0-12.99,3.82-16.74,17-16.74C407.77,384.24,448.68,384.24,489.58,384.24z M374.99,409.19c0,74.19,0,147.88,0,221.38
		c76.58,0,152.72,0,228.74,0c0-74.04,0-147.58,0-221.38C527.4,409.19,451.41,409.19,374.99,409.19z"/>
	<linearGradient id="SVGID_3_" gradientUnits="userSpaceOnUse" x1="386.8839" y1="211.416" x2="386.8839" y2="186.8107">
		<stop  offset="0" style="stop-color:#349FBA"/>
		<stop  offset="1" style="stop-color:#8C0E8C"/>
	</linearGradient>
	<path class="st3" d="M399.18,199.21c-0.06,6.81-5.92,12.43-12.7,12.2c-6.56-0.22-11.93-5.83-11.88-12.4
		c0.05-6.81,5.89-12.42,12.69-12.19C393.85,187.04,399.23,192.65,399.18,199.21z"/>
	<linearGradient id="SVGID_4_" gradientUnits="userSpaceOnUse" x1="489.2207" y1="606.4627" x2="489.2207" y2="433.5708">
		<stop  offset="0" style="stop-color:#349FBA"/>
		<stop  offset="1" style="stop-color:#8C0E8C"/>
	</linearGradient>
	<path class="st4" d="M505.26,506.98c6.74,8.35,13.02,16.49,19.8,24.2c1.3,1.48,4.66,2.08,6.83,1.7
		c19.37-3.36,38.09,8.69,42.65,27.76c4.58,19.12-6.46,38.75-25.22,44.11c-14.78,4.23-27.9,0.62-38.1-10.81
		c-10.37-11.61-12.34-25.11-6.31-39.6c0.71-1.7,1.56-3.34,2.52-5.39c-5.84-7.21-11.73-14.49-18.13-22.38
		c-6.34,7.84-12.24,15.12-17,21.01c1.73,8.52,4.37,15.66,4.41,22.81c0.12,20.9-18.49,37.36-39.48,35.9
		c-20.75-1.44-36.69-20.77-34.08-41.33c2.7-21.22,22.59-35.98,43.41-31.88c3.81,0.75,6-0.03,8.31-3.05
		c5.86-7.67,12.06-15.08,18.54-23.09c-6.42-7.96-12.82-15.91-19.23-23.84c-7.5-9.27-15.06-18.49-22.5-27.8
		c-5.62-7.03-5.28-14.34,0.72-19.02c5.81-4.53,12.8-3.36,18.3,3.36c12.74,15.58,25.36,31.26,38.6,47.61
		c2.42-2.95,4.58-5.56,6.72-8.2c10.87-13.42,21.64-26.91,32.63-40.23c5.1-6.18,12.4-6.9,17.94-2.25c5.32,4.48,5.81,11.33,1.24,17.66
		c-0.48,0.67-1.02,1.29-1.54,1.93c-12.28,15.18-24.57,30.35-36.85,45.53C508.14,503.3,506.88,504.93,505.26,506.98z M439.8,581.66
		c6.8,0.08,12.53-5.66,12.44-12.46c-0.09-6.57-5.57-12.05-12.15-12.13c-6.56-0.08-12.19,5.28-12.43,11.84
		C427.4,575.7,432.99,581.57,439.8,581.66z M538.36,581.66c6.54,0.16,12.25-5.14,12.58-11.7c0.35-6.77-5.2-12.73-12-12.89
		c-6.57-0.16-12.25,5.12-12.57,11.69C526.04,575.55,531.56,581.49,538.36,581.66z"/>
</g>
</svg>
