<?xml version="1.0"?>
<svg xmlns="http://www.w3.org/2000/svg" height="512px" viewBox="-65 0 512 512" width="512px"><g><path d="m136.328125 359.050781c-4.140625 0-7.5 3.359375-7.5 7.5v9.097657c0 4.140624 3.359375 7.5 7.5 7.5 4.144531 0 7.5-3.359376 7.5-7.5v-9.097657c0-4.140625-3.355469-7.5-7.5-7.5zm23.53125-65.976562c-4.144531 0-7.5 3.359375-7.5 7.5s3.355469 7.5 7.5 7.5h7.976563v5.6875c0 4.140625 3.355468 7.5 7.5 7.5 4.144531 0 7.5-3.359375 7.5-7.5v-5.6875h8.75v5.144531c0 4.140625 3.359374 7.5 7.5 7.5 4.144531 0 7.5-3.359375 7.5-7.5v-5.253906c14.203124-1.207032 25.394531-13.144532 25.394531-27.65625 0-7.988282-3.394531-15.195313-8.816407-20.265625 5.417969-5.070313 8.816407-12.277344 8.816407-20.265625 0-14.507813-11.191407-26.449219-25.394531-27.65625v-5.253906c0-4.140626-3.355469-7.5-7.5-7.5-4.140626 0-7.5 3.359374-7.5 7.5v5.144531h-8.75v-5.683594c0-4.144531-3.355469-7.5-7.5-7.5-4.144532 0-7.5 3.355469-7.5 7.5v5.683594h-7.976563c-4.144531 0-7.5 3.359375-7.5 7.5 0 4.144531 3.355469 7.5 7.5 7.5h7.976563v25.53125h-7.976563c-4.144531 0-7.5 3.359375-7.5 7.5 0 4.144531 3.355469 7.5 7.5 7.5h7.976563v25.53125zm22.976563-66.0625h21.378906c7.039062 0 12.765625 5.726562 12.765625 12.765625 0 7.039062-5.726563 12.765625-12.765625 12.765625h-21.378906zm0 40.53125h21.378906c7.039062 0 12.765625 5.726562 12.765625 12.765625 0 7.039062-5.726563 12.765625-12.765625 12.765625h-21.378906zm63.074218 91.507812c-4.140625 0-7.5 3.359375-7.5 7.5v9.097657c0 4.140624 3.359375 7.5 7.5 7.5 4.144532 0 7.5-3.359376 7.5-7.5v-9.097657c0-4.140625-3.355468-7.5-7.5-7.5zm-35.417968 11.347657c-3.121094-2.722657-7.859376-2.398438-10.582032.722656-2.21875 2.550781-5.421875 4.011718-8.789062 4.011718-3.367188 0-6.570313-1.460937-8.792969-4.011718-2.722656-3.121094-7.460937-3.445313-10.582031-.722656-3.121094 2.71875-3.445313 7.457031-.726563 10.578124 5.070313 5.820313 12.394531 9.15625 20.101563 9.15625 7.703125 0 15.027344-3.335937 20.097656-9.15625 2.722656-3.121093 2.398438-7.859374-.726562-10.578124zm-158.046876-298.320313v341.679687c0 13.988282 11.382813 25.375 25.375 25.375h226.597657c13.992187 0 25.378906-11.386718 25.378906-25.375v-341.679687c0-13.992187-11.386719-25.375-25.378906-25.375h-226.597657c-13.992187 0-25.375 11.382813-25.375 25.375zm262.351563 0v341.679687c0 5.71875-4.65625 10.375-10.378906 10.375h-226.597657c-5.722656 0-10.375-4.65625-10.375-10.375v-341.679687c0-5.722656 4.652344-10.375 10.375-10.375h226.597657c5.722656 0 10.378906 4.652344 10.378906 10.375zm38.183594 134.089844c-4.144531 0-7.5 3.359375-7.5 7.5v234.371093c0 26.996094-21.964844 48.960938-48.960938 48.960938h-197.589843c-4.140626 0-7.5 3.359375-7.5 7.5s3.359374 7.5 7.5 7.5h197.59375c35.265624 0 63.957031-28.691406 63.957031-63.960938v-234.371093c0-4.140625-3.359375-7.5-7.5-7.5zm-248.53125 53.875c0 47.789062 38.882812 86.671875 86.671875 86.671875 47.789062 0 86.667968-38.882813 86.667968-86.671875 0-35.316407-21.234374-65.761719-51.605468-79.25v-27.058594h13.109375c6.769531 0 12.605469-4.125 14.863281-10.507813 2.261719-6.382812.320312-13.261718-4.941406-17.519531l-40.402344-32.703125c-10.253906-8.296875-25.132812-8.296875-35.382812 0l-40.402344 32.703125c-5.265625 4.257813-7.203125 11.136719-4.945313 17.519531 2.261719 6.382813 8.097657 10.507813 14.867188 10.507813h13.105469v27.058594c-30.367188 13.488281-51.605469 43.933593-51.605469 79.25zm38.496093-121.3125c-.226562 0-.542968 0-.722656-.511719-.183594-.511719.0625-.710938.238282-.855469l40.402343-32.703125c4.785157-3.867187 11.726563-3.867187 16.507813 0l40.40625 32.703125c.175781.144531.421875.34375.238281.855469-.179687.511719-.496094.511719-.722656.511719h-20.609375c-4.144532 0-7.5 3.359375-7.5 7.5v29.492187c-6.441406-1.53125-13.160156-2.347656-20.066406-2.347656-6.902344 0-13.621094.816406-20.0625 2.347656v-29.492187c0-4.140625-3.355469-7.5-7.5-7.5zm48.175782 49.644531c39.519531 0 71.667968 32.148438 71.667968 71.667969s-32.148437 71.671875-71.667968 71.671875c-39.519532 0-71.671875-32.152344-71.671875-71.671875s32.152343-71.667969 71.671875-71.667969zm-88.785156 272.855469c-4.144532 0-7.5 3.359375-7.5 7.5s3.355468 7.5 7.5 7.5h22.910156c4.144531 0 7.5-3.359375 7.5-7.5s-3.355469-7.5-7.5-7.5zm263.875-385.140625h-5.730469v-12.128906c0-35.269532-28.691407-63.960938-63.960938-63.960938h-210.800781c-35.269531 0-63.957031 28.691406-63.957031 63.960938v12.128906h-5.734375c-8.835938 0-16.027344 7.191406-16.027344 16.027344v47.15625c0 8.835937 7.191406 16.027343 16.027344 16.027343h5.734375v11.242188h-5.734375c-8.835938 0-16.027344 7.191406-16.027344 16.03125v47.152343c0 8.835938 7.191406 16.027344 16.027344 16.027344h5.734375v202.285156c0 26.472657 15.914062 49.839844 40.542969 59.535157.902343.355469 1.832031.523437 2.746093.523437 2.988281 0 5.816407-1.804687 6.976563-4.753906 1.519531-3.855469-.375-8.210938-4.230469-9.726562-18.855469-7.421876-31.035156-25.3125-31.035156-45.578126v-384.078124c0-26.996094 21.960937-48.960938 48.957031-48.960938h210.804688c26.996093 0 48.957031 21.964844 48.957031 48.960938v115.210937c0 4.140625 3.359375 7.5 7.5 7.5s7.5-3.359375 7.5-7.5v-23.871094h5.730469c8.839843 0 16.03125-7.191406 16.03125-16.027343v-47.152344c0-8.839844-7.191407-16.03125-16.03125-16.03125zm-344.449219 154.667968h-5.734375c-.566406 0-1.027344-.460937-1.027344-1.03125v-47.152343c0-.566407.460938-1.027344 1.027344-1.027344h5.734375zm0-90.457031h-5.734375c-.566406 0-1.027344-.460937-1.027344-1.027343v-47.152344c0-.566406.460938-1.03125 1.027344-1.03125h5.734375zm345.480469-1.027343c0 .566406-.464844 1.027343-1.03125 1.027343h-5.730469v-49.210937h5.730469c.566406 0 1.03125.460937 1.03125 1.027344zm-110.25 321.957031c-4.144532 0-7.5 3.359375-7.5 7.5s3.355468 7.5 7.5 7.5h22.910156c4.144531 0 7.5-3.359375 7.5-7.5s-3.355469-7.5-7.5-7.5zm-49.488282-422.472657c4.144532 0 7.5-3.359374 7.5-7.5 0-4.140624-3.355468-7.5-7.5-7.5h-32.769531c-4.140625 0-7.5 3.359376-7.5 7.5 0 4.140626 3.359375 7.5 7.5 7.5zm0 0" data-original="#000000" class="active-path" data-old_color="#000000" fill="#FFFFFF"/></g> </svg>
