<?xml version="1.0" encoding="UTF-8"?>
<svg width="36px" height="36px" viewBox="0 0 36 36" version="1.1" xmlns="http://www.w3.org/2000/svg" xmlns:xlink="http://www.w3.org/1999/xlink">
    <!-- Generator: Sketch 51.3 (57544) - http://www.bohemiancoding.com/sketch -->
    <title>Menu/ic/Sospechoso</title>
    <desc>Created with Sketch.</desc>
    <defs>
        <linearGradient x1="3.76362418%" y1="3.76362418%" x2="97.2572992%" y2="97.2572992%" id="linearGradient-1">
            <stop stop-color="#A0D468" offset="0%"></stop>
            <stop stop-color="#6EAF27" offset="100%"></stop>
        </linearGradient>
    </defs>
    <g id="Menu/ic/Sospechoso" stroke="none" stroke-width="1" fill="none" fill-rule="evenodd" stroke-linecap="round" stroke-linejoin="round">
        <path d="M11.7735701,21.599 C12.1424316,23.7028783 11.6025811,25.8987275 12.8815,27.9106 L15.0465,31.3186 C15.5915,32.1756 14.7125,33.6646 13.7315,33.6646 L10.4825,33.6646 C9.5005,33.6646 8.4575,32.8676 8.2235,31.8776 L5.78859476,21.599 L4.681,21.599 C3.207,21.599 2,20.393 2,18.918 L2,14.769 C2,13.293 3.206,12.087 4.681,12.087 L13.2269,12.087 C13.2269,11.689255 13.549255,11.3669 13.9469,11.3669 C14.3281496,11.3669 14.6401898,11.6632208 14.6652733,12.0381151 C21.6264931,11.2816617 27.9469064,2 29.004,2 L29.323,2 C30.412,2 31.302,2.891 31.302,3.979 L31.302,12.0392409 C33.3714067,12.6550444 34.8816,14.5724005 34.8816,16.8423 C34.8816,19.1131947 33.3714067,21.0315458 31.302,21.6463736 L31.302,29.707 C31.302,30.795 30.412,31.686 29.323,31.686 L29.004,31.686 C27.9469114,31.686 21.6256325,22.4044257 14.6652592,21.6478956 C14.6400729,22.0226902 14.3280782,22.3189 13.9469,22.3189 C13.5492883,22.3189 13.226954,21.9965991 13.2269,21.599 L11.7735701,21.599 Z M31.302,12.0392409 C31.29188,12.0362294 31.2817466,12.0332491 31.2716,12.0303 L31.2716,21.6553 C31.2817466,21.6523558 31.29188,21.6493803 31.302,21.6463736 L31.302,12.0392409 Z M14.6652733,12.0381151 C14.3695538,12.07025 14.0726779,12.087 13.775,12.087 L13.2269,12.087 L13.2269,21.5989 L13.775,21.599 C14.0726702,21.599 14.3695415,21.6157537 14.6652592,21.6478956 C14.6663472,21.6317045 14.6669,21.6153668 14.6669,21.5989 L14.6669,12.0869 C14.6669,12.0705046 14.666352,12.0542372 14.6652733,12.0381151 Z M11.7735701,21.599 L5.78859476,21.599 L11.7735,21.5986 Z" id="Combined-Shape" stroke="url(#linearGradient-1)" stroke-width="1.44"></path>
    </g>
</svg>