<?xml version="1.0" encoding="UTF-8"?>
<svg width="24px" height="24px" viewBox="0 0 24 24" version="1.1" xmlns="http://www.w3.org/2000/svg" xmlns:xlink="http://www.w3.org/1999/xlink">
    <!-- Generator: Sketch 51.3 (57544) - http://www.bohemiancoding.com/sketch -->
    <title>Tab bar/ic/Mis tickets</title>
    <desc>Created with Sketch.</desc>
    <defs></defs>
    <g id="Tab-bar/ic/Mis-tickets" stroke="none" stroke-width="1" fill="none" fill-rule="evenodd" stroke-linecap="round" stroke-linejoin="round">
        <g id="Group-23" transform="translate(3.000000, 0.000000)" stroke="#242424">
            <path d="M3.5,4.5 L9.5,4.5" id="Stroke-1"></path>
            <path d="M3.5,7.5 L9.5,7.5" id="Stroke-2"></path>
            <path d="M3.5,10.5 L9.5,10.5" id="Stroke-3"></path>
            <path d="M3.5,13.5 L9.5,13.5" id="Stroke-4"></path>
            <polygon id="Stroke-5" points="0.5 23.5 2.205 22.5 3.91 23.5 5.613 22.5 7.312 23.5 9.013 22.5 10.712 23.5 12.408 22.5 14.107 23.5 15.802 22.5 17.5 23.5 17.5 0.5 16 0.5 15.5 0.5 0.5 0.5"></polygon>
            <path d="M3.5,4.5 L9.5,4.5" id="Stroke-7"></path>
            <path d="M3.5,7.5 L9.5,7.5" id="Stroke-8"></path>
            <path d="M3.5,10.5 L9.5,10.5" id="Stroke-9"></path>
            <path d="M3.5,13.5 L9.5,13.5" id="Stroke-10"></path>
            <path d="M12.5,4.5 L13.5,4.5" id="Stroke-11"></path>
            <path d="M12.5,7.5 L13.5,7.5" id="Stroke-12"></path>
            <path d="M12.5,10.5 L13.5,10.5" id="Stroke-13"></path>
            <path d="M12.5,13.5 L13.5,13.5" id="Stroke-14"></path>
            <path d="M12.5,4.5 L13.5,4.5" id="Stroke-15"></path>
            <path d="M12.5,7.5 L13.5,7.5" id="Stroke-16"></path>
            <path d="M12.5,10.5 L13.5,10.5" id="Stroke-17"></path>
            <path d="M12.5,13.5 L13.5,13.5" id="Stroke-18"></path>
            <path d="M3.5,18.5 L9.5,18.5" id="Stroke-19"></path>
            <path d="M3.5,18.5 L9.5,18.5" id="Stroke-20"></path>
            <path d="M12.5,18.5 L13.5,18.5" id="Stroke-21"></path>
            <path d="M12.5,18.5 L13.5,18.5" id="Stroke-22"></path>
        </g>
    </g>
</svg>