<?xml version="1.0"?>
<svg xmlns="http://www.w3.org/2000/svg" xmlns:xlink="http://www.w3.org/1999/xlink" xmlns:svgjs="http://svgjs.com/svgjs" version="1.1" width="512" height="512" x="0" y="0" viewBox="0 0 24 24" style="enable-background:new 0 0 512 512" xml:space="preserve" class=""><g><path xmlns="http://www.w3.org/2000/svg" d="m15.75 12c-.414 0-.75-.336-.75-.75v-4.5c0-.414.336-.75.75-.75h1.25c1.103 0 2 .897 2 2s-.897 2-2 2h-.5v1.25c0 .414-.336.75-.75.75zm.75-3.5h.5c.276 0 .5-.224.5-.5s-.224-.5-.5-.5h-.5z" fill="#717171" data-original="#000000" style="" class=""/><path xmlns="http://www.w3.org/2000/svg" d="m7 12c-.337 0-.632-.225-.723-.549l-1.25-4.5c-.11-.399.123-.813.522-.924.398-.111.812.123.924.522l.527 1.899.527-1.898c.111-.4.526-.634.924-.523.399.111.632.525.522.924l-1.25 4.5c-.091.324-.386.549-.723.549z" fill="#717171" data-original="#000000" style="" class=""/><path xmlns="http://www.w3.org/2000/svg" d="m12 12c-.414 0-.75-.336-.75-.75v-4.5c0-.414.336-.75.75-.75s.75.336.75.75v4.5c0 .414-.336.75-.75.75z" fill="#717171" data-original="#000000" style="" class=""/><path xmlns="http://www.w3.org/2000/svg" d="m19 24h-14c-.552 0-1-.448-1-1s.448-1 1-1h14c.552 0 1 .448 1 1s-.448 1-1 1z" fill="#717171" data-original="#000000" style="" class=""/><path xmlns="http://www.w3.org/2000/svg" d="m11 14h2v9.25h-2z" fill="#717171" data-original="#000000" style="" class=""/><path xmlns="http://www.w3.org/2000/svg" d="m12 4.5c-.552 0-1-.448-1-1v-2.5c0-.552.448-1 1-1s1 .448 1 1v2.5c0 .552-.448 1-1 1z" fill="#717171" data-original="#000000" style="" class=""/><path xmlns="http://www.w3.org/2000/svg" d="m22 15h-20c-1.103 0-2-.897-2-2v-8c0-1.103.897-2 2-2h20c1.103 0 2 .897 2 2v8c0 1.103-.897 2-2 2zm-20-10v8h20.001l-.001-8z" fill="#717171" data-original="#000000" style="" class=""/></g></svg>
