<?xml version="1.0" encoding="UTF-8"?>
<svg width="70px" height="45px" viewBox="0 0 70 45" version="1.1" xmlns="http://www.w3.org/2000/svg" xmlns:xlink="http://www.w3.org/1999/xlink">
    <!-- Generator: Sketch 49 (51002) - http://www.bohemiancoding.com/sketch -->
    <title>ic/pago/visa</title>
    <desc>Created with Sketch.</desc>
    <defs>
        <linearGradient x1="50%" y1="0%" x2="50%" y2="100%" id="linearGradient-1">
            <stop stop-color="#282457" offset="0%"></stop>
            <stop stop-color="#16428F" offset="100%"></stop>
        </linearGradient>
    </defs>
    <g id="ic/pago/visa" stroke="none" stroke-width="1" fill="none" fill-rule="evenodd">
        <path d="M36.585,20.1243 C36.559,22.4823 38.687,23.7963 40.294,24.5813 C41.945,25.3823 42.497,25.8983 42.491,26.6143 C42.479,27.7133 41.174,28.1983 39.956,28.2173 C37.826,28.2503 36.591,27.6413 35.604,27.1833 L34.838,30.7713 C35.827,31.2253 37.653,31.6223 39.548,31.6413 C43.998,31.6413 46.909,29.4443 46.923,26.0393 C46.94,21.7183 40.947,21.4793 40.99,19.5483 C41.001,18.9623 41.562,18.3383 42.785,18.1773 C43.391,18.0983 45.066,18.0373 46.961,18.9093 L47.706,15.4373 C46.685,15.0673 45.375,14.7133 43.743,14.7133 C39.556,14.7133 36.607,16.9383 36.585,20.1243 Z M54.861,15.0123 C54.049,15.0123 53.363,15.4843 53.058,16.2123 L46.704,31.3853 L51.15,31.3853 L52.034,28.9393 L57.466,28.9393 L57.979,31.3853 L61.896,31.3853 L58.478,15.0123 L54.861,15.0123 Z M55.483,19.4363 L56.764,25.5843 L53.251,25.5843 L55.483,19.4363 Z M31.198,15.0123 L27.693,31.3853 L31.93,31.3853 L35.431,15.0123 L31.198,15.0123 Z M24.928,15.0123 L20.522,26.1553 L18.738,16.6813 C18.528,15.6233 17.702,15.0123 16.786,15.0123 L9.577,15.0123 L9.477,15.4873 C10.958,15.8083 12.637,16.3253 13.656,16.8803 C14.279,17.2173 14.457,17.5143 14.663,18.3173 L18.04,31.3853 L22.517,31.3853 L29.38,15.0123 L24.928,15.0123 Z" id="Fill-6" fill="url(#linearGradient-1)"></path>
    </g>
</svg>