<?xml version="1.0"?>
<svg xmlns="http://www.w3.org/2000/svg" xmlns:xlink="http://www.w3.org/1999/xlink" xmlns:svgjs="http://svgjs.com/svgjs" version="1.1" width="512" height="512" x="0" y="0" viewBox="0 0 512 512" style="enable-background:new 0 0 512 512" xml:space="preserve" class=""><g><g xmlns="http://www.w3.org/2000/svg"><path d="m119.557 269.906h147.752v30h-147.752z" fill="#717171" data-original="#000000" style="" class=""/><path d="m119.557 334.827h94.024v30h-94.024z" fill="#717171" data-original="#000000" style="" class=""/><path d="m119.557 399.747h208.306v30h-208.306z" fill="#717171" data-original="#000000" style="" class=""/><path d="m179.091 192.173h43.444v30h-43.444z" fill="#717171" data-original="#000000" style="" class=""/><path d="m119.557 192.173h29.534v30h-29.534z" fill="#717171" data-original="#000000" style="" class=""/><path d="m379.7 0c-18.762 0-36.581 6.456-50.787 18.094-14.206-11.638-32.024-18.094-50.786-18.094-43.291 0-78.67 34.443-80.222 77.362h-145.901v434.638h343.413v-335.574c29.519-28.441 45.198-43.755 46.73-45.649 11.511-14.225 17.85-32.152 17.85-50.48-.001-44.276-36.021-80.297-80.297-80.297zm-50.787 198.723c-37.056-35.55-85.234-81.929-90.145-87.108-7.157-8.975-10.938-19.795-10.938-31.318 0-27.734 22.563-50.297 50.296-50.297 15.249 0 29.509 6.817 39.123 18.705l11.663 14.419 11.663-14.419c9.616-11.888 23.875-18.705 39.125-18.705 27.733 0 50.296 22.563 50.296 50.297 0 11.522-3.78 22.342-10.938 31.317-4.905 5.175-53.087 51.557-90.145 87.109zm36.503 283.277h-283.412v-374.638h120.544c3.022 8.444 7.444 16.384 13.135 23.417 2.317 2.864 113.231 109.504 113.231 109.504l36.503-35.009v276.726z" fill="#717171" data-original="#000000" style="" class=""/></g></g></svg>
