<?xml version="1.0" encoding="UTF-8"?>
<svg width="106px" height="147px" viewBox="0 0 106 147" version="1.1" xmlns="http://www.w3.org/2000/svg" xmlns:xlink="http://www.w3.org/1999/xlink">
    <!-- Generator: Sketch 51.3 (57544) - http://www.bohemiancoding.com/sketch -->
    <title>Group 8 Copy 3</title>
    <desc>Created with Sketch.</desc>
    <defs>
        <polygon id="path-1" points="0.721903904 0.58 79.2045 0.58 79.2045 107.549661 0.721903904 107.549661"></polygon>
    </defs>
    <g id="Usuario" stroke="none" stroke-width="1" fill="none" fill-rule="evenodd">
        <g id="Login" transform="translate(-135.000000, -80.000000)">
            <g id="Group-8-Copy-3" transform="translate(135.000000, 79.000000)">
                <path d="M48.0361,41.9888 L48.0361,80.3408 L45.7841,80.3408 L45.7841,43.3138 C46.5351,42.8618 47.2871,42.4198 48.0361,41.9888" id="Fill-1" fill="white"></path>
                <g id="Group-5" transform="translate(14.000000, 0.420000)">
                    <mask id="mask-2" fill="white">
                        <use xlink:href="#path-1"></use>
                    </mask>
                    <g id="Clip-4"></g>
                    <path d="M5.3975,13.2363 C17.7485,4.3033 58.0835,-6.6877 59.3455,16.4733 C58.3145,28.3423 46.6075,32.0613 37.0845,37.5623 C36.1415,38.1143 35.1675,38.6863 34.1705,39.2743 L34.1705,3.7553 C33.4125,3.8493 32.6495,3.9573 31.8855,4.0803 L31.8855,40.6343 C-31.3475,78.6503 20.1135,114.5833 39.8495,106.3663 C15.5885,107.2823 -6.7295,84.4593 9.7525,61.0273 C16.2725,51.7573 26.8745,44.6353 36.6425,39.2633 C40.6825,37.0413 38.8535,36.8903 44.2535,40.4763 C80.5675,65.1683 73.5735,85.7323 48.6245,103.5243 L49.8705,103.6323 C50.1945,103.5603 50.8615,103.2013 51.0665,103.0933 C87.3775,83.3843 71.6815,53.0233 42.6025,36.4953 C52.6755,30.6323 78.8685,24.4183 79.2045,24.6603 C73.3155,23.9083 60.1775,28.0603 56.7175,28.4293 C78.1375,1.9363 39.0935,-7.5667 8.9435,8.3013 C-5.9265,16.0963 3.1535,23.7013 7.0425,19.5903 C9.9025,16.5663 6.5255,14.6233 5.3975,13.2363" id="Fill-3" fill="white" mask="url(#mask-2)"></path>
                </g>
                <path d="M30.218123,131.789872 C30.218123,132.611005 30.0627759,133.38774 29.752077,134.120102 C29.4413781,134.852464 29.0197217,135.501593 28.487095,136.067509 C27.9544683,136.633424 27.3275318,137.082821 26.6062665,137.415713 C25.8850012,137.748605 25.12491,137.915048 24.32597,137.915048 L13.373889,137.915048 L13.373889,114.279858 L23.826635,114.279858 C24.6477678,114.279858 25.3912147,114.457398 26.056998,114.812482 C26.7227813,115.167567 27.2886887,115.62806 27.754737,116.193976 C28.2207853,116.759891 28.5814126,117.403472 28.8366295,118.124738 C29.0918464,118.846003 29.219453,119.572805 29.219453,120.305167 C29.219453,121.503577 28.9143069,122.602103 28.3040055,123.600778 C27.6937041,124.599453 26.8670355,125.331804 25.823975,125.797852 C26.4897583,125.997587 27.0945024,126.297185 27.6382255,126.696655 C28.1819486,127.096125 28.6479899,127.562166 29.0363635,128.094793 C29.4247371,128.62742 29.718787,129.209971 29.918522,129.842466 C30.118257,130.47496 30.218123,131.124089 30.218123,131.789872 Z M29.552343,131.789872 C29.552343,131.079703 29.4247364,130.397286 29.1695195,129.742599 C28.9143026,129.087912 28.5647716,128.50536 28.120916,127.994926 C27.6770604,127.484492 27.1499899,127.07948 26.5396885,126.779878 C25.9293871,126.480275 25.2691619,126.330476 24.558993,126.330476 L14.039669,126.330476 L14.039669,137.249268 L24.32597,137.249268 C25.0583317,137.249268 25.7407493,137.093921 26.3732435,136.783222 C27.0057377,136.472523 27.5605488,136.061963 28.0376935,135.551529 C28.5148382,135.041095 28.8865617,134.458544 29.152875,133.803857 C29.4191883,133.14917 29.552343,132.477848 29.552343,131.789872 Z M14.039669,114.945638 L14.039669,125.664696 L23.626901,125.664696 C24.3592627,125.664696 25.025036,125.509349 25.624241,125.19865 C26.223446,124.887951 26.7394203,124.477391 27.1721795,123.966957 C27.6049387,123.456523 27.9433734,122.885068 28.187494,122.252574 C28.4316146,121.620079 28.553673,120.97095 28.553673,120.305167 C28.553673,119.594998 28.4371627,118.918129 28.2041385,118.274538 C27.9711143,117.630948 27.6493239,117.059492 27.2387575,116.560155 C26.8281911,116.060817 26.3288611,115.666901 25.7407525,115.378395 C25.1526439,115.089889 24.5146111,114.945638 23.826635,114.945638 L14.039669,114.945638 Z M53.254111,137.915048 L53.254111,114.313147 L53.919891,114.313147 L53.919891,137.915048 L53.254111,137.915048 Z" id="B--I--" fill="white"></path>
                <polygon id="T" fill="white" points="92.435264 114.945638 83.380656 114.945638 83.380656 137.915048 82.714876 137.915048 82.714876 114.945638 73.660268 114.945638 73.660268 114.279858 92.435264 114.279858"></polygon>
                <polygon id="Fill-7" fill="white" points="0 147.262 105.664 147.262 105.664 146.433 0 146.433"></polygon>
            </g>
        </g>
    </g>
</svg>